<?xml version="1.0" encoding="UTF-8"?>
<svg version="1.1" xmlns="http://www.w3.org/2000/svg" width="370" height="408">
<path d="M0 0 C122.1 0 244.2 0 370 0 C370 134.64 370 269.28 370 408 C247.9 408 125.8 408 0 408 C0 273.36 0 138.72 0 0 Z " fill="#F6F6F6" transform="translate(0,0)"/>
<path d="M0 0 C9.61077106 5.75450522 16.96585665 15.17028993 20.37109375 25.859375 C22.91947048 38.58543022 21.3973595 50.50012031 14.35546875 61.58984375 C6.99369346 71.5772635 -2.64558113 78.14920356 -14.92578125 80.71484375 C-26.22782943 82.26860932 -36.80444589 80.09648277 -46.375 73.75 C-55.18733787 67.00528186 -63.1299873 57.28172495 -65 46 C-65.95934926 31.01213369 -63.88216354 19.86695326 -54 8 C-39.97653538 -6.76835996 -17.73923211 -9.75037513 0 0 Z " fill="#F2F2F2" transform="translate(204,265)"/>
<path d="M0 0 C3.3125 0.6875 3.3125 0.6875 4.76171875 2.25 C23.56291197 31.9198282 29.64424259 69.85319837 29.61328125 104.30078125 C29.61717905 106.13160802 29.6215159 107.96243391 29.62626648 109.79325867 C29.6336574 113.59258999 29.63348532 117.39182819 29.62817383 121.19116211 C29.62232141 126.06243042 29.63948186 130.93332559 29.6625185 135.80453205 C29.67721245 139.56797004 29.67813464 143.33131648 29.67500877 147.09477806 C29.67552198 148.89255717 29.68075964 150.6903414 29.69082069 152.48809242 C29.70311319 154.98621254 29.69644258 157.48358203 29.68481445 159.98168945 C29.69245819 160.7218782 29.70010193 161.46206696 29.70797729 162.22468567 C29.67747932 165.17858841 29.64444888 167.20207869 27.9493866 169.68083191 C26.3125 170.6875 26.3125 170.6875 23.75 170.5 C21.3125 169.6875 21.3125 169.6875 19.3125 167.6875 C19.09519674 165.12984658 19.00111791 162.67712638 18.99365234 160.11669922 C18.98360672 159.33612152 18.9735611 158.55554382 18.96321106 157.75131226 C18.93226007 155.164945 18.91531108 152.5786818 18.8984375 149.9921875 C18.87973541 148.201417 18.86016273 146.4106554 18.8397522 144.61990356 C18.78832356 139.90172563 18.74875544 135.18351908 18.71160889 130.46520996 C18.67163634 125.65251528 18.6205133 120.83994069 18.5703125 116.02734375 C18.47342623 106.58081339 18.38906226 97.1342154 18.3125 87.6875 C17.90452682 88.7184227 17.49655365 89.7493454 17.07621765 90.81150818 C16.53356562 92.17702669 15.99082086 93.54250835 15.44799805 94.90795898 C15.17999138 95.5859127 14.91198471 96.26386642 14.63585663 96.9623642 C12.73941553 101.72541963 10.69128592 106.30488097 8.125 110.75 C7.74754639 111.41080566 7.37009277 112.07161133 6.98120117 112.75244141 C3.17430623 119.22609918 -1.37378528 124.98638593 -6.13378906 130.77587891 C-9.06750283 134.38539789 -11.90134881 138.07326596 -14.75 141.75 C-15.63981567 142.89408325 -15.63981567 142.89408325 -16.54760742 144.0612793 C-19.68910678 148.10121712 -22.81507589 152.15230672 -25.92089844 156.21972656 C-27.83214655 158.71746408 -29.76080415 161.2016706 -31.6875 163.6875 C-32.27144531 164.46351563 -32.85539062 165.23953125 -33.45703125 166.0390625 C-36.98991758 170.52895854 -36.98991758 170.52895854 -40.4375 171.3125 C-42.6875 170.6875 -42.6875 170.6875 -44.6875 167.6875 C-44.57663036 162.72395147 -41.56262996 159.66855442 -38.5 156.0625 C-0.78456706 111.75181933 -0.78456706 111.75181933 14.375 57.25 C11.86284179 40.94512702 5.42922331 22.989669 -3.34716797 9.05175781 C-4.6875 6.6875 -4.6875 6.6875 -4.4375 3.9375 C-3.3917121 0.80013631 -3.28336567 0.83993075 0 0 Z " fill="#0B0B0B" transform="translate(66.6875,193.3125)"/>
<path d="M0 0 C2.5 0.25 2.5 0.25 4.5 2.25 C4.77124023 4.9362793 4.77124023 4.9362793 4.80859375 8.32421875 C4.84629883 10.16209961 4.84629883 10.16209961 4.88476562 12.03710938 C4.91965718 14.61779188 4.95096291 17.19852559 4.97851562 19.77929688 C5.07072767 28.96059495 5.07072767 28.96059495 8.5 37.25 C12.11471832 40.49011524 15.86005092 42.58537838 20.22265625 44.68359375 C20.87226318 44.99788834 21.52187012 45.31218292 22.19116211 45.63600159 C24.31188155 46.65966887 26.43702159 47.67375585 28.5625 48.6875 C30.04436331 49.40002916 31.52605074 50.11292422 33.00756836 50.82617188 C42.48909257 55.38052168 52.01497088 59.83606694 61.5625 64.25 C64.89845188 65.79860977 68.2341898 67.34767922 71.56982422 68.89697266 C74.1875288 70.10571443 76.81336906 71.29444075 79.44140625 72.48046875 C93.56030786 78.9844322 101.76477579 87.8856311 107.5 102.25 C108.49554396 106.31425525 108.74872261 110.29969292 108.96484375 114.47265625 C109.04191321 115.90267792 109.11914943 117.33269061 109.1965332 118.76269531 C109.2355777 119.50571899 109.27462219 120.24874268 109.31484985 121.01428223 C110.4511016 142.3053612 112.28071316 162.51198348 117.5 183.25 C117.71591797 184.1270459 117.93183594 185.0040918 118.15429688 185.90771484 C121.18456575 198.33600312 121.18456575 198.33600312 125.80078125 210.2421875 C126.66276805 212.71738983 126.7534228 214.6470472 126.5 217.25 C124.5 219.25 124.5 219.25 121.375 219.375 C120.42625 219.33375 119.4775 219.2925 118.5 219.25 C116.44389923 213.93663994 114.44844984 208.60377361 112.5 203.25 C112.07074219 202.07179687 111.64148438 200.89359375 111.19921875 199.6796875 C103.39660892 176.55143035 99.83814413 151.81126735 99.34375 127.47265625 C99.31579346 126.3218457 99.28783691 125.17103516 99.2590332 123.98535156 C99.21301202 121.78324557 99.18893037 119.58051418 99.19213867 117.37792969 C99.00092228 106.7607872 95.52136097 97.04318938 88.07861328 89.30834961 C85.06295266 86.90113178 81.89016375 85.22086527 78.4296875 83.56640625 C77.73492813 83.22680374 77.04016876 82.88720123 76.32435608 82.53730774 C74.05412943 81.43181493 71.77792175 80.33954065 69.5 79.25 C68.73180939 78.881026 67.96361877 78.512052 67.17214966 78.13189697 C62.29169562 75.78979036 57.40194256 73.46775587 52.50802612 71.15393066 C49.87959322 69.91009721 47.25316789 68.66210857 44.62719727 67.41308594 C37.11299486 63.84114055 29.59646246 60.27922183 22.03125 56.81640625 C20.97752197 56.32889893 19.92379395 55.8413916 18.83813477 55.33911133 C16.98512721 54.48364912 15.12667421 53.63982202 13.26147461 52.8112793 C5.44354704 49.17972083 -0.57838152 44.18269431 -3.82910156 36.00732422 C-5.15460198 30.55965254 -5.01134366 25.00843983 -4.91162109 19.4362793 C-4.87465223 17.29233152 -4.8706057 15.1500956 -4.87109375 13.00585938 C-4.78101285 0.47810128 -4.78101285 0.47810128 0 0 Z " fill="#070707" transform="translate(215.5,43.75)"/>
<path d="M0 0 C9.61077106 5.75450522 16.96585665 15.17028993 20.37109375 25.859375 C22.91947048 38.58543022 21.3973595 50.50012031 14.35546875 61.58984375 C6.99369346 71.5772635 -2.64558113 78.14920356 -14.92578125 80.71484375 C-26.22782943 82.26860932 -36.80444589 80.09648277 -46.375 73.75 C-55.18733787 67.00528186 -63.1299873 57.28172495 -65 46 C-65.95934926 31.01213369 -63.88216354 19.86695326 -54 8 C-39.97653538 -6.76835996 -17.73923211 -9.75037513 0 0 Z M-50 18 C-55.1492831 26.43195108 -57.35782302 34.6700571 -55.5390625 44.48828125 C-52.5492301 55.79688261 -46.089883 63.14261299 -36.171875 69.09765625 C-28.98082389 72.45869101 -19.64879832 72.1044796 -12.08984375 70.30859375 C-2.58535213 66.79766099 4.33282177 61.01448754 9 52 C12.7608224 42.97402623 13.12097476 34.68587068 10.03515625 25.4140625 C6.25426308 16.59673427 -1.3179785 9.2482579 -10.125 5.5625 C-25.5401112 0.67998207 -40.1582859 5.08275024 -50 18 Z " fill="#080808" transform="translate(204,265)"/>
<path d="M0 0 C2.5625 0.1875 2.5625 0.1875 4.5625 2.1875 C4.35351933 7.30752636 2.81254293 11.15514243 0.66796875 15.76171875 C-7.79219167 34.32624038 -10.63598466 50.69891957 -3.4375 70.1875 C2.66889719 86.15807726 11.24619339 100.58441431 21.5625 114.1875 C22.89024717 115.99782921 24.21008349 117.81379272 25.53027344 119.62963867 C29.53914987 125.135932 33.60090938 130.59853596 37.75 136 C38.15565186 136.53101318 38.56130371 137.06202637 38.97924805 137.60913086 C40.92398425 140.13701285 42.91414312 142.59436912 45 145.0078125 C45.7425 145.87148438 46.485 146.73515625 47.25 147.625 C47.91386719 148.36621094 48.57773437 149.10742188 49.26171875 149.87109375 C51.00834438 152.9814511 50.44041828 154.81648783 49.5625 158.1875 C47.0625 159.25 47.0625 159.25 43.5625 159.1875 C41.72338867 157.54443359 41.72338867 157.54443359 39.79296875 155.2734375 C39.09155762 154.44884033 38.39014648 153.62424316 37.66748047 152.7746582 C34.46611758 148.83997454 31.39008937 144.82876056 28.375 140.75 C27.73135498 139.88383057 27.08770996 139.01766113 26.42456055 138.12524414 C24.46547064 135.48303626 22.51375867 132.83549397 20.5625 130.1875 C19.98242188 129.40600586 19.40234375 128.62451172 18.8046875 127.81933594 C-6.0749076 94.27527719 -6.0749076 94.27527719 -12.4375 75.1875 C-12.45731934 76.17669434 -12.47713867 77.16588867 -12.49755859 78.18505859 C-12.57353456 81.84922077 -12.66226352 85.51298164 -12.75488281 89.17675781 C-12.79320585 90.76359138 -12.82805288 92.35051281 -12.859375 93.9375 C-12.90495431 96.21646566 -12.96295838 98.49482468 -13.0234375 100.7734375 C-13.04076431 101.84070572 -13.04076431 101.84070572 -13.05844116 102.92953491 C-13.20975659 107.95975659 -13.20975659 107.95975659 -15.4375 110.1875 C-18.4375 110.5 -18.4375 110.5 -21.4375 110.1875 C-23.83835702 106.58621447 -23.74281783 103.95480472 -23.73828125 99.79296875 C-23.74388062 99.05753845 -23.74947998 98.32210815 -23.75524902 97.56439209 C-23.76720625 95.16772254 -23.76086324 92.77166949 -23.75 90.375 C-23.74726578 89.15141281 -23.74726578 89.15141281 -23.74447632 87.90310669 C-23.65408471 63.96640708 -19.66227922 42.19349167 -11.9375 19.5625 C-11.66518555 18.75731934 -11.39287109 17.95213867 -11.11230469 17.12255859 C-5.19621868 0.39970913 -5.19621868 0.39970913 0 0 Z " fill="#0A0A0A" transform="translate(291.4375,204.8125)"/>
<path d="M0 0 C2 2 2 2 2.0546875 4.390625 C0.51180962 8.20781915 -2.30868432 9.15277683 -5.875 10.75 C-6.57955322 11.08580078 -7.28410645 11.42160156 -8.01000977 11.76757812 C-11.971926 13.64666581 -15.97305425 15.4373278 -19.97265625 17.234375 C-33.45709164 23.34576896 -42.85014527 28.85533411 -49 43 C-49.94472927 46.12282034 -50.16158811 49.01364573 -50.24609375 52.26953125 C-50.27759521 53.31214111 -50.30909668 54.35475098 -50.34155273 55.42895508 C-50.38904663 57.10380981 -50.38904663 57.10380981 -50.4375 58.8125 C-51.48271356 89.91901179 -55.97254346 119.0078742 -66.1875 148.4375 C-66.43733643 149.16549805 -66.68717285 149.89349609 -66.94458008 150.64355469 C-68.75821595 155.75821595 -68.75821595 155.75821595 -71 158 C-73.5 158.25 -73.5 158.25 -76 158 C-76.66 157.34 -77.32 156.68 -78 156 C-77.8370822 151.43830157 -77.05025615 147.86614333 -75.25 143.6875 C-63.95544157 116.73550318 -60.87313531 85.21598658 -60.51660156 56.27416992 C-60.22584122 42.40546788 -56.47333775 31.77591776 -47.125 21.375 C-41.63807544 16.17062471 -35.18936609 13.21778283 -28.39794922 10.11816406 C-25.73054339 8.87435234 -23.10260397 7.56329019 -20.47265625 6.2421875 C-18.58614812 5.30686674 -16.69943151 4.37196634 -14.8125 3.4375 C-13.91563477 2.98318604 -13.01876953 2.52887207 -12.09472656 2.06079102 C-11.24491211 1.64756592 -10.39509766 1.23434082 -9.51953125 0.80859375 C-8.76776611 0.43532959 -8.01600098 0.06206543 -7.24145508 -0.32250977 C-4.43853483 -1.16970546 -2.77285794 -0.87361642 0 0 Z " fill="#080808" transform="translate(100,105)"/>
<path d="M0 0 C2.4375 0.8125 2.4375 0.8125 4.4375 2.8125 C4.6890564 4.90409851 4.6890564 4.90409851 4.69287109 7.51831055 C4.69983002 8.49660324 4.70678894 9.47489594 4.71395874 10.48283386 C4.71296173 11.54424088 4.71196472 12.60564789 4.7109375 13.69921875 C4.7312355 15.93945804 4.75208645 18.17969237 4.7734375 20.41992188 C4.79600149 23.95731776 4.81249091 27.49451799 4.81835938 31.03198242 C4.82790327 34.44225637 4.86171692 37.85164404 4.8984375 41.26171875 C4.89339203 42.31300461 4.88834656 43.36429047 4.88314819 44.44743347 C4.96754694 50.77294989 5.63114044 54.68702 9.4375 59.8125 C12.72303527 62.09512463 16.09929342 63.86147473 19.63671875 65.72265625 C22.4375 67.8125 22.4375 67.8125 23.45703125 70.93359375 C23.4375 73.8125 23.4375 73.8125 21.4375 75.8125 C14.96295557 76.62181805 11.39262695 73.68859926 6.28515625 70.09375 C0.12104948 65.15570013 -3.486899 59.46247385 -5.5625 51.8125 C-5.97999548 48.01008719 -5.98367026 44.24044601 -5.9609375 40.41796875 C-5.96380768 39.34879715 -5.96667786 38.27962555 -5.96963501 37.17805481 C-5.97166697 34.93160468 -5.96619824 32.6851365 -5.95361328 30.4387207 C-5.93746839 26.99325438 -5.95353267 23.54894705 -5.97265625 20.10351562 C-5.97067522 17.91666408 -5.96683444 15.72981325 -5.9609375 13.54296875 C-5.96701019 12.51173386 -5.97308289 11.48049896 -5.9793396 10.41801453 C-5.96988312 9.46304581 -5.96042664 8.50807709 -5.95068359 7.52416992 C-5.94829681 6.68448166 -5.94591003 5.8447934 -5.94345093 4.97966003 C-5.29360438 1.28280206 -3.75622368 -0.27484563 0 0 Z " fill="#0F0F0F" transform="translate(224.5625,130.1875)"/>
<path d="M0 0 C2.4375 0.8125 2.4375 0.8125 4.4375 2.8125 C4.69819641 4.81471252 4.69819641 4.81471252 4.7121582 7.30297852 C4.72645622 8.70067223 4.72645622 8.70067223 4.74104309 10.12660217 C4.74013168 11.13798752 4.73922028 12.14937286 4.73828125 13.19140625 C4.74256638 14.23264145 4.7468515 15.27387665 4.75126648 16.34666443 C4.75702004 18.55670443 4.75750253 20.76676338 4.75317383 22.97680664 C4.75003541 26.33708765 4.77338539 29.69646996 4.79882812 33.05664062 C4.80110335 35.20572806 4.80180358 37.35481785 4.80078125 39.50390625 C4.809991 40.50112198 4.81920074 41.49833771 4.82868958 42.52577209 C4.76483903 52.30368007 2.50491212 60.77364308 -4.5625 67.8125 C-10.03169279 72.07731549 -15.43387852 75.9641728 -22.5625 75.8125 C-24.5625 73.8125 -24.5625 73.8125 -24.58203125 70.93359375 C-23.17860352 66.63727666 -21.19219771 65.94914852 -17.25 63.875 C-11.9552757 61.08237386 -8.66174744 58.48246172 -6.5625 52.8125 C-6.01217773 48.96861208 -6.02832039 45.17477092 -6.05859375 41.296875 C-6.04917252 40.20409241 -6.03975128 39.11130981 -6.03004456 37.9854126 C-6.00146455 34.51091543 -5.99831517 31.03710511 -6 27.5625 C-5.99639687 24.07371375 -5.98694436 20.58542276 -5.95924377 17.09674072 C-5.94240108 14.92993481 -5.93962182 12.76296491 -5.95225525 10.59613037 C-5.94537186 9.61791321 -5.93848846 8.63969604 -5.93139648 7.63183594 C-5.93235825 6.77136658 -5.93332001 5.91089722 -5.93431091 5.02435303 C-5.30817307 1.29954333 -3.78694856 -0.2770938 0 0 Z " fill="#0E0E0E" transform="translate(140.5625,130.1875)"/>
<path d="M0 0 C5.56818182 0.56818182 5.56818182 0.56818182 7 2 C7.26839885 6.27068838 7.27144711 10.5475677 7.29516602 14.82568359 C7.31221216 16.96389397 7.35604939 19.10048896 7.40039062 21.23828125 C7.51584538 30.90304824 6.60853982 38.25305754 -0.02734375 45.6875 C-4.58811013 49.89930878 -9.978678 52.40204585 -15.5625 55 C-16.57763672 55.50144531 -17.59277344 56.00289062 -18.63867188 56.51953125 C-19.62544922 56.98746094 -20.61222656 57.45539063 -21.62890625 57.9375 C-22.9603064 58.56978516 -22.9603064 58.56978516 -24.31860352 59.21484375 C-27.55461926 60.16240149 -29.75099676 59.76692315 -33 59 C-33.33 57.02 -33.66 55.04 -34 53 C-27.97702309 48.89924976 -21.6716449 45.89738153 -14.99243164 43.03125 C-9.63155785 40.63170717 -6.52896965 38.1897351 -3.92089844 32.7487793 C-2.84439297 29.53553035 -2.71206108 26.84346492 -2.65625 23.45703125 C-2.62660156 22.21888672 -2.59695312 20.98074219 -2.56640625 19.70507812 C-2.52193556 17.09831069 -2.47766651 14.49153981 -2.43359375 11.88476562 C-2.40394531 10.65048828 -2.37429687 9.41621094 -2.34375 8.14453125 C-2.32505859 7.01378174 -2.30636719 5.88303223 -2.28710938 4.71801758 C-2 2 -2 2 0 0 Z " fill="#060606" transform="translate(146,44)"/>
<path d="M0 0 C2.4375 0.8125 2.4375 0.8125 4.4375 2.8125 C4.69146729 5.46923828 4.69146729 5.46923828 4.69628906 8.8828125 C4.70259338 10.15753418 4.70889771 11.43225586 4.71539307 12.74560547 C4.71181339 14.14290504 4.70771146 15.54020337 4.703125 16.9375 C4.70447171 18.36474677 4.70641229 19.79199309 4.70892334 21.21923828 C4.71187434 24.21195845 4.70757782 27.20455931 4.69824219 30.19726562 C4.68684755 34.03766373 4.69340717 37.87778232 4.70538712 41.71817017 C4.71260643 44.665793 4.71031748 47.61334931 4.70513153 50.56097412 C4.70379523 51.97719353 4.70544209 53.39341894 4.71009064 54.80963135 C4.71515675 56.78714893 4.70606908 58.76468762 4.69628906 60.7421875 C4.69390228 62.43190674 4.69390228 62.43190674 4.69146729 64.15576172 C4.4375 66.8125 4.4375 66.8125 2.4375 68.8125 C-0.5625 69.0625 -0.5625 69.0625 -3.5625 68.8125 C-6.29266743 66.08233257 -5.82148572 64.57962469 -5.8371582 60.75805664 C-5.84669022 59.48656265 -5.85622223 58.21506866 -5.86604309 56.90504456 C-5.86578167 55.51091484 -5.86484465 54.11678511 -5.86328125 52.72265625 C-5.86716688 51.29780451 -5.87150127 49.87295393 -5.87626648 48.44810486 C-5.88373454 45.45958708 -5.88343334 42.47118741 -5.87817383 39.48266602 C-5.87237989 35.65124326 -5.88930497 31.82030402 -5.9125185 27.98896122 C-5.92724504 25.04557972 -5.92812902 22.10231493 -5.92500877 19.15890312 C-5.92552259 17.74629191 -5.93077161 16.33367427 -5.94082069 14.92109871 C-5.9531447 12.94621587 -5.94446515 10.9712356 -5.93481445 8.99633789 C-5.93544388 7.87207901 -5.9360733 6.74782013 -5.9367218 5.5894928 C-5.5625 2.8125 -5.5625 2.8125 -4.1993866 0.91429138 C-2.5625 -0.1875 -2.5625 -0.1875 0 0 Z " fill="#111111" transform="translate(182.5625,160.1875)"/>
<path d="M0 0 C5.71428571 0.71428571 5.71428571 0.71428571 7 2 C7 8.99883933 3.45869016 12.8661035 -1 18 C-0.05125 18.45375 0.8975 18.9075 1.875 19.375 C5 21 5 21 7 23 C6.67070609 26.72444096 5.50916938 29.13459722 3.34765625 32.13671875 C2.81849609 32.87857422 2.28933594 33.62042969 1.74414062 34.38476562 C1.18919922 35.14466797 0.63425781 35.90457031 0.0625 36.6875 C-0.48857422 37.45900391 -1.03964844 38.23050781 -1.60742188 39.02539062 C-5.65093653 44.65093653 -5.65093653 44.65093653 -8 47 C-10.5 47.25 -10.5 47.25 -13 47 C-15 45 -15 45 -15.375 42.73828125 C-14.86873399 39.04148469 -13.26470422 37.12453828 -11 34.1875 C-10.2575 33.21167969 -9.515 32.23585938 -8.75 31.23046875 C-8.1725 30.49441406 -7.595 29.75835937 -7 29 C-8.134375 28.62875 -9.26875 28.2575 -10.4375 27.875 C-12.37109375 27.2421875 -12.37109375 27.2421875 -14 26 C-15.15234375 23.49609375 -15.15234375 23.49609375 -15 20 C-13.06614648 16.45146147 -10.62330458 13.35473642 -8.125 10.1875 C-7.12919922 8.88135742 -7.12919922 8.88135742 -6.11328125 7.54882812 C-1.42986919 1.42986919 -1.42986919 1.42986919 0 0 Z " fill="#090909" transform="translate(186,279)"/>
<path d="M0 0 C2.4375 0.8125 2.4375 0.8125 4.4375 2.8125 C4.83613496 7.06992138 4.76652541 11.34197574 4.75317383 15.6159668 C4.75001689 17.73864206 4.77345761 19.85991936 4.79882812 21.98242188 C4.80110146 23.33072741 4.80180446 24.67903669 4.80078125 26.02734375 C4.80376221 27.25573975 4.80674316 28.48413574 4.80981445 29.74975586 C4.4375 32.8125 4.4375 32.8125 3.07495117 34.74829102 C1.4375 35.8125 1.4375 35.8125 -1.125 35.625 C-3.5625 34.8125 -3.5625 34.8125 -5.5625 32.8125 C-5.96113496 28.55507862 -5.89152541 24.28302426 -5.87817383 20.0090332 C-5.87501689 17.88635794 -5.89845761 15.76508064 -5.92382812 13.64257812 C-5.92610146 12.29427259 -5.92680446 10.94596331 -5.92578125 9.59765625 C-5.92876221 8.36926025 -5.93174316 7.14086426 -5.93481445 5.87524414 C-5.5625 2.8125 -5.5625 2.8125 -4.19995117 0.87670898 C-2.5625 -0.1875 -2.5625 -0.1875 0 0 Z " fill="#111111" transform="translate(273.5625,328.1875)"/>
<path d="M0 0 C2.66949928 -0.13119334 4.47690234 -0.03740649 6.828125 1.28515625 C8.35293285 4.14417097 7.6851932 6.12745339 6.828125 9.16015625 C3.29226603 10.92808574 -0.77082532 10.63346977 -4.671875 10.84765625 C-5.55230469 10.90759766 -6.43273437 10.96753906 -7.33984375 11.02929688 C-8.18160156 11.07634766 -9.02335938 11.12339844 -9.890625 11.171875 C-10.66341797 11.21787842 -11.43621094 11.26388184 -12.23242188 11.3112793 C-14.171875 11.16015625 -14.171875 11.16015625 -16.171875 9.16015625 C-16.52679125 6.3918095 -16.6652296 4.82982446 -14.98046875 2.54296875 C-10.94279989 -0.5441474 -4.89685837 0.36109927 0 0 Z " fill="#0E0E0E" transform="translate(253.171875,289.83984375)"/>
<path d="M0 0 C2.5419589 -0.05434116 5.08273682 -0.0938339 7.625 -0.125 C8.33785156 -0.14175781 9.05070312 -0.15851563 9.78515625 -0.17578125 C14.25245682 -0.21676566 17.80578755 0.25778868 22 2 C23 3 23 3 23.1875 5.4375 C23 8 23 8 21 10 C14.96212946 10.67341089 5.44204227 11.21327019 0.18359375 7.83203125 C-1 6 -1 6 -0.6875 2.8125 C-0.460625 1.884375 -0.23375 0.95625 0 0 Z " fill="#0A0A0A" transform="translate(104,291)"/>
<path d="M0 0 C2.79296875 0.48046875 2.79296875 0.48046875 4.79296875 2.48046875 C4.69845345 7.97023271 2.14454381 11.07660214 -1.45703125 14.91796875 C-1.93527344 15.47162109 -2.41351563 16.02527344 -2.90625 16.59570312 C-4.34765625 18.1640625 -4.34765625 18.1640625 -7.20703125 20.48046875 C-10.69296153 20.44560945 -11.74094817 19.94655183 -14.20703125 17.48046875 C-14.03261111 12.73790221 -11.43672847 9.6728641 -8.51953125 6.16796875 C-8.09736328 5.61818359 -7.67519531 5.06839844 -7.24023438 4.50195312 C-4.91748147 1.6817177 -3.66108886 0.54849443 0 0 Z " fill="#0D0D0D" transform="translate(244.20703125,268.51953125)"/>
<path d="M0 0 C4.2915125 0.06058606 6.37687488 0.44569766 9.6171875 3.328125 C10.73480469 4.77445312 10.73480469 4.77445312 11.875 6.25 C12.63554687 7.20390625 13.39609375 8.1578125 14.1796875 9.140625 C15.95198414 11.92457594 16.75132245 13.73328125 17 17 C15.875 18.875 15.875 18.875 14 20 C10.4418402 19.83605748 9.07970474 19.06921107 6.359375 16.70703125 C5.49828125 15.75183594 4.6371875 14.79664063 3.75 13.8125 C2.87859375 12.87019531 2.0071875 11.92789062 1.109375 10.95703125 C-1.14824669 7.7921801 -1.89065602 5.86530986 -2 2 C-1.34 1.34 -0.68 0.68 0 0 Z " fill="#0D0D0D" transform="translate(117,269)"/>
<path d="M0 0 C2 0.6875 2 0.6875 4 2.6875 C3.92923138 6.61788049 3.35271322 8.2945282 0.70703125 11.2421875 C-0.24816406 12.00789063 -1.20335938 12.77359375 -2.1875 13.5625 C-3.60095703 14.73425781 -3.60095703 14.73425781 -5.04296875 15.9296875 C-8.37552397 17.91073089 -10.19055336 18.13956168 -14 17.6875 C-15 16.6875 -15 16.6875 -15.3984375 13.95703125 C-14.85177947 9.47121978 -13.02481557 8.25479236 -9.625 5.375 C-8.62726563 4.51261719 -7.62953125 3.65023438 -6.6015625 2.76171875 C-2.62356067 -0.40993136 -2.62356067 -0.40993136 0 0 Z " fill="#0A0A0A" transform="translate(127,304.3125)"/>
<path d="M0 0 C3.63698827 1.13817556 5.72716899 3.01110102 8.55859375 5.546875 C10.02232422 6.82111328 10.02232422 6.82111328 11.515625 8.12109375 C13.74609375 10.859375 13.74609375 10.859375 14.1328125 14.12890625 C13.74609375 16.859375 13.74609375 16.859375 12.74609375 17.859375 C8.93664711 18.31143668 7.12161772 18.08260589 3.7890625 16.1015625 C2.84675781 15.32039063 1.90445313 14.53921875 0.93359375 13.734375 C-0.02160156 12.96867187 -0.97679687 12.20296875 -1.9609375 11.4140625 C-4.6062416 8.4668242 -5.10724852 6.77567953 -5.25390625 2.859375 C-3.74592984 0.26230451 -3.00590288 -0.18754333 0 0 Z " fill="#090909" transform="translate(238.25390625,304.140625)"/>
</svg>
