<?xml version="1.0" encoding="UTF-8"?>
<svg version="1.1" xmlns="http://www.w3.org/2000/svg" width="652" height="631">
<path d="M0 0 C215.16 0 430.32 0 652 0 C652 208.23 652 416.46 652 631 C436.84 631 221.68 631 0 631 C0 422.77 0 214.54 0 0 Z " fill="#FEFEFE" transform="translate(0,0)"/>
<path d="M0 0 C5.27416374 3.44887954 7.73013157 7.55384456 10.04296875 13.3359375 C10.04296875 36.1059375 10.04296875 58.8759375 10.04296875 82.3359375 C105.08296875 82.3359375 200.12296875 82.3359375 298.04296875 82.3359375 C298.04296875 59.5659375 298.04296875 36.7959375 298.04296875 13.3359375 C303.68059941 3.18820231 303.68059941 3.18820231 307.16796875 0.8359375 C307.83054687 0.371875 308.493125 -0.0921875 309.17578125 -0.5703125 C313.87393382 -3.3223684 318.76472221 -3.21306288 324.04296875 -2.6640625 C330.2091211 -0.86514986 334.56441796 3.00732944 338.04296875 8.3359375 C340.02659714 12.41734621 340.28653285 15.7211551 340.27001953 20.23754883 C340.27031158 20.91127533 340.27060364 21.58500183 340.27090454 22.27914429 C340.26951813 24.49221964 340.25398986 26.70495266 340.23828125 28.91796875 C340.23454866 30.45781775 340.23170285 31.99766913 340.22970581 33.53752136 C340.22208869 37.58009458 340.20245683 41.62252289 340.18029785 45.66503906 C340.15979793 49.7942509 340.15069524 53.92348626 340.140625 58.05273438 C340.11920901 66.14720173 340.08509641 74.24155156 340.04296875 82.3359375 C343.67296875 82.3359375 347.30296875 82.3359375 351.04296875 82.3359375 C351.02202148 80.52996094 351.00107422 78.72398437 350.97949219 76.86328125 C350.91478976 70.87230046 350.8689388 64.88141925 350.83572006 58.89019775 C350.8149136 55.26042019 350.78672521 51.63102335 350.74121094 48.00146484 C350.69750216 44.49362487 350.67377954 40.9861493 350.66345978 37.47805786 C350.65255621 35.49949106 350.6213704 33.52106929 350.58978271 31.54272461 C350.58770385 23.14354387 351.55104815 18.10997297 356.55834961 11.26416016 C361.78183359 6.46493138 366.74258987 6.49223518 373.60546875 6.7109375 C374.62060547 6.70449219 375.63574219 6.69804688 376.68164062 6.69140625 C384.44120366 6.80290879 388.31509144 8.60806019 393.85546875 14.1484375 C396.28459831 17.68802629 396.7884699 20.09429005 397.04296875 24.3359375 C397.97238281 24.30113281 398.90179687 24.26632813 399.859375 24.23046875 C414.19612993 23.91652521 414.19612993 23.91652521 420.85546875 29.8359375 C424.16186794 33.61467944 425.29701927 35.55499244 425.16796875 40.5234375 C425.14992188 41.42449219 425.131875 42.32554688 425.11328125 43.25390625 C425.07847656 44.28451172 425.07847656 44.28451172 425.04296875 45.3359375 C426.12835937 45.30113281 427.21375 45.26632813 428.33203125 45.23046875 C429.77732817 45.20231362 431.22264196 45.17501531 432.66796875 45.1484375 C433.73724609 45.11073242 433.73724609 45.11073242 434.828125 45.07226562 C440.51930664 44.99394661 444.58907734 46.07238987 448.90625 50.0546875 C449.62361328 50.93640625 449.62361328 50.93640625 450.35546875 51.8359375 C450.84660156 52.42375 451.33773437 53.0115625 451.84375 53.6171875 C454.30541335 57.14530435 454.18892766 60.44349517 454.23583984 64.6081543 C454.25190277 65.9034758 454.2679657 67.1987973 454.28451538 68.53337097 C454.296005 69.95062603 454.30661318 71.36788846 454.31640625 72.78515625 C454.32439177 73.85827529 454.32439177 73.85827529 454.3325386 74.9530735 C454.35924946 78.74238639 454.37862788 82.53166663 454.39306641 86.32104492 C454.40638457 89.44732053 454.43419918 92.57294013 454.47509766 95.69897461 C454.52459312 99.48265171 454.54920806 103.2657357 454.55629349 107.04972267 C454.56297866 108.48616832 454.57812923 109.92260215 454.6021843 111.35886192 C454.73170872 119.56272323 454.74714941 126.0357848 449.04296875 132.3359375 C443.76078054 137.48268499 438.86979653 138.44401194 431.66796875 138.4609375 C429.7927778 138.42899994 427.91763665 138.39053948 426.04296875 138.3359375 C426.05650391 139.27953125 426.05650391 139.27953125 426.0703125 140.2421875 C425.85159122 146.55657585 424.54219972 150.21170653 420.046875 154.70703125 C413.15819684 160.30660004 405.58367193 159.68746034 397.04296875 159.3359375 C396.98109375 160.3671875 396.91921875 161.3984375 396.85546875 162.4609375 C395.75468889 167.71081067 393.48815749 170.29512106 389.53125 173.59765625 C384.79988301 176.62785758 379.93851446 176.71831757 374.48046875 176.7734375 C373.40007324 176.78866455 373.40007324 176.78866455 372.29785156 176.80419922 C366.36327593 176.70777934 361.45332765 175.43960199 356.86328125 171.43359375 C356.30382812 170.76199219 355.744375 170.09039062 355.16796875 169.3984375 C354.59304688 168.72941406 354.018125 168.06039062 353.42578125 167.37109375 C350.82308474 163.54057148 350.92006014 159.82370714 350.92944336 155.28222656 C350.92951889 154.06126282 350.92959442 152.84029907 350.92967224 151.58233643 C350.93483353 150.26868103 350.93999481 148.95502563 350.9453125 147.6015625 C350.94717854 146.2396449 350.94860157 144.87772662 350.94960022 143.51580811 C350.95341072 139.93851861 350.96322843 136.36126998 350.9743042 132.78399658 C350.98454991 129.13074293 350.9891046 125.47748264 350.99414062 121.82421875 C351.00485206 114.66143974 351.02191081 107.49869436 351.04296875 100.3359375 C347.41296875 100.3359375 343.78296875 100.3359375 340.04296875 100.3359375 C339.79872109 128.78020679 339.64785887 157.22368484 339.60512543 185.66900158 C339.58315251 198.87982583 339.53177583 212.08925932 339.40869141 225.29956055 C339.30136085 236.82734317 339.25173164 248.35376184 339.26851988 259.8820551 C339.27545303 265.97466789 339.2554515 272.06424657 339.16609192 278.15627098 C338.79331984 304.92019605 338.79725621 326.43233012 355.08387756 348.63672829 C363.38309347 360.07127517 367.53353136 369.98927237 366.04296875 384.3359375 C364.36672516 390.63182861 360.34592376 394.74469581 355.04296875 398.3359375 C349.66241543 401.27078476 345.97736469 401.44640195 340.04296875 401.3359375 C340.0518512 402.42064331 340.06073364 403.50534912 340.06988525 404.6229248 C340.1510958 414.86281056 340.21099401 425.10263066 340.25021744 435.34276581 C340.2710608 440.60690266 340.29931915 445.8707788 340.34472656 451.13476562 C340.3883001 456.21817068 340.41213031 461.3013255 340.42247772 466.38490295 C340.42984844 468.3209273 340.44424173 470.25693849 340.46588898 472.19285583 C340.49507603 474.91207091 340.49891839 477.63026198 340.49707031 480.34960938 C340.51145142 481.14371216 340.52583252 481.93781494 340.54064941 482.75598145 C340.48927258 489.77710517 338.17491269 494.81126704 333.66796875 500.1484375 C328.18927574 504.71401501 323.83460212 505.91477513 316.7890625 505.67578125 C310.51347328 504.89914361 306.57607318 502.37667368 302.66796875 497.4609375 C298.43992789 491.62671352 297.75112203 485.81239338 297.81591797 478.76025391 C297.81562592 477.92057068 297.81533386 477.08088745 297.81503296 476.21575928 C297.81641989 473.45623229 297.83195102 470.69697949 297.84765625 467.9375 C297.85138864 466.01793566 297.85423455 464.09836942 297.85623169 462.17880249 C297.86385031 457.13835343 297.88348359 452.09802051 297.90563965 447.05761719 C297.92613625 441.90952119 297.93524156 436.76140633 297.9453125 431.61328125 C297.96673118 421.52077422 298.00189888 411.42838371 298.04296875 401.3359375 C289.13296875 401.3359375 280.22296875 401.3359375 271.04296875 401.3359375 C271.37296875 402.3259375 271.70296875 403.3159375 272.04296875 404.3359375 C272.18730032 405.92908005 272.28088546 407.52706654 272.34399414 409.12548828 C272.38374863 410.11370575 272.42350311 411.10192322 272.46446228 412.12008667 C272.50197098 413.20452057 272.53947968 414.28895447 272.578125 415.40625 C272.61913834 416.54990021 272.66015167 417.69355042 272.70240784 418.87185669 C273.13480255 431.7994605 273.36412482 444.7285513 273.43584251 457.66289902 C273.456347 461.32929849 273.48918332 464.99468028 273.55053711 468.66064453 C273.61115318 472.2958259 273.64151302 475.93013753 273.65117073 479.56579971 C273.66362949 481.57093499 273.70548613 483.57582112 273.74839783 485.58053589 C273.72481197 496.09229236 270.7647243 504.23045337 263.91796875 512.2734375 C255.89184559 519.4077692 246.24270541 521.39864319 235.81640625 520.80859375 C227.00063646 519.70434101 221.28018567 515.57631631 215.73046875 508.7734375 C207.58630504 497.00964548 207.85241751 481.39059409 206.640625 467.609375 C206.51672939 466.24560347 206.39223994 464.88188577 206.26719666 463.51821899 C205.74423066 457.80909636 205.22759397 452.09944031 204.72290039 446.38867188 C204.41099559 442.86394049 204.08972298 439.34016163 203.76281548 435.81679153 C203.5838105 433.85905599 203.41491517 431.90040426 203.24635315 429.94174194 C202.2517326 415.23104682 202.2517326 415.23104682 196.04296875 402.3359375 C193.14029306 401.81875376 190.80859196 401.64451041 187.8996582 401.67651367 C187.07016663 401.66602997 186.24067505 401.65554626 185.38604736 401.64474487 C182.64240418 401.61592745 179.90001781 401.62229399 177.15625 401.62890625 C175.25480055 401.61579522 173.35336504 401.60049284 171.45195007 401.58308411 C166.44596037 401.54315142 161.44033431 401.53303835 156.4342041 401.52905273 C151.32646597 401.51973685 146.21894289 401.48233306 141.11132812 401.44726562 C131.08855178 401.38260563 121.06593539 401.34943455 111.04296875 401.3359375 C110.05296875 404.3059375 109.06296875 407.2759375 108.04296875 410.3359375 C107.38296875 410.3359375 106.72296875 410.3359375 106.04296875 410.3359375 C106.00538452 411.16786621 106.00538452 411.16786621 105.96704102 412.01660156 C105.85068948 414.53992593 105.72814121 417.06291286 105.60546875 419.5859375 C105.56615234 420.45863281 105.52683594 421.33132813 105.48632812 422.23046875 C105.42348633 423.49697266 105.42348633 423.49697266 105.359375 424.7890625 C105.30438843 425.95163574 105.30438843 425.95163574 105.24829102 427.13769531 C105.04296875 429.3359375 105.04296875 429.3359375 104.5572052 431.2008667 C104.03029216 433.38856973 103.78907858 435.45332523 103.60986328 437.6953125 C103.53953888 438.55141113 103.46921448 439.40750977 103.39675903 440.28955078 C103.32383636 441.2123584 103.2509137 442.13516602 103.17578125 443.0859375 C103.01060038 445.07814024 102.84522913 447.0703272 102.6796875 449.0625 C102.42495603 452.17264991 102.17220968 455.28293008 101.92333984 458.39355469 C101.06051306 469.11750606 100.11234344 479.81104481 98.59375 490.46484375 C98.42850327 491.68210144 98.42850327 491.68210144 98.25991821 492.9239502 C97.28573727 499.35502857 95.11542467 504.2181453 91.04296875 509.3359375 C90.14578125 510.728125 90.14578125 510.728125 89.23046875 512.1484375 C82.74003825 518.638868 75.28330011 520.45848364 66.35546875 520.6484375 C56.93851204 520.569552 49.78179814 518.07476689 43.04296875 511.3359375 C36.82475902 504.11623726 34.73356556 498.05640838 34.80004883 488.59594727 C34.79815048 487.73824738 34.79625214 486.88054749 34.79429626 485.99685669 C34.79060455 483.17359144 34.80127146 480.35058598 34.8125 477.52734375 C34.81369303 475.55728689 34.8141447 473.58722945 34.81388855 471.61717224 C34.81545075 467.49238513 34.82371936 463.36768512 34.8371582 459.24291992 C34.85413633 453.9660765 34.85797263 448.68932882 34.85721302 443.41246128 C34.8574855 439.34518018 34.86297945 435.27791985 34.87021446 431.21064568 C34.87338793 429.2654632 34.87536544 427.32027838 34.87610817 425.37509346 C34.87828643 422.65179602 34.88706292 419.92859815 34.89770508 417.20532227 C34.89725189 416.40769974 34.89679871 415.61007721 34.89633179 414.7882843 C34.90059677 414.0384729 34.90486176 413.2886615 34.90925598 412.51612854 C34.91176975 411.55302183 34.91176975 411.55302183 34.9143343 410.57045841 C35.09255872 407.47450556 35.60441002 404.40584862 36.04296875 401.3359375 C27.46296875 401.3359375 18.88296875 401.3359375 10.04296875 401.3359375 C10.06391602 403.95982422 10.08486328 406.58371094 10.10644531 409.28710938 C10.17282872 417.97226211 10.21694944 426.65742627 10.25021744 435.34276581 C10.2710608 440.60690266 10.29931915 445.8707788 10.34472656 451.13476562 C10.3883001 456.21817068 10.41213031 461.3013255 10.42247772 466.38490295 C10.42984844 468.3209273 10.44424173 470.25693849 10.46588898 472.19285583 C10.49507603 474.91207091 10.49891839 477.63026198 10.49707031 480.34960938 C10.51145142 481.14371216 10.52583252 481.93781494 10.54064941 482.75598145 C10.4931118 489.25243993 8.5826615 494.45093565 4.26171875 499.359375 C3.69453125 499.80539062 3.12734375 500.25140625 2.54296875 500.7109375 C1.97578125 501.17242188 1.40859375 501.63390625 0.82421875 502.109375 C-4.66228425 505.88736171 -9.41648117 505.91195185 -15.95703125 505.3359375 C-21.98703313 503.65544517 -25.62048019 500.51334432 -28.95703125 495.3359375 C-31.73547731 489.85780828 -32.38100731 485.65071557 -32.29760742 479.55493164 C-32.2980455 478.70534882 -32.29848358 477.85576599 -32.29893494 476.98043823 C-32.29685773 474.19375001 -32.27357748 471.40767588 -32.25 468.62109375 C-32.24440024 466.68054025 -32.24013194 464.73998249 -32.23713684 462.79942322 C-32.22571799 457.70795856 -32.19627633 452.61675327 -32.1630249 447.52539062 C-32.13226012 442.32360339 -32.11861783 437.12177399 -32.10351562 431.91992188 C-32.07140375 421.72514687 -32.02024329 411.53056381 -31.95703125 401.3359375 C-32.5595874 401.35261475 -33.16214355 401.36929199 -33.78295898 401.38647461 C-34.58161377 401.3994458 -35.38026855 401.41241699 -36.203125 401.42578125 C-36.99130615 401.4424585 -37.7794873 401.45913574 -38.59155273 401.47631836 C-45.07277272 401.09168615 -49.16778895 397.39126628 -53.39453125 392.7734375 C-57.5890305 387.90584835 -58.13006735 384.54285464 -58.20703125 378.1484375 C-58.2328125 376.87613281 -58.25859375 375.60382813 -58.28515625 374.29296875 C-57.67484779 366.93293929 -54.73776945 361.51650418 -50.51953125 355.5234375 C-49.67244067 354.26669948 -48.8261963 353.0093908 -47.98064804 351.75161457 C-46.00960848 348.83370833 -43.96224295 346.00105433 -41.83993912 343.19176769 C-32.69081075 330.6079797 -31.24469647 320.53086318 -31.50292969 305.24926758 C-31.49643537 303.00016754 -31.48465826 300.75107761 -31.46806335 298.50202942 C-31.43816114 292.45694708 -31.4812102 286.41442114 -31.5383749 280.36961961 C-31.58558405 274.03020508 -31.56430226 267.69100894 -31.55059814 261.35148621 C-31.53672539 250.73076027 -31.56433652 240.11097517 -31.62451172 229.49047852 C-31.68631797 218.56169572 -31.72256092 207.63330984 -31.72509766 196.7043457 C-31.72526334 196.02830246 -31.72542903 195.35225921 -31.72559974 194.65572981 C-31.72627563 191.26350357 -31.72645606 187.87127753 -31.72639036 184.47905123 C-31.72648569 156.43095985 -31.8138827 128.38363628 -31.95703125 100.3359375 C-36.24703125 100.3359375 -40.53703125 100.3359375 -44.95703125 100.3359375 C-44.92561035 102.99160767 -44.92561035 102.99160767 -44.89355469 105.70092773 C-44.82880036 111.58011039 -44.78297771 117.45928081 -44.74978256 123.33871365 C-44.72899371 126.90008579 -44.7008384 130.46106864 -44.65527344 134.0222168 C-44.60310592 138.12552419 -44.58401431 142.22842889 -44.56640625 146.33203125 C-44.54576111 147.59800644 -44.52511597 148.86398163 -44.50384521 150.1683197 C-44.50190105 157.89395996 -45.0074656 164.9233361 -50.36932373 170.9138031 C-57.29723508 177.08963587 -64.76439144 177.00881678 -73.54296875 176.7734375 C-79.21477302 176.391337 -83.16372517 174.63622483 -86.95703125 170.3359375 C-89.4316143 166.71609287 -90.95703125 163.75578587 -90.95703125 159.3359375 C-91.97023437 159.37074219 -92.9834375 159.40554687 -94.02734375 159.44140625 C-95.37888955 159.46956345 -96.73045344 159.49686153 -98.08203125 159.5234375 C-98.7471875 159.54857422 -99.41234375 159.57371094 -100.09765625 159.59960938 C-105.6754615 159.68163592 -109.58509524 158.47016315 -113.75 154.72265625 C-118.01486164 149.5259761 -121.16770245 145.28808703 -120.95703125 138.3359375 C-122.33375 138.42294922 -122.33375 138.42294922 -123.73828125 138.51171875 C-135.94692904 138.9605661 -135.94692904 138.9605661 -141.41015625 134.828125 C-145.76942503 130.62297179 -148.67432176 125.44308034 -149.22445679 119.39677429 C-149.23208038 118.31281876 -149.23970398 117.22886322 -149.24755859 116.11206055 C-149.2603183 114.87695236 -149.273078 113.64184418 -149.28622437 112.36930847 C-149.28928258 111.02875933 -149.29151004 109.68820808 -149.29296875 108.34765625 C-149.29940264 106.96149053 -149.30613144 105.57532614 -149.31314087 104.18916321 C-149.32509568 101.28663996 -149.32882364 98.38423557 -149.32763672 95.48168945 C-149.32743381 91.77963145 -149.35471362 88.07834353 -149.38918114 84.3764677 C-149.41152542 81.51351997 -149.41547196 78.65075523 -149.41441727 75.78772926 C-149.41676278 74.42389082 -149.42552666 73.06004653 -149.441082 71.69629478 C-149.52246156 63.82373774 -149.35360537 58.0011518 -144.95703125 51.3359375 C-141.26226093 47.57569973 -138.40308151 45.3720166 -133.04296875 45.23828125 C-131.47262662 45.24493524 -129.90230006 45.25686811 -128.33203125 45.2734375 C-127.53023437 45.27794922 -126.7284375 45.28246094 -125.90234375 45.28710938 C-123.92054119 45.29890582 -121.93877692 45.31684145 -119.95703125 45.3359375 C-119.97894531 44.08039063 -120.00085938 42.82484375 -120.0234375 41.53125 C-120.09626079 37.35890371 -119.3375133 34.8682657 -116.95703125 31.3359375 C-112.73352838 27.07249606 -109.60626367 24.4083209 -103.3828125 24.23828125 C-102.01168467 24.24490506 -100.64057408 24.25679552 -99.26953125 24.2734375 C-98.56763672 24.27794922 -97.86574219 24.28246094 -97.14257812 24.28710938 C-95.41402587 24.29886823 -93.6855176 24.31680296 -91.95703125 24.3359375 C-91.76367188 22.94761719 -91.76367188 22.94761719 -91.56640625 21.53125 C-90.41958281 15.51777835 -86.88682454 11.74887132 -81.95703125 8.3359375 C-77.57008731 6.87362285 -73.30348518 7.07046807 -68.70703125 7.0234375 C-67.77761719 6.99443359 -66.84820312 6.96542969 -65.890625 6.93554688 C-59.66219566 6.87828409 -56.01926114 7.64116712 -50.95703125 11.3359375 C-49.21484375 13.08203125 -49.21484375 13.08203125 -48.08203125 14.7734375 C-47.69273437 15.32902344 -47.3034375 15.88460937 -46.90234375 16.45703125 C-44.84823884 20.53977695 -44.83388618 24.82719156 -44.84350586 29.31958008 C-44.84361916 31.09085014 -44.84361916 31.09085014 -44.84373474 32.89790344 C-44.84889603 34.16264999 -44.85405731 35.42739655 -44.859375 36.73046875 C-44.86078995 38.03296066 -44.8622049 39.33545258 -44.86366272 40.67741394 C-44.8674677 44.12810204 -44.87728061 47.57874758 -44.8883667 51.02941895 C-44.89862436 54.55541407 -44.90316965 58.08141611 -44.90820312 61.60742188 C-44.91890481 68.51694626 -44.93648513 75.42643545 -44.95703125 82.3359375 C-40.66703125 82.3359375 -36.37703125 82.3359375 -31.95703125 82.3359375 C-31.9727417 80.31791016 -31.98845215 78.29988281 -32.00463867 76.22070312 C-32.05448878 69.53122982 -32.08754161 62.84174801 -32.11246777 56.15213776 C-32.1280816 52.09872053 -32.14924086 48.04549464 -32.18334961 43.9921875 C-32.21609686 40.07588334 -32.23391643 36.15976249 -32.24166298 32.24333191 C-32.24717906 30.75389218 -32.25795032 29.26446177 -32.27422142 27.77510071 C-32.45652081 10.38697705 -32.45652081 10.38697705 -26.80078125 3.83984375 C-26.02734375 3.19917969 -25.25390625 2.55851562 -24.45703125 1.8984375 C-23.296875 0.91037109 -23.296875 0.91037109 -22.11328125 -0.09765625 C-15.612874 -4.81987238 -6.79715957 -3.3925646 0 0 Z " fill="#1A1F38" transform="translate(182.95703125,67.6640625)"/>
<path d="M0 0 C3.97941908 2.14276412 6.3556594 3.78456062 8 8 C8.24291992 10.30249023 8.24291992 10.30249023 8.23046875 12.80859375 C8.22853516 13.72060547 8.22660156 14.63261719 8.22460938 15.57226562 C8.20624023 16.99055664 8.20624023 16.99055664 8.1875 18.4375 C8.18685547 19.37916016 8.18621094 20.32082031 8.18554688 21.29101562 C8.15753542 25.70126389 7.87556091 29.67533409 7 34 C5.7286199 46.73364995 4.86585429 59.63860683 4.6875 72.4375 C4.67074219 73.59121094 4.65398437 74.74492187 4.63671875 75.93359375 C5.29434533 81.48452775 8.00833397 85.37026777 11.6875 89.4375 C12.31011719 90.13746094 12.93273437 90.83742188 13.57421875 91.55859375 C15.55930722 93.55646862 17.565626 95.37589169 19.69921875 97.20703125 C25.28361982 102.03308091 30.34854214 107.36693357 35.46484375 112.6796875 C36.22152344 113.45054687 36.97820312 114.22140625 37.7578125 115.015625 C38.4295752 115.70946289 39.10133789 116.40330078 39.79345703 117.11816406 C45.89474874 122.32161134 51.47676204 122.45877723 59.1550293 122.48339844 C60.82696098 122.50574051 60.82696098 122.50574051 62.53266907 122.52853394 C66.21324259 122.57227987 69.89342816 122.59278477 73.57421875 122.609375 C76.14004013 122.62664026 78.70586146 122.64391332 81.27168274 122.66119385 C85.96405906 122.6886696 90.65628122 122.70758321 95.34872407 122.7166841 C102.23002494 122.73010802 109.10953252 122.78267877 115.99028844 122.86968589 C121.97259919 122.94267447 127.9540698 122.96553223 133.93686867 122.97071075 C136.47055634 122.97976233 139.00423816 123.00375403 141.5376339 123.0432663 C157.04261675 123.86559462 157.04261675 123.86559462 170.6965332 117.86083984 C172.18251439 116.28765025 173.62377418 114.67005033 175 113 C176.24358013 111.82513678 177.49969389 110.66330871 178.77148438 109.51904297 C179.88419377 108.43214469 180.99162761 107.33981964 182.09375 106.2421875 C182.69255981 105.65003448 183.29136963 105.05788147 183.9083252 104.44778442 C185.15076048 103.21533074 186.39063804 101.98029321 187.62792969 100.74267578 C189.51472373 98.86031083 191.4170548 96.99460608 193.3203125 95.12890625 C194.53743344 93.9176457 195.7536142 92.70543953 196.96875 91.4921875 C197.81246155 90.6700325 197.81246155 90.6700325 198.67321777 89.83126831 C203.07704597 85.37581031 205.60673397 81.15769488 206.3984375 74.80078125 C206.32178329 63.39207994 205.07080597 52.15848895 203.75390625 40.83203125 C202.9973967 34.2313087 202.4629075 27.62703622 202 21 C201.84724609 19.08574219 201.84724609 19.08574219 201.69140625 17.1328125 C201.47543312 12.0934394 201.3386389 7.93465221 204.3125 3.6875 C207.2028858 0.91438523 209.674945 0.49228831 213.625 0.3125 C217.06469556 0.54585791 218.65545532 0.77310473 221.5625 2.6875 C224.00219366 6.61222458 225.21919089 10.24002902 225.59423828 14.83666992 C225.67411484 15.77429169 225.75399139 16.71191345 225.83628845 17.677948 C225.91351639 18.68527985 225.99074432 19.69261169 226.0703125 20.73046875 C226.19999168 22.31373459 226.19999168 22.31373459 226.33229065 23.9289856 C226.60764263 27.34772641 226.86856267 30.76729064 227.125 34.1875 C227.21238434 35.34526947 227.29976868 36.50303894 227.38980103 37.69589233 C231.30299747 90.15753854 231.30299747 90.15753854 222 101 C213.50164458 110.37458793 204.39103322 119.12218669 194.81616211 127.38891602 C191.91299765 129.96425978 189.21098807 132.7253914 186.5 135.5 C183.02974488 139.01410041 179.57107211 142.47784714 175.8125 145.6875 C174.53930189 146.78893905 173.2686663 147.89334413 172 149 C171.10667969 149.77859375 170.21335937 150.5571875 169.29296875 151.359375 C163.79455634 156.23784615 163.79455634 156.23784615 161.25 162.875 C161.44880196 164.25833032 161.70465344 165.63402218 162 167 C162.1134375 167.87011719 162.226875 168.74023438 162.34375 169.63671875 C163.27335804 176.33168437 164.92796922 182.76512238 166.734375 189.26953125 C167.77739045 193.0833771 168.716186 196.91746984 169.640625 200.76171875 C169.93622314 201.98117187 170.23182129 203.200625 170.53637695 204.45703125 C171.12316491 206.88621576 171.70280185 209.31714241 172.27416992 211.75 C174.16895778 219.53670963 176.75498279 226.68168473 180 234 C180.6326167 235.55943174 181.25899851 237.12143058 181.875 238.6875 C183.98101332 243.99090197 186.17201692 249.25825675 188.35620117 254.52978516 C190.20640688 259.0149818 191.97678292 263.52170774 193.6875 268.0625 C195.25782875 272.19872541 196.98200575 276.12236181 199.03125 280.0390625 C200.57251809 283.15888743 201.8035487 286.39328861 203.05859375 289.63671875 C203.8340116 291.58330714 204.71600573 293.48708882 205.625 295.375 C209.73821645 306.21893427 209.42585701 318.05921487 209.625 329.5 C209.64168732 330.37285645 209.65837463 331.24571289 209.67556763 332.14501953 C209.76391356 336.8048858 209.84065972 341.46478027 209.90771484 346.125 C209.96627412 350.10469842 210.04345011 354.08343153 210.13525391 358.0625 C210.25026366 363.0745989 210.33355788 368.08633189 210.3949585 373.09936523 C210.42310251 375.01832666 210.46139592 376.93716866 210.51031494 378.85571289 C210.96128106 397.25706511 210.96128106 397.25706511 205.62939453 403.50170898 C200.53617909 408.18511671 196.63826158 408.52974938 189.8828125 408.35546875 C185.02394835 407.75634051 182.38659013 405.58467443 179.25 402 C176.93975157 398.30360251 175.75119548 395.49178252 175.4375 391.10546875 C175.32535156 389.66977539 175.32535156 389.66977539 175.2109375 388.20507812 C175.10652344 386.71137695 175.10652344 386.71137695 175 385.1875 C174.5327015 378.78810662 173.95290121 372.44876445 173.0546875 366.09375 C172.20237764 359.92238071 171.58847666 353.75870682 171.0703125 347.55078125 C170.95378326 346.18030891 170.95378326 346.18030891 170.8348999 344.78215027 C170.51494711 341.00636576 170.19695733 337.23062222 169.90087891 333.45288086 C168.67184579 317.91667592 165.98987815 305.57254942 158 292 C157.22359516 290.66297124 156.44758073 289.32571573 155.671875 287.98828125 C153.14156379 283.642672 150.57843936 279.31719952 148 275 C147.60925293 274.34515625 147.21850586 273.6903125 146.81591797 273.015625 C145.73749894 271.21500469 144.65188234 269.41900412 143.5625 267.625 C142.94503906 266.60664063 142.32757813 265.58828125 141.69140625 264.5390625 C139.65940124 261.46103213 139.65940124 261.46103213 137 259 C134.19863496 258.50916368 134.19863496 258.50916368 130.97143555 258.5324707 C129.1088636 258.49407829 129.1088636 258.49407829 127.20866394 258.45491028 C125.85136057 258.4436844 124.49404358 258.43401317 123.13671875 258.42578125 C121.74290303 258.41105772 120.34908895 258.39617813 118.95527649 258.38114929 C116.03239311 258.3541574 113.10976406 258.34061017 110.18676758 258.33422852 C106.44997444 258.32336987 102.71588947 258.2617083 98.97989178 258.1875124 C96.09980815 258.13901444 93.22037133 258.12669766 90.33991432 258.12416649 C88.96315069 258.11695523 87.58638809 258.09655426 86.21002769 258.06246376 C78.60366091 257.67360361 78.60366091 257.67360361 71.91113281 260.6320343 C70.33495784 262.68122937 69.15331787 264.69008709 68 267 C67.36271973 268.00877197 66.72543945 269.01754395 66.06884766 270.05688477 C65.249729 271.4847229 65.249729 271.4847229 64.4140625 272.94140625 C63.79273438 274.02099609 63.17140625 275.10058594 62.53125 276.21289062 C61.9021875 277.31826172 61.273125 278.42363281 60.625 279.5625 C60.00367188 280.64080078 59.38234375 281.71910156 58.7421875 282.83007812 C57.46835296 285.05270884 56.20751163 287.28283073 54.95898438 289.51977539 C53.61683852 291.90415838 52.25226308 294.24812432 50.83789062 296.58764648 C45.34647303 305.89990868 43.35533277 314.25700107 42.25 324.9375 C42.05862986 326.55312426 41.86529438 328.16851674 41.67016602 329.78369141 C40.5383181 339.46014225 39.71563148 349.15976311 38.94921875 358.87109375 C38.82001541 360.49400581 38.82001541 360.49400581 38.6882019 362.14970398 C38.26768032 367.48351131 37.87173642 372.81730611 37.51855469 378.15600586 C37.37585617 380.12224797 37.23296183 382.08847588 37.08984375 384.0546875 C37.0389006 384.94276596 36.98795746 385.83084442 36.93547058 386.74583435 C36.39873574 393.79795374 34.30972967 400.52212844 29 405.5 C24.92008289 408.71821048 20.92677892 408.73338131 15.875 408.44921875 C11.54094089 407.77202201 9.43394559 406.79008079 6 404 C2.58253283 398.98740847 1.41313968 395.26710597 1.49829102 389.16308594 C1.49288803 388.41229767 1.48748505 387.6615094 1.48191833 386.88796997 C1.4694741 384.41969611 1.4859115 381.95260031 1.50390625 379.484375 C1.50375097 377.74627624 1.50225715 376.00817714 1.49949646 374.27008057 C1.49811371 370.62521053 1.51063426 366.98073448 1.53344727 363.3359375 C1.5615773 358.72039371 1.55916261 354.10551647 1.54635715 349.48992538 C1.53930816 345.89478122 1.54729673 342.29978389 1.55961418 338.70465851 C1.56405803 337.00664082 1.56452915 335.30860692 1.56054878 333.61058807 C1.54921677 324.50949156 1.98467881 315.66468566 3.38256836 306.66113281 C3.5043599 305.87626369 3.62615145 305.09139458 3.75163364 304.28274155 C4.64829278 299.01158368 6.18275223 294.50553979 8.640625 289.734375 C10.20934723 286.57889926 11.37274907 283.37980553 12.5625 280.0625 C15.32989072 272.4538111 18.52583772 265.04969824 21.75 257.625 C25.86068759 248.12705361 29.82969059 238.59155885 33.5625 228.9375 C33.96758789 227.89867676 34.37267578 226.85985352 34.79003906 225.78955078 C38.64916343 215.69330897 41.16914346 205.63422505 43 195 C43.34626938 193.1235255 43.7000743 191.2484211 44.0625 189.375 C44.29646484 188.14910156 44.29646484 188.14910156 44.53515625 186.8984375 C45 185 45 185 46 184 C46.37319457 182.42558539 46.69897427 180.83979215 47 179.25 C47.165 178.38890625 47.33 177.5278125 47.5 176.640625 C47.665 175.76921875 47.83 174.8978125 48 174 C48.17144531 173.16339844 48.34289062 172.32679688 48.51953125 171.46484375 C49.37066584 167.09845411 50.09159555 163.39191659 49 159 C46.1246258 155.12775258 42.67137845 152.10614465 39 149 C37.68740207 147.85427885 36.37489271 146.70845621 35.0625 145.5625 C34.42441406 145.01722656 33.78632813 144.47195313 33.12890625 143.91015625 C29.56543241 140.71283752 26.24973056 137.26779636 22.90625 133.84375 C20.82352852 131.75700853 18.65590719 129.81733279 16.41796875 127.8984375 C11.21042798 123.38351318 6.30683005 118.56526602 1.41723633 113.71240234 C0.34647822 112.65321031 -0.7287438 111.5985122 -1.80834961 110.54833984 C-10.97210095 101.6330829 -18.64359726 93.06283181 -19.11767578 79.67749023 C-19.15717263 69.58222241 -18.51799479 59.67024416 -17.5625 49.625 C-17.27968958 46.54854771 -17.00225166 43.47162919 -16.7265625 40.39453125 C-16.62670296 39.2871183 -16.62670296 39.2871183 -16.52482605 38.15733337 C-15.91435773 31.27445002 -15.54137124 24.39401344 -15.30859375 17.48828125 C-14.82215677 11.98969619 -14.17021675 7.37500468 -10.5 3.0625 C-6.80242555 0.01200108 -4.79502459 -0.46106006 0 0 Z " fill="#FBFBFC" transform="translate(231,165)"/>
<path d="M0 0 C54.78 0 109.56 0 166 0 C166.99 18.81 166.99 18.81 168 38 C168.33 42.62 168.66 47.24 169 52 C164.94155302 50.64718434 160.99554361 49.24977488 157.02734375 47.68359375 C153.05261469 46.34336719 149.344231 45.89343526 145.1640625 46 C130.59624803 46.08117962 130.59624803 46.08117962 126.3125 43.1796875 C124.61968754 40.86774456 123.31450474 38.54247468 122 36 C114.0403711 26.28025661 102.34078959 20.19252461 89.88720703 18.75634766 C75.37260811 17.62025649 63.12933528 20.7274165 51.48046875 29.8125 C46.41850349 34.27659535 41.94626411 38.8954874 39 45 C38.11030518 45.01401855 38.11030518 45.01401855 37.20263672 45.02832031 C23.04477113 45.30780595 11.22397212 46.68348859 -2 52 C-1.93941406 51.02877197 -1.87882813 50.05754395 -1.81640625 49.05688477 C-1.58751661 45.36497434 -1.36559474 41.67266935 -1.14550781 37.98022461 C-1.0503277 36.3987335 -0.95339371 34.81734673 -0.85449219 33.23608398 C-0.71057859 30.92979519 -0.57352703 28.62317227 -0.4375 26.31640625 C-0.39375244 25.63856583 -0.35000488 24.9607254 -0.30493164 24.26234436 C0.15935483 16.15221966 0 8.1691571 0 0 Z " fill="#FBFBFB" transform="translate(253,168)"/>
<path d="M0 0 C3.83662346 1.27887449 4.03811528 2.41287415 5.86328125 5.94140625 C6.41322754 6.9878833 6.96317383 8.03436035 7.52978516 9.11254883 C8.412229 10.82027466 8.412229 10.82027466 9.3125 12.5625 C10.57015586 14.95667432 11.8367757 17.34603392 13.10546875 19.734375 C13.42837891 20.34344193 13.75128906 20.95250885 14.08398438 21.58003235 C17.27960708 27.57973636 20.67487145 33.4557646 24.125 39.3125 C24.70169434 40.293396 25.27838867 41.27429199 25.87255859 42.28491211 C27.01908863 44.23375472 28.16621485 46.18224672 29.31396484 48.13037109 C36.00916379 59.52558807 42.5733337 70.91293669 48.35546875 82.80078125 C50.67917408 87.32124364 53.36760556 91.58161741 56.0703125 95.8828125 C63.4516129 107.80645161 63.4516129 107.80645161 65 114 C45.86 114 26.72 114 7 114 C3.28841823 105.95823949 -0.12055482 98.29648361 -3 90 C-4.37054782 86.26214231 -5.7567769 82.56897313 -7.32177734 78.90795898 C-11.03601676 70.07870525 -13.67305795 61.34245714 -15.76074219 52.0012207 C-16.25267301 49.80054213 -16.76152422 47.60431109 -17.2734375 45.40820312 C-18.08109625 41.91825172 -18.84433977 38.42080562 -19.58428955 34.91592407 C-19.97855173 33.09885065 -20.41273082 31.2905729 -20.84912109 29.4831543 C-22.5052373 21.87240369 -22.5052373 21.87240369 -20.0703125 17.66796875 C-19.09835937 16.84941406 -18.12640625 16.03085937 -17.125 15.1875 C-16.61775391 14.74083984 -16.11050781 14.29417969 -15.58789062 13.83398438 C-14.0871905 12.52252765 -12.54399326 11.26020015 -11 10 C-9.49718589 8.66983929 -7.99674805 7.33698281 -6.5 6 C-5.58734375 5.2265625 -5.58734375 5.2265625 -4.65625 4.4375 C-3.02723284 3.02363605 -1.50628283 1.54302144 0 0 Z " fill="#FAFAFB" transform="translate(429,309)"/>
<path d="M0 0 C7.34503143 6.38881132 12.45274642 13.1645487 13.37109375 22.95703125 C13.89287415 34.88974766 11.8261669 44.62950898 3.984375 53.99609375 C-2.89731717 60.94551911 -11.64313612 65.25354676 -21.4440918 65.62084961 C-33.09684844 65.64240765 -41.0043514 62.69697464 -49.9375 54.8125 C-57.25956953 46.79656852 -60.32856225 37.00810284 -60.2109375 26.421875 C-59.52146051 15.23702611 -54.53872363 8.11722941 -46.5 0.6875 C-32.96291725 -10.87684204 -14.12014655 -9.84717567 0 0 Z " fill="#FBFBFC" transform="translate(360,208)"/>
<path d="M0 0 C2 0 2 0 4.125 2 C4.76888672 2.680625 4.76888672 2.680625 5.42578125 3.375 C6.61365914 4.60119653 7.84920946 5.78146176 9.10546875 6.9375 C9.83378906 7.618125 10.56210937 8.29875 11.3125 9 C12.00988281 9.639375 12.70726562 10.27875 13.42578125 10.9375 C15 13 15 13 15.35546875 15.375 C15 18 15 18 14.08837891 20.66162109 C12.86647306 24.40956647 12.02915656 28.18537423 11.23046875 32.0390625 C10.8956692 33.60557289 10.56036627 35.17197577 10.22460938 36.73828125 C9.70624122 39.17229417 9.19127206 41.60683471 8.68530273 44.04345703 C6.63941029 53.86014271 4.23146031 62.85190935 0 72 C-0.56341466 73.3630851 -1.11807396 74.72985412 -1.66015625 76.1015625 C-2.38143438 77.91379892 -3.1028021 79.7260002 -3.82568359 81.53759766 C-4.93153587 84.3096478 -6.03292933 87.08340577 -7.12890625 89.859375 C-7.45761719 90.68953125 -7.78632813 91.5196875 -8.125 92.375 C-8.39570313 93.06335938 -8.66640625 93.75171875 -8.9453125 94.4609375 C-10.55615373 98.33888862 -12.29454172 102.16271888 -14 106 C-31.82 106 -49.64 106 -68 106 C-66.21627338 101.54068346 -64.12286677 97.97292246 -61.4375 94.0625 C-60.522483 92.71028081 -59.60843918 91.35740265 -58.6953125 90.00390625 C-58.23801758 89.32730957 -57.78072266 88.65071289 -57.30957031 87.95361328 C-55.43750342 85.16086919 -53.6230829 82.33290822 -51.8125 79.5 C-43.93073476 67.17568648 -35.98254747 54.88542616 -27.8125 42.75 C-23.39522463 36.16249804 -19.20111755 29.43449705 -14.9765625 22.72265625 C-12.31307148 18.49215326 -9.63498176 14.27140903 -6.9375 10.0625 C-6.24527344 8.98097656 -5.55304688 7.89945312 -4.83984375 6.78515625 C-1.60100669 1.88220333 -1.60100669 1.88220333 0 0 Z " fill="#FAFAFA" transform="translate(251,317)"/>
<path d="M0 0 C3.96 0 7.92 0 12 0 C12.25762066 24.0878718 12.45125892 48.17553541 12.56993389 72.26451015 C12.62651595 83.45098012 12.7035762 94.63659127 12.82983398 105.82250977 C12.93990211 115.57879037 13.01054084 125.33444867 13.03497344 135.09133297 C13.04924338 140.25199014 13.08247718 145.41086798 13.16303062 150.57095146 C13.23843588 155.44132103 13.26058323 160.30920158 13.24418449 165.18009949 C13.24717838 166.95497293 13.2686244 168.72994109 13.31126022 170.50430489 C13.62897905 184.42509914 9.74762996 193.16359484 1 204 C0.67 204 0.34 204 0 204 C0 136.68 0 69.36 0 0 Z " fill="#F4F5F7" transform="translate(166,168)"/>
<path d="M0 0 C4.95 0 9.9 0 15 0 C15.02311825 17.71492514 15.04097884 35.42984512 15.05181217 53.14478207 C15.05697527 61.36955719 15.06401823 69.59432279 15.07543945 77.8190918 C15.08538586 84.98520446 15.09185332 92.15131023 15.09408849 99.3174296 C15.09539568 103.11416989 15.09848198 106.91089045 15.10573006 110.70762444 C15.1124896 114.27718902 15.1146171 117.84672563 15.11310768 121.41629601 C15.11351636 123.35914846 15.1189119 125.30199784 15.12442017 127.24484253 C15.1230455 128.39054214 15.12167084 129.53624176 15.12025452 130.71665955 C15.12117631 131.71864852 15.1220981 132.72063749 15.12304783 133.75298977 C15 136 15 136 14 137 C11.83519203 137.0989294 9.66706215 137.129711 7.5 137.125 C6.3140625 137.12757813 5.128125 137.13015625 3.90625 137.1328125 C1 137 1 137 0 136 C-0.09632045 134.2410657 -0.1218751 132.47822841 -0.12025452 130.71665955 C-0.12162918 129.57095993 -0.12300385 128.42526031 -0.12442017 127.24484253 C-0.12082489 125.97673737 -0.11722961 124.7086322 -0.11352539 123.40209961 C-0.11324352 122.06206769 -0.11340125 120.72203561 -0.1139679 119.38200378 C-0.11425587 115.73340562 -0.1083592 112.08484005 -0.10139394 108.43624949 C-0.09516034 104.62722484 -0.0945566 100.8181995 -0.09336853 97.00917053 C-0.09025523 89.79142246 -0.08204186 82.57368946 -0.07201904 75.35594803 C-0.06085786 67.14084743 -0.05534744 58.92574612 -0.05032361 50.71063983 C-0.03985925 33.80708425 -0.02205939 16.90354429 0 0 Z " fill="#F4F4F5" transform="translate(107,91)"/>
<path d="M0 0 C3.63 0 7.26 0 11 0 C11 63.69 11 127.38 11 193 C1.72381355 181.40476693 -1.02881298 173.02644861 -0.79467773 158.48144531 C-0.79269939 156.74570801 -0.79381901 155.00996487 -0.79777527 153.27423096 C-0.79977083 148.59688153 -0.7588283 143.9208074 -0.70975757 139.24375248 C-0.66578111 134.34313106 -0.66186941 129.44247531 -0.65357971 124.54168701 C-0.63188634 115.27698986 -0.57452965 106.01287595 -0.50413328 96.74843478 C-0.42569295 86.19463102 -0.38735394 75.64079834 -0.35226524 65.0867753 C-0.27924106 43.39085892 -0.15624087 21.69546631 0 0 Z " fill="#FBFBFC" transform="translate(497,168)"/>
<path d="M0 0 C4.62 0 9.24 0 14 0 C14 45.21 14 90.42 14 137 C9.38 137 4.76 137 0 137 C0 91.79 0 46.58 0 0 Z " fill="#FAFAFB" transform="translate(550,91)"/>
<path d="M0 0 C3.63 0 7.26 0 11 0 C10.88406494 1.18851563 10.76812988 2.37703125 10.64868164 3.6015625 C10.21166901 8.08925247 9.77830829 12.57728938 9.34594727 17.06542969 C9.15974025 18.99325775 8.9725948 20.92099545 8.78442383 22.84863281 C2.18322486 65.80642486 2.18322486 65.80642486 15 105 C20.03857361 111.09441436 20.03857361 111.09441436 25.8359375 116.41796875 C27 118 27 118 26.77783203 120.74902344 C25.93187818 124.28471755 24.69772335 126.55915568 22.71875 129.59765625 C21.70856812 131.16302124 21.70856812 131.16302124 20.67797852 132.76000977 C19.95924561 133.84983154 19.2405127 134.93965332 18.5 136.0625 C17.76751391 137.18700598 17.03566295 138.31192592 16.30444336 139.43725586 C4.89777868 156.90757747 4.89777868 156.90757747 1 162 C0.67 162 0.34 162 0 162 C0 108.54 0 55.08 0 0 Z " fill="#F7F7F8" transform="translate(193,168)"/>
<path d="M0 0 C5.75 3.625 5.75 3.625 8 7 C7.44391694 11.44426857 4.67603419 14.85591545 2.25 18.5 C1.24472837 20.03120845 0.23952277 21.56246024 -0.765625 23.09375 C-1.29478516 23.89554687 -1.82394531 24.69734375 -2.36914062 25.5234375 C-5.09930529 29.6693642 -7.79755344 33.83597691 -10.5 38 C-11.60668395 39.70187941 -12.71345421 41.40370271 -13.8203125 43.10546875 C-16.67892657 47.50327052 -19.52834004 51.90695482 -22.375 56.3125 C-27.37422221 64.04798288 -32.40641844 71.76179844 -37.44165039 79.47387695 C-41.24784208 85.30576474 -45.03766527 91.14778058 -48.8125 97 C-52.3390622 102.46159995 -55.89880239 107.89979087 -59.5 113.3125 C-59.90968018 113.92931641 -60.31936035 114.54613281 -60.74145508 115.18164062 C-61.81827624 116.7940511 -62.90855643 118.39745132 -64 120 C-64.44988281 120.79277344 -64.89976562 121.58554687 -65.36328125 122.40234375 C-67 124 -67 124 -70.13671875 124.390625 C-71.30847656 124.34421875 -72.48023438 124.2978125 -73.6875 124.25 C-74.86699219 124.21390625 -76.04648438 124.1778125 -77.26171875 124.140625 C-78.16535156 124.09421875 -79.06898438 124.0478125 -80 124 C-78.40394356 119.47205728 -76.05948097 115.6519363 -73.5 111.625 C-72.84004028 110.57759644 -72.84004028 110.57759644 -72.16674805 109.5090332 C-68.74941986 104.11309203 -65.24122619 98.77999082 -61.6640625 93.48876953 C-59.33072919 90.03157389 -57.06342443 86.53961742 -54.83203125 83.015625 C-50.70631708 76.50949878 -46.4755228 70.07426189 -42.24105835 63.63867188 C-39.90249012 60.08445358 -37.56628057 56.52868648 -35.23046875 52.97265625 C-34.77221207 52.27504181 -34.31395538 51.57742737 -33.84181213 50.8586731 C-30.27035941 45.41868844 -26.72337075 39.96317736 -23.1875 34.5 C-18.26364411 26.90059457 -13.26858503 19.3495325 -8.25 11.8125 C-7.54512451 10.75289063 -6.84024902 9.69328125 -6.11401367 8.6015625 C-5.13718628 7.13783203 -5.13718628 7.13783203 -4.140625 5.64453125 C-3.55829102 4.77159424 -2.97595703 3.89865723 -2.37597656 2.99926758 C-1 1 -1 1 0 0 Z " fill="#F4F5F6" transform="translate(232,299)"/>
<path d="M0 0 C0.35602295 0.63687744 0.7120459 1.27375488 1.07885742 1.92993164 C7.5068288 13.42585422 13.94371463 24.91609431 20.4375 36.375 C25.88983838 45.99855378 31.27177752 55.66029374 36.62475586 65.33935547 C39.69321605 70.88027752 42.79222912 76.40133312 45.9453125 81.89453125 C50.42295533 89.69898224 54.75189701 97.5830897 59.07543945 105.47363281 C60.08151232 107.30867866 61.08912626 109.14286601 62.09765625 110.9765625 C62.42126129 111.5656842 62.74486633 112.15480591 63.07827759 112.76177979 C65.86080512 117.8024982 68.77971878 122.75162735 71.74780273 127.68505859 C73 130 73 130 73 132 C68.71 132 64.42 132 60 132 C59.12859375 130.36675781 58.2571875 128.73351562 57.359375 127.05078125 C50.67658303 114.56162904 43.87589846 102.16145204 36.8046875 89.88671875 C32.85492232 83.02681429 29.02913029 76.09871402 25.20019531 69.17089844 C19.74946762 59.3116896 14.26897942 49.46902308 8.76464844 39.63964844 C7.55371734 37.47602328 6.34470879 35.31132092 5.13769531 33.14550781 C2.48637242 28.39540417 -0.18074725 23.6620274 -2.96484375 18.98828125 C-3.39853271 18.25109863 -3.83222168 17.51391602 -4.27905273 16.75439453 C-5.06852725 15.41792358 -5.87065599 14.08881248 -6.68774414 12.76904297 C-7.71875 11.01171875 -7.71875 11.01171875 -9 8 C-7.72350963 3.59648589 -4.6831105 0 0 0 Z " fill="#F4F4F6" transform="translate(451,291)"/>
<path d="M0 0 C4.29 0 8.58 0 13 0 C13 48.84 13 97.68 13 148 C10.20913665 146.60456833 9.68684271 144.81644852 8.25 142.0625 C6.25587712 138.31141934 4.21217543 134.62680341 2 131 C-7.70945198 114.96275214 -7.70945198 114.96275214 -8 111 C-6.77734375 109.16796875 -6.77734375 109.16796875 -4.9375 107.1875 C7.76312971 91.32446449 6.33846267 72.85278771 4.32226562 53.57592773 C4.14951829 52.07072049 3.96986141 50.56628968 3.78320312 49.06274414 C3.01078056 42.77465727 2.71637567 36.51725753 2.5 30.1875 C2.23486889 22.5872844 1.68424397 15.24645009 0.40234375 7.7421875 C0 5 0 5 0 0 Z " fill="#EDEDEF" transform="translate(469,167)"/>
<path d="M0 0 C1.27371712 -0.00087616 1.27371712 -0.00087616 2.57316589 -0.00177002 C5.37634337 0.00101391 8.17845389 0.03212011 10.98144531 0.06347656 C12.92628397 0.07093786 14.87113014 0.07663132 16.815979 0.08062744 C21.93223871 0.09589249 27.04804346 0.13518195 32.16412354 0.17944336 C37.38572027 0.22037719 42.60739059 0.23863443 47.82910156 0.25878906 C58.07279092 0.30167524 68.31614277 0.36993724 78.55957031 0.45410156 C77.1279292 4.11348328 75.57022735 7.69398224 73.93457031 11.26660156 C73.26554687 12.73033203 73.26554687 12.73033203 72.58300781 14.22363281 C72.24527344 14.9596875 71.90753906 15.69574219 71.55957031 16.45410156 C61.19802557 16.54675229 50.83657925 16.61784153 40.47470474 16.66135025 C35.66332628 16.68223157 30.85223106 16.7105591 26.04101562 16.75585938 C21.39852868 16.79929778 16.7563143 16.82323457 12.11363983 16.83361053 C10.34177102 16.84100552 8.56991725 16.85544619 6.79816437 16.87702179 C4.3175881 16.90602972 1.83814027 16.91005875 -0.64257812 16.90820312 C-1.3762561 16.92258423 -2.10993408 16.93696533 -2.86584473 16.95178223 C-6.32952791 16.92371748 -8.12010822 16.70253413 -10.89459229 14.55072021 C-12.57010265 12.27822618 -12.98399115 11.24203538 -12.94042969 8.45410156 C-12.95589844 7.46410156 -12.95589844 7.46410156 -12.97167969 6.45410156 C-11.21907619 -0.14393512 -5.81925734 -0.10472265 0 0 Z " fill="#F1F1F3" transform="translate(152.4404296875,436.5458984375)"/>
<path d="M0 0 C3.96 0 7.92 0 12 0 C13.96217033 1.96217033 13.12694487 4.97404144 13.13552856 7.58636475 C13.13350433 8.53497375 13.1314801 9.48358276 13.12939453 10.4609375 C13.13114685 11.45434143 13.13289917 12.44774536 13.13470459 13.47125244 C13.13912511 16.77251912 13.13618441 20.07373273 13.1328125 23.375 C13.13348548 25.65804047 13.13445546 27.94108087 13.13571167 30.22412109 C13.13718891 35.01595744 13.13503323 39.80777519 13.13037109 44.59960938 C13.1246738 50.75716635 13.12795266 56.91467974 13.13394356 63.07223511 C13.13754845 67.78865897 13.13641091 72.50507241 13.13381577 77.22149658 C13.1331463 79.4926148 13.1339756 81.76373394 13.13629532 84.03485107 C13.13882067 87.20294722 13.1349829 90.37097172 13.12939453 93.5390625 C13.13141876 94.48767151 13.13344299 95.43628052 13.13552856 96.41363525 C13.11426224 102.88573776 13.11426224 102.88573776 12 104 C8.04 104 4.08 104 0 104 C0 69.68 0 35.36 0 0 Z " fill="#F0F1F2" transform="translate(580,107)"/>
<path d="M0 0 C11.4046223 -0.09263171 22.80915528 -0.1637304 34.214077 -0.20724869 C39.50971503 -0.22813408 44.80509591 -0.25646932 50.10058594 -0.30175781 C55.20990785 -0.34518128 60.31898224 -0.36912993 65.42847443 -0.37950897 C67.37896879 -0.38690661 69.32944942 -0.40135233 71.27983856 -0.42292023 C74.00944928 -0.45190772 76.73803387 -0.45595796 79.46777344 -0.45410156 C80.27625732 -0.46848267 81.08474121 -0.48286377 81.91772461 -0.49768066 C85.48267156 -0.47140199 87.59460432 -0.28959346 90.53326416 1.80963135 C92 4 92 4 92 7.5 C90.88627745 11.39802893 90.21496062 12.60639913 87 15 C84.23350129 15.37421307 81.87165366 15.50754576 79.11035156 15.45410156 C77.92441658 15.45497772 77.92441658 15.45497772 76.71452332 15.45587158 C74.10610767 15.45308899 71.49884053 15.42198983 68.890625 15.390625 C67.08030827 15.38316321 65.26998346 15.37746998 63.45965576 15.37347412 C58.69848265 15.35821288 53.93779884 15.31892691 49.17681885 15.2746582 C44.31716531 15.23371603 39.4574326 15.21546536 34.59765625 15.1953125 C25.06488937 15.15243309 15.5324854 15.08417585 6 15 C4.99781939 12.6884227 3.99816342 10.37581116 3 8.0625 C2.71382813 7.40314453 2.42765625 6.74378906 2.1328125 6.06445312 C0 1.11328125 0 1.11328125 0 0 Z " fill="#F8F8F9" transform="translate(443,438)"/>
<path d="M0 0 C3.96 0 7.92 0 12 0 C12 33.99 12 67.98 12 103 C8.04 103 4.08 103 0 103 C0 69.01 0 35.02 0 0 Z " fill="#F9F9FB" transform="translate(79,108)"/>
<path d="M0 0 C3.96 0 7.92 0 12 0 C12.06944066 11.16115522 12.12278107 22.32225925 12.15543652 33.48358631 C12.17110769 38.66597422 12.19237248 43.84821459 12.22631836 49.03051758 C12.25886 54.02959841 12.27684207 59.02853713 12.28463173 64.02771568 C12.29018459 65.93715338 12.30102768 67.8465831 12.31719017 69.75596046 C12.33889546 72.42577692 12.34196984 75.09500242 12.34057617 77.76489258 C12.351362 78.55827026 12.36214783 79.35164795 12.3732605 80.16906738 C12.34312041 85.48774329 12.34312041 85.48774329 10.66621399 87.99125671 C8.0341298 89.58474787 5.99718662 89.37464833 3 89 C1.33378601 87.99125671 1.33378601 87.99125671 0 86 C-0.28058662 83.18011808 -0.37889811 80.58375564 -0.34057617 77.76489258 C-0.34101425 76.92564743 -0.34145233 76.08640228 -0.34190369 75.22172546 C-0.33981247 72.44575799 -0.31646586 69.67039331 -0.29296875 66.89453125 C-0.28737398 64.97068105 -0.28310332 63.04682658 -0.28010559 61.12297058 C-0.26864747 56.0577516 -0.23917193 50.99279042 -0.20599365 45.92767334 C-0.17531363 40.75976041 -0.16160468 35.59180586 -0.14648438 30.42382812 C-0.1143032 20.28243878 -0.06309512 10.14124082 0 0 Z " fill="#F5F6F8" transform="translate(166,469)"/>
<path d="M0 0 C3.63 0 7.26 0 11 0 C11.06944066 11.16115522 11.12278107 22.32225925 11.15543652 33.48358631 C11.17110769 38.66597422 11.19237248 43.84821459 11.22631836 49.03051758 C11.25886 54.02959841 11.27684207 59.02853713 11.28463173 64.02771568 C11.29018459 65.93715338 11.30102768 67.8465831 11.31719017 69.75596046 C11.33889546 72.42577692 11.34196984 75.09500242 11.34057617 77.76489258 C11.351362 78.55827026 11.36214783 79.35164795 11.3732605 80.16906738 C11.34313477 85.48520925 11.34313477 85.48520925 9.67012024 87.99516296 C7.07546606 89.55625094 4.94982642 89.31381132 2 89 C-0.57116224 86.42883776 -0.23573 84.73386931 -0.24884033 81.23002625 C-0.24164978 80.42370255 -0.23445923 79.61737885 -0.22705078 78.78662109 C-0.22734283 77.9377684 -0.22763489 77.08891571 -0.22793579 76.21434021 C-0.22653928 73.40060301 -0.21096303 70.58712861 -0.1953125 67.7734375 C-0.19158351 65.82573593 -0.188736 63.87803248 -0.18673706 61.93032837 C-0.17909161 56.79775842 -0.15943532 51.66530121 -0.1373291 46.53277588 C-0.11689028 41.29790777 -0.10773955 36.06302149 -0.09765625 30.828125 C-0.07619027 20.55203373 -0.04204336 10.27602623 0 0 Z " fill="#FBFBFC" transform="translate(497,469)"/>
<path d="M0 0 C16.17 0 32.34 0 49 0 C57 14 57 14 57 16 C35.55 16 14.1 16 -8 16 C-5.78545387 10.46363468 -2.85532244 5.23475781 0 0 Z " fill="#EFF0F1" transform="translate(312,437)"/>
<path d="M0 0 C0.87398438 0.04511719 1.74796875 0.09023437 2.6484375 0.13671875 C3.30070312 0.19472656 3.95296875 0.25273437 4.625 0.3125 C4.66238281 1.57964844 4.69976562 2.84679687 4.73828125 4.15234375 C4.80399793 5.85158931 4.87044323 7.5508068 4.9375 9.25 C4.96005859 10.08080078 4.98261719 10.91160156 5.00585938 11.76757812 C5.36499179 20.15821734 7.79377906 27.08503777 11.5625 34.5625 C12.04589844 35.53703125 12.52929688 36.5115625 13.02734375 37.515625 C14.65848844 40.37112523 16.50554758 42.80394724 18.625 45.3125 C3.89566144 46.36698674 3.89566144 46.36698674 -0.8984375 44.140625 C-2.93722484 42.33410457 -4.61303447 40.39025569 -6.375 38.3125 C-7.34824219 37.43207031 -8.32148438 36.55164063 -9.32421875 35.64453125 C-15.31780921 30.19811637 -15.31780921 30.19811637 -17.375 27.3125 C-17.3203125 23.9453125 -17.3203125 23.9453125 -16.375 20.3125 C-16.05144531 19.06210938 -15.72789062 17.81171875 -15.39453125 16.5234375 C-14.99857848 15.24279818 -14.59617892 13.96413511 -14.1875 12.6875 C-14.00380859 12.04554688 -13.82011719 11.40359375 -13.63085938 10.7421875 C-11.49124744 4.07042633 -7.4210851 -0.50142467 0 0 Z " fill="#F6F6F8" transform="translate(281.375,227.6875)"/>
<path d="M0 0 C1.72774308 -0.10892951 3.45750948 -0.18601092 5.1875 -0.25 C6.15042969 -0.29640625 7.11335938 -0.3428125 8.10546875 -0.390625 C11.95919141 0.12944553 13.34443688 1.15854746 16 4 C17.40885277 6.70141469 18.37064787 9.48234597 19.3125 12.375 C19.57611328 13.1175 19.83972656 13.86 20.11132812 14.625 C21.56299354 18.89327337 22.45421167 22.43378226 22 27 C20.47119141 29.22583008 20.47119141 29.22583008 18.3515625 31.26953125 C17.59359375 32.01267578 16.835625 32.75582031 16.0546875 33.52148438 C14.85199219 34.65553711 14.85199219 34.65553711 13.625 35.8125 C12.8309375 36.58787109 12.036875 37.36324219 11.21875 38.16210938 C5.45643594 43.7437407 2.97048009 45.1533819 -5.125 45.0625 C-5.87910156 45.05798828 -6.63320313 45.05347656 -7.41015625 45.04882812 C-9.27347127 45.03703499 -11.13674555 45.01909942 -13 45 C-12.52949219 44.26394531 -12.05898438 43.52789062 -11.57421875 42.76953125 C-10.95160156 41.79371094 -10.32898438 40.81789063 -9.6875 39.8125 C-9.07261719 38.84957031 -8.45773437 37.88664062 -7.82421875 36.89453125 C-0.03145671 24.5295705 0.39746989 14.33835824 0 0 Z " fill="#F6F6F8" transform="translate(387,228)"/>
<path d="M0 0 C1.66621399 1.11775208 1.66621399 1.11775208 3 3 C3.36076355 5.90434265 3.36076355 5.90434265 3.34057617 9.4909668 C3.34101425 10.1448941 3.34145233 10.79882141 3.34190369 11.4725647 C3.33981539 13.63175423 3.31648388 15.79016505 3.29296875 17.94921875 C3.28737291 19.44708329 3.28310275 20.94495332 3.28010559 22.44282532 C3.2686558 26.38358746 3.23918778 30.32401745 3.20599365 34.26464844 C3.17529548 38.28641262 3.16160082 42.30823053 3.14648438 46.33007812 C3.11431793 54.22020444 3.06312028 62.11006089 3 70 C-0.96 70 -4.92 70 -9 70 C-9.06947174 61.3161375 -9.1227967 52.63237046 -9.15543652 43.94829082 C-9.17110102 39.91602967 -9.1923533 35.88395847 -9.22631836 31.85180664 C-9.25888429 27.9614608 -9.27684711 24.0712978 -9.28463173 20.18082619 C-9.29018026 18.69562717 -9.30101511 17.2104383 -9.31719017 15.725317 C-9.33892851 13.64697928 -9.34196856 11.56939968 -9.34057617 9.4909668 C-9.34723801 8.30738083 -9.35389984 7.12379486 -9.36076355 5.90434265 C-9 3 -9 3 -7.66621399 1.11775208 C-5.0598517 -0.63068293 -3.04818382 -0.38102298 0 0 Z " fill="#F1F1F3" transform="translate(505,80)"/>
<path d="M0 0 C1.66621399 1.11775208 1.66621399 1.11775208 3 3 C3.36076355 5.90434265 3.36076355 5.90434265 3.34057617 9.4909668 C3.34101425 10.1448941 3.34145233 10.79882141 3.34190369 11.4725647 C3.33981539 13.63175423 3.31648388 15.79016505 3.29296875 17.94921875 C3.28737291 19.44708329 3.28310275 20.94495332 3.28010559 22.44282532 C3.2686558 26.38358746 3.23918778 30.32401745 3.20599365 34.26464844 C3.17529548 38.28641262 3.16160082 42.30823053 3.14648438 46.33007812 C3.11431793 54.22020444 3.06312028 62.11006089 3 70 C-0.96 70 -4.92 70 -9 70 C-9.06947174 61.3161375 -9.1227967 52.63237046 -9.15543652 43.94829082 C-9.17110102 39.91602967 -9.1923533 35.88395847 -9.22631836 31.85180664 C-9.25888429 27.9614608 -9.27684711 24.0712978 -9.28463173 20.18082619 C-9.29018026 18.69562717 -9.30101511 17.2104383 -9.31719017 15.725317 C-9.33892851 13.64697928 -9.34196856 11.56939968 -9.34057617 9.4909668 C-9.34723801 8.30738083 -9.35389984 7.12379486 -9.36076355 5.90434265 C-9 3 -9 3 -7.66621399 1.11775208 C-5.0598517 -0.63068293 -3.04818382 -0.38102298 0 0 Z " fill="#F4F5F7" transform="translate(175,80)"/>
<path d="M0 0 C3.96 0 7.92 0 12 0 C12 20.46 12 40.92 12 62 C8.37 62 4.74 62 1 62 C-1 60 -1 60 -1.24723816 57.52635193 C-1.24581314 56.48568069 -1.24438812 55.44500946 -1.24291992 54.37280273 C-1.24599655 53.19495712 -1.24907318 52.01711151 -1.25224304 50.80357361 C-1.24505753 49.52648026 -1.23787201 48.2493869 -1.23046875 46.93359375 C-1.23001053 45.62922867 -1.22955231 44.32486359 -1.2290802 42.98097229 C-1.22751533 40.21943851 -1.21922467 37.45803437 -1.20581055 34.6965332 C-1.18880399 31.14980046 -1.18499667 27.60321004 -1.18575573 24.05644131 C-1.18541911 20.68213957 -1.17658538 17.30788493 -1.16796875 13.93359375 C-1.16685593 12.65447617 -1.1657431 11.37535858 -1.16459656 10.05747986 C-1.15821671 8.88278641 -1.15183685 7.70809296 -1.14526367 6.49780273 C-1.14145187 5.45792709 -1.13764008 4.41805145 -1.13371277 3.34666443 C-1 1 -1 1 0 0 Z " fill="#EEEFF1" transform="translate(51,128)"/>
<path d="M0 0 C3.96 0 7.92 0 12 0 C12 19.8 12 39.6 12 60 C8.04 60 4.08 60 0 60 C0 40.2 0 20.4 0 0 Z " fill="#F9F9FA" transform="translate(609,129)"/>
<path d="M0 0 C0.67431641 1.79516602 0.67431641 1.79516602 1 4 C-0.09228516 5.65991211 -0.09228516 5.65991211 -1.7890625 7.27734375 C-2.40136719 7.87353516 -3.01367188 8.46972656 -3.64453125 9.08398438 C-4.29808594 9.69564453 -4.95164062 10.30730469 -5.625 10.9375 C-6.25535156 11.54529297 -6.88570313 12.15308594 -7.53515625 12.77929688 C-8.77502591 13.97405693 -10.02005918 15.16348448 -11.27050781 16.34716797 C-12.79937955 17.8082721 -14.28960429 19.30958407 -15.7734375 20.81640625 C-18 23 -18 23 -21 25 C-21.99 24.67 -22.98 24.34 -24 24 C-22.989375 23.154375 -21.97875 22.30875 -20.9375 21.4375 C-16.46748794 17.53229091 -12.26372876 13.37677223 -8.0625 9.1875 C-7.05014282 8.1819104 -7.05014282 8.1819104 -6.01733398 7.15600586 C-5.38384033 6.52057861 -4.75034668 5.88515137 -4.09765625 5.23046875 C-3.52539307 4.65707764 -2.95312988 4.08368652 -2.36352539 3.49291992 C-0.89937424 2.02622622 -0.89937424 2.02622622 0 0 Z " fill="#232539" transform="translate(454,263)"/>
<path d="M0 0 C0.90105469 0.00902344 1.80210937 0.01804687 2.73046875 0.02734375 C3.41753906 0.03894531 4.10460937 0.05054687 4.8125 0.0625 C4.8125 0.3925 4.8125 0.7225 4.8125 1.0625 C3.90757812 1.15337891 3.90757812 1.15337891 2.984375 1.24609375 C1.78554688 1.37177734 1.78554688 1.37177734 0.5625 1.5 C-0.22640625 1.58121094 -1.0153125 1.66242188 -1.828125 1.74609375 C-4.01114639 2.03884993 -6.0648182 2.48314419 -8.1875 3.0625 C-8.1875 3.7225 -8.1875 4.3825 -8.1875 5.0625 C-9.6484375 6.3515625 -9.6484375 6.3515625 -11.5625 7.6875 C-12.18898438 8.13351563 -12.81546875 8.57953125 -13.4609375 9.0390625 C-15.1875 10.0625 -15.1875 10.0625 -17.1875 10.0625 C-15.69064027 5.57192081 -12.08454176 3.3972533 -8.1875 1.0625 C-5.17259443 0.05753148 -3.14568308 -0.04085303 0 0 Z " fill="#36394A" transform="translate(502.1875,64.9375)"/>
<path d="M0 0 C0.33 0.66 0.66 1.32 1 2 C3.34386809 2.91031272 3.34386809 2.91031272 6.0625 3.625 C6.98160156 3.88539063 7.90070312 4.14578125 8.84765625 4.4140625 C9.55792969 4.60742188 10.26820312 4.80078125 11 5 C11 5.66 11 6.32 11 7 C14.96 7 18.92 7 23 7 C23 8.98 23 10.96 23 13 C22.67 13 22.34 13 22 13 C22 11.35 22 9.7 22 8 C21.0821875 8.05800781 20.164375 8.11601562 19.21875 8.17578125 C12.20843039 8.43351359 7.11085614 8.46425752 1.2578125 4.38671875 C0 3 0 3 0 0 Z " fill="#565868" transform="translate(40,198)"/>
<path d="M0 0 C5.94 0 11.88 0 18 0 C18 0.66 18 1.32 18 2 C7.605 2.495 7.605 2.495 -3 3 C-2.01 2.67 -1.02 2.34 0 2 C0 1.34 0 0.68 0 0 Z " fill="#2E3245" transform="translate(327,186)"/>
<path d="M0 0 C0.33 0 0.66 0 1 0 C1.05865035 3.18742115 1.09381259 6.37470118 1.125 9.5625 C1.15013672 10.90538086 1.15013672 10.90538086 1.17578125 12.27539062 C1.21479596 17.60089905 0.75475782 21.96370689 -1 27 C-1.33 27 -1.66 27 -2 27 C-1.85785272 23.99978513 -1.71138304 20.99988211 -1.5625 18 C-1.52318359 17.16082031 -1.48386719 16.32164062 -1.44335938 15.45703125 C-1.18148668 10.25986542 -0.7100648 5.15542847 0 0 Z " fill="#585968" transform="translate(271,503)"/>
<path d="M0 0 C0.33 0 0.66 0 1 0 C1.797837 6.69613196 2.12910853 13.25766581 2 20 C1.67 20 1.34 20 1 20 C1 17.69 1 15.38 1 13 C0.34 13 -0.32 13 -1 13 C-0.67 8.71 -0.34 4.42 0 0 Z " fill="#565768" transform="translate(470,176)"/>
<path d="M0 0 C0.33 0.66 0.66 1.32 1 2 C-0.918125 2.4640625 -0.918125 2.4640625 -2.875 2.9375 C-5.10101675 3.47605244 -6.94739999 3.9737 -9 5 C-9.66 4.34 -10.32 3.68 -11 3 C-7.14243493 0.84694043 -4.44870215 -0.39253254 0 0 Z " fill="#272A3C" transform="translate(109,75)"/>
<path d="M0 0 C0.33 0 0.66 0 1 0 C1.95261487 4.76307437 2.08333357 9.1666528 2 14 C1.67 14 1.34 14 1 14 C1 12.02 1 10.04 1 8 C0.34 8 -0.32 8 -1 8 C-0.67 5.36 -0.34 2.72 0 0 Z " fill="#545566" transform="translate(404,532)"/>
<path d="M0 0 C0.66 0 1.32 0 2 0 C2.93065133 2.60582371 3.14917407 3.64198224 2.0625 6.25 C1.5365625 7.11625 1.5365625 7.11625 1 8 C0.34 8 -0.32 8 -1 8 C-0.67 5.36 -0.34 2.72 0 0 Z " fill="#2A2C40" transform="translate(260,355)"/>
<path d="M0 0 C0 3.57575896 -1.08840607 5.05295935 -3 8 C-3.99 7.34 -4.98 6.68 -6 6 C-4.02 4.02 -2.04 2.04 0 0 Z " fill="#2C3147" transform="translate(404,312)"/>
<path d="M0 0 C4.29 0 8.58 0 13 0 C11.515 1.485 11.515 1.485 10 3 C9.67 2.67 9.34 2.34 9 2 C7.48530552 1.76807135 5.96245438 1.58784762 4.4375 1.4375 C3.61121094 1.35371094 2.78492188 1.26992188 1.93359375 1.18359375 C1.29550781 1.12300781 0.65742188 1.06242188 0 1 C0 0.67 0 0.34 0 0 Z " fill="#35384C" transform="translate(419,573)"/>
<path d="M0 0 C0.8125 1.6875 0.8125 1.6875 1 4 C-1.4375 6.75 -1.4375 6.75 -4 9 C-2.94124926 5.59687262 -1.99097846 2.98646769 0 0 Z " fill="#222638" transform="translate(210,353)"/>
</svg>
