<?xml version="1.0" encoding="UTF-8"?>
<svg version="1.1" xmlns="http://www.w3.org/2000/svg" width="656" height="632">
<path d="M0 0 C216.48 0 432.96 0 656 0 C656 208.56 656 417.12 656 632 C439.52 632 223.04 632 0 632 C0 423.44 0 214.88 0 0 Z " fill="#FEFEFE" transform="translate(0,0)"/>
<path d="M0 0 C5.61868196 5.20889018 10.67641018 10.57926349 12.65625 18.19140625 C12.65625 18.85140625 12.65625 19.51140625 12.65625 20.19140625 C13.31625 20.19140625 13.97625 20.19140625 14.65625 20.19140625 C19.85305231 34.23514581 19.17863589 49.69115396 13.296875 63.34765625 C10.72666891 68.80603208 8.32281345 73.24277564 3.65625 77.19140625 C2.893125 77.99578125 2.13 78.80015625 1.34375 79.62890625 C-8.28828507 88.81293969 -8.28828507 88.81293969 -14.34375 89.19140625 C-14.34375 89.85140625 -14.34375 90.51140625 -14.34375 91.19140625 C-13.43834473 91.15998535 -12.53293945 91.12856445 -11.60009766 91.09619141 C21.63988195 90.09506354 21.63988195 90.09506354 36.65625 97.19140625 C36.65625 97.85140625 36.65625 98.51140625 36.65625 99.19140625 C37.56375 99.48015625 38.47125 99.76890625 39.40625 100.06640625 C50.09984354 103.76803478 58.57505599 114.21634336 63.65625 124.19140625 C63.65625 124.85140625 63.65625 125.51140625 63.65625 126.19140625 C64.31625 126.19140625 64.97625 126.19140625 65.65625 126.19140625 C68.98133479 135.8259757 71.4055428 145.36467501 73.20385742 155.39794922 C74.18388412 160.8289099 75.32025967 166.16572583 76.71875 171.50390625 C78.22636544 177.28442697 79.45821008 183.08463178 80.50537109 188.96411133 C81.17636215 192.70765556 81.91122701 196.42639403 82.73046875 200.140625 C83.00697266 201.40072388 83.00697266 201.40072388 83.2890625 202.6862793 C83.6480937 204.3077666 84.01356288 205.92784743 84.38671875 207.54614258 C85.48698745 212.54194269 85.82486722 217.0747459 85.65625 222.19140625 C86.31625 222.19140625 86.97625 222.19140625 87.65625 222.19140625 C89.47847673 227.7882455 90.36345555 233.38009981 91.19140625 239.203125 C91.58552463 242.06596011 91.58552463 242.06596011 92.2109375 244.3203125 C92.98906841 247.58982746 92.71203929 250.84404887 92.65625 254.19140625 C93.31625 254.19140625 93.97625 254.19140625 94.65625 254.19140625 C94.77218506 254.78679199 94.88812012 255.38217773 95.00756836 255.99560547 C95.53328798 258.68647021 96.06346295 261.37643805 96.59375 264.06640625 C96.77615234 265.00355469 96.95855469 265.94070313 97.14648438 266.90625 C97.32373047 267.80214844 97.50097656 268.69804687 97.68359375 269.62109375 C97.84593506 270.44851074 98.00827637 271.27592773 98.17553711 272.12841797 C98.58293942 274.23858991 98.58293942 274.23858991 99.65625 276.19140625 C119.95125 276.68640625 119.95125 276.68640625 140.65625 277.19140625 C140.62144531 272.80859375 140.58664062 268.42578125 140.55078125 263.91015625 C140.53146622 260.39885717 140.51520567 256.88757326 140.50099945 253.37625122 C140.48520726 249.67878424 140.4641302 245.98152613 140.42993164 242.28417969 C140.39715558 238.71800183 140.37935891 235.15202557 140.37161827 231.58570862 C140.36343901 229.57395778 140.34004907 227.56228718 140.31636047 225.55065918 C140.31367324 210.83705511 140.31367324 210.83705511 145.07307434 205.64611816 C150.43783097 200.9284622 155.09425734 200.95613157 161.84375 200.87890625 C162.66939453 200.84990234 163.49503906 200.82089844 164.34570312 200.79101562 C171.01562599 200.72268702 176.00410523 202.28731801 181.25463867 206.46240234 C184.26176158 209.50147691 184.94939716 211.95715247 184.96875 216.06640625 C184.88924075 217.44305216 184.79345966 218.81930961 184.65625 220.19140625 C185.790625 220.145 186.925 220.09859375 188.09375 220.05078125 C197.75073149 219.77245122 204.29590508 219.67743158 212.03125 226.19140625 C214.52862247 229.26509544 215.65625 231.19232247 215.65625 235.19140625 C216.89761719 235.16820312 218.13898437 235.145 219.41796875 235.12109375 C221.0598898 235.10232894 222.70181738 235.0841295 224.34375 235.06640625 C225.16037109 235.04964844 225.97699219 235.03289062 226.81835938 235.015625 C231.22717929 234.97992605 234.64356576 235.11559811 238.65625 237.19140625 C238.65625 237.85140625 238.65625 238.51140625 238.65625 239.19140625 C239.584375 239.62453125 239.584375 239.62453125 240.53125 240.06640625 C242.88672828 241.31342416 244.33521293 242.31536538 245.2711792 244.86941528 C245.79779622 248.04493511 245.80031141 251.12394229 245.81738281 254.34326172 C245.82234772 255.05597229 245.82731262 255.76868286 245.83242798 256.50299072 C245.84700292 258.85486831 245.85384341 261.20667847 245.859375 263.55859375 C245.86512983 265.19760133 245.87088752 266.8366089 245.87664795 268.47561646 C245.88714433 271.91034254 245.89299606 275.3450453 245.89648438 278.77978516 C245.90196947 283.17354607 245.92600342 287.56699717 245.95445633 291.96066093 C245.9731099 295.34592583 245.97828973 298.73111644 245.97982025 302.11642838 C245.98284064 303.73589905 245.99084842 305.35536862 246.00400543 306.97478867 C246.02112502 309.24368423 246.01917178 311.51182717 246.01269531 313.78076172 C246.01634094 315.06997528 246.01998657 316.35918884 246.02374268 317.68746948 C245.4888163 322.78783836 243.91001562 326.03167305 240.15625 329.50390625 C236.66606141 331.85978355 234.09827357 332.3152408 229.98828125 332.2890625 C229.09560547 332.28583984 228.20292969 332.28261719 227.28320312 332.27929688 C226.35443359 332.27091797 225.42566406 332.26253906 224.46875 332.25390625 C223.05819336 332.24713867 223.05819336 332.24713867 221.61914062 332.24023438 C219.29811288 332.22845251 216.97721356 332.21200183 214.65625 332.19140625 C214.47642578 333.83882813 214.47642578 333.83882813 214.29296875 335.51953125 C213.50514377 340.06281643 212.21522783 341.34422399 208.65625 344.19140625 C203.55436169 347.36202834 199.58821594 347.5708314 193.78125 347.37890625 C192.9975 347.36537109 192.21375 347.35183594 191.40625 347.33789062 C189.48928218 347.30282414 187.57267249 347.24902697 185.65625 347.19140625 C185.70007813 348.09632813 185.74390625 349.00125 185.7890625 349.93359375 C185.59467816 354.7017273 183.62915863 357.56043191 180.65625 361.19140625 C174.5036957 365.9903986 169.82509646 366.39623586 162.34375 366.44140625 C161.08014648 366.47234375 161.08014648 366.47234375 159.79101562 366.50390625 C154.65565791 366.53602733 151.0697151 366.10912254 146.65625 363.19140625 C145.01171875 361.5078125 145.01171875 361.5078125 143.84375 359.75390625 C143.44542969 359.17769531 143.04710937 358.60148437 142.63671875 358.0078125 C140.53956809 354.12265292 140.53386939 350.40266839 140.54272461 346.04589844 C140.54280014 344.80491394 140.54287567 343.56392944 140.54295349 342.28533936 C140.54805969 340.93631958 140.55327568 339.58730021 140.55859375 338.23828125 C140.56045976 336.85394339 140.5618828 335.46960487 140.56288147 334.08526611 C140.56669227 330.44879317 140.57651025 326.81236043 140.58758545 323.17590332 C140.5978305 319.46232659 140.60244056 315.74874315 140.60742188 312.03515625 C140.61760264 304.7538708 140.63717794 297.4726956 140.65625 290.19140625 C127.45625 290.52140625 114.25625 290.85140625 100.65625 291.19140625 C98.94423691 295.18610347 97.24729798 299.15259214 95.65625 303.19140625 C94.99625 303.19140625 94.33625 303.19140625 93.65625 303.19140625 C93.32625 304.18140625 92.99625 305.17140625 92.65625 306.19140625 C88.32291667 309.19140625 88.32291667 309.19140625 85.65625 309.19140625 C85.65625 309.85140625 85.65625 310.51140625 85.65625 311.19140625 C78.63804773 313.80283035 70.49930127 314.64589405 63.25 312.46875 C61.24042789 311.51420325 59.47689447 310.46752007 57.65625 309.19140625 C57.09164063 308.80597656 56.52703125 308.42054688 55.9453125 308.0234375 C52.25202587 305.2399605 50.26009352 302.4964599 48.65625 298.19140625 C48.32625 295.55140625 47.99625 292.91140625 47.65625 290.19140625 C42.04625 290.19140625 36.43625 290.19140625 30.65625 290.19140625 C30.65625 356.19140625 30.65625 422.19140625 30.65625 490.19140625 C32.96625 490.52140625 35.27625 490.85140625 37.65625 491.19140625 C48.36558895 495.94048811 54.52791788 502.63190055 58.7109375 513.421875 C60.71119495 519.28213339 61.70600036 524.37365528 59.46875 530.37890625 C56.86620401 534.41733968 54.21505664 536.67180404 49.65625 538.19140625 C47.96554333 538.29379713 46.27114926 538.33984073 44.57739258 538.35253906 C43.54234085 538.36214661 42.50728912 538.37175415 41.44087219 538.38165283 C40.32214218 538.38590271 39.20341217 538.39015259 38.05078125 538.39453125 C36.8976091 538.40023132 35.74443695 538.4059314 34.55632019 538.4118042 C32.11267007 538.42125767 29.66900717 538.42778955 27.2253418 538.43164062 C23.50091018 538.44132265 19.77703589 538.47233392 16.05273438 538.50390625 C13.67708661 538.51043878 11.30143489 538.51568827 8.92578125 538.51953125 C7.81717239 538.53187805 6.70856354 538.54422485 5.56636047 538.5569458 C-1.9773824 538.53540103 -8.04065512 537.95678801 -14.03125 532.94140625 C-15.1759375 531.58015625 -15.1759375 531.58015625 -16.34375 530.19140625 C-17.1790625 529.26070312 -18.014375 528.33 -18.875 527.37109375 C-22.62715707 522.06218329 -22.6328306 515.86744234 -23.15625 509.56640625 C-23.27677734 508.37144531 -23.39730469 507.17648437 -23.52148438 505.9453125 C-24.27366419 498.01089004 -24.48598125 490.15802001 -24.34375 482.19140625 C-25.00375 482.19140625 -25.66375 482.19140625 -26.34375 482.19140625 C-26.41891846 481.35407959 -26.49408691 480.51675293 -26.5715332 479.65405273 C-26.86510096 476.38974795 -27.15958008 473.12552779 -27.45465088 469.86135864 C-27.58934917 468.36974742 -27.72374726 466.87810906 -27.85784912 465.38644409 C-28.58915887 457.25709993 -29.3364607 449.13069947 -30.17578125 441.01171875 C-31.84623027 424.73549678 -32.96222315 408.55068754 -33.34375 392.19140625 C-34.00375 392.19140625 -34.66375 392.19140625 -35.34375 392.19140625 C-35.67375 390.87140625 -36.00375 389.55140625 -36.34375 388.19140625 C-36.40369896 389.13226578 -36.40369896 389.13226578 -36.46485901 390.09213257 C-37.62585157 407.77230821 -39.63693616 425.25559548 -42.01107025 442.81003952 C-42.83778761 448.94927909 -43.64085796 455.09167652 -44.44140625 461.234375 C-44.52777847 461.89628153 -44.6141507 462.55818806 -44.70314026 463.24015236 C-46.3774758 476.10918384 -47.71902814 488.97254912 -48.7734375 501.90625 C-49.1815162 506.68888661 -49.68508619 511.45557546 -50.27734375 516.21875 C-50.50248657 518.04974243 -50.50248657 518.04974243 -50.73217773 519.91772461 C-51.91153084 526.230677 -54.79147931 530.23592651 -59.84375 534.06640625 C-64.24665696 537.0362916 -68.34525028 538.43910747 -73.66552734 538.46606445 C-74.7036557 538.47559647 -75.74178406 538.48512848 -76.81137085 538.49494934 C-77.92291534 538.49403793 -79.03445984 538.49312653 -80.1796875 538.4921875 C-81.33240143 538.49647263 -82.48511536 538.50075775 -83.67276001 538.50517273 C-86.10865625 538.51091004 -88.54456962 538.51142071 -90.98046875 538.50708008 C-94.69821572 538.50392368 -98.41516407 538.52737558 -102.1328125 538.55273438 C-104.50260317 538.55500784 -106.87239596 538.55571065 -109.2421875 538.5546875 C-110.90343155 538.56850212 -110.90343155 538.56850212 -112.59823608 538.58259583 C-119.38398988 538.54212693 -124.66963958 538.10535589 -130.15625 533.75390625 C-133.46917496 529.39479446 -133.78854103 525.60032924 -133.34375 520.19140625 C-132.74583163 517.42306757 -131.85950181 514.83248909 -130.84375 512.19140625 C-130.57602783 511.49297607 -130.30830566 510.7945459 -130.0324707 510.07495117 C-126.48684277 501.42256815 -120.77613475 496.59698943 -112.71484375 492.1015625 C-110.34375 491.19140625 -110.34375 491.19140625 -103.34375 490.19140625 C-103.34375 424.52140625 -103.34375 358.85140625 -103.34375 291.19140625 C-108.29375 291.19140625 -113.24375 291.19140625 -118.34375 291.19140625 C-118.34375 292.51140625 -118.34375 293.83140625 -118.34375 295.19140625 C-119.33375 295.19140625 -120.32375 295.19140625 -121.34375 295.19140625 C-121.43914062 295.92230469 -121.53453125 296.65320313 -121.6328125 297.40625 C-122.93317624 302.50053211 -126.43570215 305.82369942 -130.34375 309.19140625 C-137.49387407 313.30218095 -145.23098874 314.1939776 -153.34375 313.19140625 C-155.94140636 312.42351797 -157.95143953 311.49630287 -160.34375 310.19140625 C-160.34375 309.53140625 -160.34375 308.87140625 -160.34375 308.19140625 C-161.065625 308.02640625 -161.7875 307.86140625 -162.53125 307.69140625 C-166.58592501 305.52891291 -168.60455323 302.40561382 -170.34375 298.19140625 C-170.67375 295.55140625 -171.00375 292.91140625 -171.34375 290.19140625 C-185.20375 290.19140625 -199.06375 290.19140625 -213.34375 290.19140625 C-213.32054687 294.8371875 -213.29734375 299.48296875 -213.2734375 304.26953125 C-213.26321787 307.21354726 -213.2535899 310.15754138 -213.24609375 313.1015625 C-213.23414034 317.77397201 -213.22000252 322.4463031 -213.19287109 327.11865234 C-213.17113301 330.88579925 -213.15917934 334.65286205 -213.15399551 338.42006683 C-213.15030149 339.85697504 -213.14308797 341.29387866 -213.13228989 342.73075104 C-213.117763 344.74395759 -213.11693297 346.75724886 -213.11669922 348.77050781 C-213.112258 349.91634338 -213.10781677 351.06217896 -213.10324097 352.24273682 C-213.39920813 355.87132954 -214.22465186 358.06318503 -216.78125 360.640625 C-223.15769678 365.69395908 -227.18348887 365.40421553 -235.15625 365.44140625 C-236.7969043 365.47234375 -236.7969043 365.47234375 -238.47070312 365.50390625 C-239.52837891 365.5090625 -240.58605469 365.51421875 -241.67578125 365.51953125 C-242.64233643 365.52887695 -243.6088916 365.53822266 -244.60473633 365.54785156 C-248.49221406 365.0419493 -251.11513171 363.36238565 -253.92578125 360.68359375 C-256.5613219 357.21974033 -257.62193696 354.85494287 -257.48046875 350.44921875 C-257.4508606 349.24869873 -257.4508606 349.24869873 -257.4206543 348.02392578 C-257.39527588 347.41919434 -257.36989746 346.81446289 -257.34375 346.19140625 C-257.95371826 346.2071167 -258.56368652 346.22282715 -259.19213867 346.23901367 C-261.9717471 346.30160438 -264.75120692 346.34047247 -267.53125 346.37890625 C-268.97081055 346.41661133 -268.97081055 346.41661133 -270.43945312 346.45507812 C-279.54036776 346.54955129 -279.54036776 346.54955129 -283.34375 343.19140625 C-284.70703125 341.25390625 -284.70703125 341.25390625 -285.65625 339.19140625 C-285.98238281 338.51078125 -286.30851562 337.83015625 -286.64453125 337.12890625 C-287.34375 335.19140625 -287.34375 335.19140625 -287.34375 332.19140625 C-288.478125 332.21460938 -289.6125 332.2378125 -290.78125 332.26171875 C-292.30207668 332.28049439 -293.82291057 332.29869265 -295.34375 332.31640625 C-296.08753906 332.33316406 -296.83132813 332.34992188 -297.59765625 332.3671875 C-309.754394 332.47289826 -309.754394 332.47289826 -314.18359375 328.5703125 C-314.54582031 327.97089844 -314.90804687 327.37148438 -315.28125 326.75390625 C-315.66152344 326.15707031 -316.04179687 325.56023437 -316.43359375 324.9453125 C-318.47236625 321.01651914 -318.48108835 317.71310252 -318.50488281 313.35253906 C-318.51233017 312.3153624 -318.51233017 312.3153624 -318.51992798 311.25723267 C-318.53453203 308.96965538 -318.54134955 306.6821475 -318.546875 304.39453125 C-318.55262903 302.80133055 -318.55838673 301.20812987 -318.56414795 299.6149292 C-318.57465372 296.27257973 -318.58049878 292.93025428 -318.58398438 289.58789062 C-318.58946041 285.31638439 -318.61347093 281.0451983 -318.64195633 276.77379227 C-318.66063345 273.48113089 -318.66579106 270.18854574 -318.66732025 266.89583588 C-318.67033717 265.3218486 -318.67833312 263.74786236 -318.69150543 262.17392731 C-318.70866857 259.96499215 -318.70666092 257.75682737 -318.70019531 255.54785156 C-318.70566376 253.66613251 -318.70566376 253.66613251 -318.71124268 251.74639893 C-318.27693392 247.54505143 -317.28347278 244.93035939 -315.34375 241.19140625 C-312.84375 239.44140625 -312.84375 239.44140625 -310.34375 238.19140625 C-309.89346436 237.67666748 -309.44317871 237.16192871 -308.97924805 236.6315918 C-306.7988475 234.71157645 -305.5472239 234.84356917 -302.67578125 234.8984375 C-301.78310547 234.90810547 -300.89042969 234.91777344 -299.97070312 234.92773438 C-299.04193359 234.95287109 -298.11316406 234.97800781 -297.15625 235.00390625 C-296.21587891 235.01744141 -295.27550781 235.03097656 -294.30664062 235.04492188 C-291.98509962 235.08027529 -289.66471347 235.12961951 -287.34375 235.19140625 C-287.08335937 233.94230469 -286.82296875 232.69320312 -286.5546875 231.40625 C-285.68660499 227.94536216 -284.86697514 225.98769113 -281.96875 223.75390625 C-281.38351562 223.28082031 -280.79828125 222.80773437 -280.1953125 222.3203125 C-277.00701069 220.37639009 -273.91640984 220.0658558 -270.234375 220.09375 C-269.48027344 220.09697266 -268.72617187 220.10019531 -267.94921875 220.10351562 C-267.17191406 220.11189453 -266.39460938 220.12027344 -265.59375 220.12890625 C-264.80097656 220.13341797 -264.00820313 220.13792969 -263.19140625 220.14257812 C-261.24215492 220.1543206 -259.29294262 220.17225479 -257.34375 220.19140625 C-257.38435547 218.26361328 -257.38435547 218.26361328 -257.42578125 216.296875 C-257.5078125 212.40234375 -257.5078125 212.40234375 -256.03125 210.50390625 C-255.474375 210.07078125 -254.9175 209.63765625 -254.34375 209.19140625 C-253.951875 208.36640625 -253.56 207.54140625 -253.15625 206.69140625 C-250.61312258 203.18364429 -247.4031611 202.24532908 -243.34375 201.19140625 C-240.22357954 200.84579146 -237.16639403 200.85828727 -234.03125 200.94140625 C-233.23396484 200.9465625 -232.43667969 200.95171875 -231.61523438 200.95703125 C-228.29111599 201.00176287 -225.51508057 201.13429606 -222.34375 202.19140625 C-222.34375 202.85140625 -222.34375 203.51140625 -222.34375 204.19140625 C-221.76625 204.45953125 -221.18875 204.72765625 -220.59375 205.00390625 C-214.73250018 208.09734366 -214.73250018 208.09734366 -213.73756409 210.8973999 C-213.23873366 213.80313692 -213.22441869 216.57109886 -213.23022461 219.52050781 C-213.23033791 221.44204681 -213.23033791 221.44204681 -213.23045349 223.40240479 C-213.23555974 224.795614 -213.24077573 226.18882282 -213.24609375 227.58203125 C-213.24795968 229.01120962 -213.24938276 230.44038863 -213.25038147 231.86956787 C-213.25419285 235.62440773 -213.26401133 239.37920868 -213.27508545 243.1340332 C-213.28713147 247.64282426 -213.29170838 252.15162835 -213.29753876 256.66043091 C-213.30722385 263.50411638 -213.32639002 270.34771655 -213.34375 277.19140625 C-199.48375 277.19140625 -185.62375 277.19140625 -171.34375 277.19140625 C-171.34375 275.21140625 -171.34375 273.23140625 -171.34375 271.19140625 C-170.68375 271.19140625 -170.02375 271.19140625 -169.34375 271.19140625 C-169.30636719 270.58296875 -169.26898438 269.97453125 -169.23046875 269.34765625 C-168.5912254 260.82441154 -167.01319437 252.5596274 -165.34375 244.19140625 C-164.68375 244.19140625 -164.02375 244.19140625 -163.34375 244.19140625 C-163.22257813 243.175625 -163.10140625 242.15984375 -162.9765625 241.11328125 C-161.96574956 232.76644768 -160.81792237 224.47186381 -159.34375 216.19140625 C-158.68375 216.19140625 -158.02375 216.19140625 -157.34375 216.19140625 C-157.28767578 215.08345703 -157.28767578 215.08345703 -157.23046875 213.953125 C-156.82979067 207.77011234 -155.92851032 202.22795548 -154.1640625 196.30078125 C-153.15644138 192.48141737 -152.49396516 188.64748209 -151.84375 184.75390625 C-150.82934327 178.71136805 -149.58264995 172.8100221 -148.02734375 166.87890625 C-147.38310432 164.34612494 -146.84116381 161.8190816 -146.34375 159.25390625 C-145.1665857 153.19440478 -143.77759113 147.19477848 -142.34375 141.19140625 C-142.06789062 139.93328125 -141.79203125 138.67515625 -141.5078125 137.37890625 C-139.51623167 128.9359653 -136.91655001 122.83635172 -131.34375 116.19140625 C-130.78558594 115.485 -130.22742188 114.77859375 -129.65234375 114.05078125 C-125.08520402 108.49815661 -119.55415225 102.8323183 -112.7578125 100.18359375 C-110.32494077 99.39036347 -110.32494077 99.39036347 -109.01953125 97.69921875 C-106.33306912 95.28202904 -102.96897733 94.84558289 -99.53125 94.06640625 C-98.48227539 93.81310547 -98.48227539 93.81310547 -97.41210938 93.5546875 C-91.19746558 92.07805558 -85.26715866 91.06319954 -78.8515625 91.09375 C-77.65273438 91.09697266 -76.45390625 91.10019531 -75.21875 91.10351562 C-73.3625 91.11608398 -73.3625 91.11608398 -71.46875 91.12890625 C-70.20804688 91.13341797 -68.94734375 91.13792969 -67.6484375 91.14257812 C-64.54682614 91.15432665 -61.44531275 91.17075458 -58.34375 91.19140625 C-58.34375 90.53140625 -58.34375 89.87140625 -58.34375 89.19140625 C-59.045 89.08828125 -59.74625 88.98515625 -60.46875 88.87890625 C-68.0187386 87.07347419 -71.65175668 83.01806462 -76.34375 77.19140625 C-77.24673828 76.15113281 -77.24673828 76.15113281 -78.16796875 75.08984375 C-88.17618823 63.14945174 -91.6861352 48.51039034 -90.34375 33.19140625 C-89.27596782 27.47220789 -87.94838568 21.40067761 -85.34375 16.19140625 C-84.68375 16.19140625 -84.02375 16.19140625 -83.34375 16.19140625 C-83.22193359 15.10472656 -83.22193359 15.10472656 -83.09765625 13.99609375 C-81.02692373 6.29253961 -71.7393442 -1.23159409 -65.34375 -5.80859375 C-62.41358859 -7.35614589 -59.42022857 -8.58841146 -56.34375 -9.80859375 C-55.34214844 -10.33646484 -55.34214844 -10.33646484 -54.3203125 -10.875 C-37.81974697 -18.66874538 -12.9194266 -11.26299311 0 0 Z " fill="#070808" transform="translate(366.34375,52.80859375)"/>
<path d="M0 0 C0.98607239 -0.0049649 1.97214478 -0.00992981 2.98809814 -0.01504517 C6.24719953 -0.02963676 9.50625218 -0.03646513 12.76538086 -0.04199219 C15.03877259 -0.04774773 17.31216431 -0.05350541 19.58555603 -0.05926514 C24.35440293 -0.06976772 29.12323301 -0.07561472 33.89208984 -0.07910156 C39.97902898 -0.08457342 46.06574298 -0.10857677 52.15261173 -0.13707352 C56.8514621 -0.15577541 61.55025917 -0.16090959 66.2491436 -0.16243744 C68.49164493 -0.16544933 70.73414565 -0.17342792 72.97661018 -0.18662262 C95.39413067 -0.30907257 95.39413067 -0.30907257 105.16772461 3.16113281 C106.15772461 3.49113281 107.14772461 3.82113281 108.16772461 4.16113281 C108.16772461 4.82113281 108.16772461 5.48113281 108.16772461 6.16113281 C108.99272461 6.34675781 109.81772461 6.53238281 110.66772461 6.72363281 C119.7004476 10.43350119 128.45819783 19.93433629 132.54272461 28.72363281 C135.2641964 35.65977331 136.4339345 41.70725598 136.16772461 49.16113281 C136.82772461 49.16113281 137.48772461 49.16113281 138.16772461 49.16113281 C138.88542748 53.05619789 139.59731646 56.95227727 140.30395508 60.84936523 C140.66305774 62.8229838 141.02668981 64.7957765 141.39038086 66.76855469 C141.6159668 68.01572266 141.84155273 69.26289063 142.07397461 70.54785156 C142.28344727 71.69471436 142.49291992 72.84157715 142.70874023 74.02319336 C143.11471307 76.79870872 143.25937414 79.36353095 143.16772461 82.16113281 C143.82772461 82.16113281 144.48772461 82.16113281 145.16772461 82.16113281 C147.3870864 92.45897151 148.9987275 102.69517045 150.16772461 113.16113281 C150.82772461 113.16113281 151.48772461 113.16113281 152.16772461 113.16113281 C152.31806152 114.23258545 152.31806152 114.23258545 152.47143555 115.32568359 C154.91940247 133.00678581 154.91940247 133.00678581 159.29663086 150.27441406 C160.40937741 153.96194634 161.04588935 157.65355039 161.66381836 161.45019531 C162.2140439 164.41032339 162.99089042 167.25961187 163.79272461 170.16113281 C165.2887533 175.90468016 165.48157701 181.25605798 165.16772461 187.16113281 C164.50772461 187.16113281 163.84772461 187.16113281 163.16772461 187.16113281 C162.82741211 188.33675781 162.82741211 188.33675781 162.48022461 189.53613281 C161.16772461 192.16113281 161.16772461 192.16113281 159.16772461 193.47363281 C154.76748104 194.48202196 150.64789327 194.86231242 146.16772461 194.16113281 C140.40207313 190.23558287 138.57549917 183.73505254 137.16772461 177.16113281 C137.12884112 174.82812349 137.12286111 172.49403481 137.16772461 170.16113281 C136.50772461 170.16113281 135.84772461 170.16113281 135.16772461 170.16113281 C134.70847349 168.03633097 134.25037873 165.91127919 133.79272461 163.78613281 C133.5181543 162.51253906 133.24358398 161.23894531 132.96069336 159.92675781 C132.14301853 156.04380937 131.39490323 152.15281542 130.69506836 148.24707031 C130.24947058 146.14105337 130.24947058 146.14105337 129.19506836 144.31347656 C127.80195722 141.39482926 127.36844241 138.52862702 126.79272461 135.34863281 C125.7967765 130.047284 124.60456276 124.86555803 123.16772461 119.66113281 C121.41819737 113.31074957 120.07318999 106.97250704 118.87866211 100.50097656 C118.19213977 97.2758304 117.21931952 94.28213135 116.16772461 91.16113281 C115.81868522 89.45988899 115.50552391 87.75085417 115.23022461 86.03613281 C114.17756763 79.98947529 112.74914411 74.08965065 111.16772461 68.16113281 C110.83385742 66.906875 110.49999023 65.65261719 110.15600586 64.36035156 C108.70459767 57.69895832 108.70459767 57.69895832 105.16772461 52.16113281 C102.21003284 51.66102758 102.21003284 51.66102758 99.16772461 52.16113281 C96.38034719 55.03490051 95.7903465 57.10060706 95.76899719 61.04595947 C95.75645905 62.0275 95.7439209 63.00904053 95.73100281 64.02032471 C95.7324379 65.09062927 95.73387299 66.16093384 95.73535156 67.26367188 C95.72515991 68.39567017 95.71496826 69.52766846 95.70446777 70.69396973 C95.67425637 74.43828224 95.66505912 78.18233926 95.65600586 81.92675781 C95.63916527 84.52179826 95.62101588 87.11683051 95.60160828 89.71185303 C95.5588984 95.84575387 95.52939655 101.97958819 95.50628489 108.11359 C95.47657884 115.78316956 95.42668618 123.45260064 95.37670898 131.12207031 C95.28765635 144.80171285 95.22913573 158.48127625 95.16772461 172.16113281 C60.18772461 172.16113281 25.20772461 172.16113281 -10.83227539 172.16113281 C-10.83227539 133.22113281 -10.83227539 94.28113281 -10.83227539 54.16113281 C-15.04856673 52.05298714 -17.23018314 51.98412926 -21.83227539 52.16113281 C-22.09782227 53.12535156 -22.36336914 54.08957031 -22.63696289 55.08300781 C-23.16676758 56.97792969 -23.16676758 56.97792969 -23.70727539 58.91113281 C-24.2293457 60.79058594 -24.2293457 60.79058594 -24.76196289 62.70800781 C-25.83227539 66.16113281 -25.83227539 66.16113281 -26.84814453 68.09936523 C-27.9076275 70.3189965 -28.29897374 72.17373876 -28.64868164 74.60253906 C-28.77307617 75.43333984 -28.8974707 76.26414062 -29.02563477 77.12011719 C-29.14745117 77.97927734 -29.26926758 78.8384375 -29.39477539 79.72363281 C-29.64379995 81.43360146 -29.89501143 83.14325342 -30.14868164 84.85253906 C-30.25639893 85.60736572 -30.36411621 86.36219238 -30.47509766 87.13989258 C-30.83227539 89.16113281 -30.83227539 89.16113281 -31.83227539 92.16113281 C-32.49227539 92.16113281 -33.15227539 92.16113281 -33.83227539 92.16113281 C-33.79102539 93.17175781 -33.74977539 94.18238281 -33.70727539 95.22363281 C-33.83607399 99.28078872 -34.68636769 102.27777893 -35.83227539 106.16113281 C-36.57385767 110.14964292 -37.21344552 114.15190522 -37.83227539 118.16113281 C-38.49227539 118.16113281 -39.15227539 118.16113281 -39.83227539 118.16113281 C-39.91477539 119.43988281 -39.99727539 120.71863281 -40.08227539 122.03613281 C-40.66152267 127.99897242 -41.99223596 133.74444759 -43.37231445 139.56298828 C-44.51042011 144.42280581 -45.29203133 149.1976405 -45.83227539 154.16113281 C-46.49227539 154.16113281 -47.15227539 154.16113281 -47.83227539 154.16113281 C-47.9418457 155.10472656 -48.05141602 156.04832031 -48.16430664 157.02050781 C-49.72573291 169.66425227 -51.54690189 181.47331682 -58.89477539 192.16113281 C-63.35377238 195.19704566 -67.60337698 195.15187146 -72.83227539 194.16113281 C-76.25800328 191.6442715 -78.29963508 189.09800803 -79.83227539 185.16113281 C-80.0527248 175.46943385 -78.06100638 165.7691204 -76.26977539 156.28613281 C-76.03581055 155.01382813 -75.8018457 153.74152344 -75.56079102 152.43066406 C-74.99136634 149.33950156 -74.41513098 146.24978573 -73.83227539 143.16113281 C-73.17227539 143.16113281 -72.51227539 143.16113281 -71.83227539 143.16113281 C-71.7459082 142.2265625 -71.65954102 141.29199219 -71.57055664 140.32910156 C-70.77885365 132.66077936 -69.49698786 125.39476172 -67.39477539 117.97363281 C-64.7199903 108.50448162 -63.31373918 98.99906635 -62.1418457 89.24145508 C-61.83324515 87.16764965 -61.37490023 85.18512348 -60.83227539 83.16113281 C-60.17227539 83.16113281 -59.51227539 83.16113281 -58.83227539 83.16113281 C-58.79489258 82.56429687 -58.75750977 81.96746094 -58.71899414 81.35253906 C-57.9557636 71.28088902 -56.48343481 60.9245372 -53.83227539 51.16113281 C-53.17227539 51.16113281 -52.51227539 51.16113281 -51.83227539 51.16113281 C-51.75750977 50.15695313 -51.68274414 49.15277344 -51.60571289 48.11816406 C-50.25996714 33.12323815 -45.14184928 20.21600539 -33.48461914 10.12988281 C-23.24451274 2.47008849 -12.52319654 0.01511304 0 0 Z " fill="#FBFBFB" transform="translate(287.832275390625,157.8388671875)"/>
<path d="M0 0 C34.98 0 69.96 0 106 0 C106.33 69.63 106.66 139.26 107 211 C112.61 211.99 118.22 212.98 124 214 C124.33 214.99 124.66 215.98 125 217 C125.78375 217.309375 126.5675 217.61875 127.375 217.9375 C130.55589291 219.22500427 131.31959276 220.02109625 133 223 C134.57447344 227.00511216 136 230.66885238 136 235 C129.41647559 235.10161289 122.83315423 235.1715547 116.24902344 235.21972656 C114.01033979 235.23981316 111.77170842 235.2670878 109.53320312 235.30175781 C106.31106651 235.35040464 103.08962499 235.37299874 99.8671875 235.390625 C98.87008759 235.41127014 97.87298767 235.43191528 96.84567261 235.45318604 C90.87523829 235.45510392 87.57226461 234.92690804 83 231 C80.60524623 228.60524623 80.61780938 227.68474723 80.21875 224.390625 C80.09991455 223.4224585 79.9810791 222.45429199 79.85864258 221.45678711 C79.74029053 220.39854736 79.62193848 219.34030762 79.5 218.25 C79.37326904 217.15631104 79.24653809 216.06262207 79.1159668 214.93579102 C77.32395237 198.76453476 75.73587236 182.27432586 76 166 C75.34 166 74.68 166 74 166 C73.94054199 165.0402124 73.94054199 165.0402124 73.87988281 164.06103516 C72.93089754 149.17874398 71.54599595 134.42111208 69.7315979 119.62350464 C68.61299758 110.48901313 67.62765579 101.36634478 66.9375 92.1875 C66.34996438 84.43759381 65.53033865 76.75831574 64.4375 69.0625 C64.31044678 68.16104248 64.18339355 67.25958496 64.05249023 66.33081055 C63.79025958 62.3372561 63.79025958 62.3372561 62 59 C61.79606226 57.43660244 61.65249842 55.86523888 61.53515625 54.29296875 C61.45845703 53.31859863 61.38175781 52.34422852 61.30273438 51.34033203 C61.22345703 50.29989746 61.14417969 49.25946289 61.0625 48.1875 C60.3372464 35.96666644 60.3372464 35.96666644 58 24 C55.20129973 22.60064987 53.09501208 22.74734595 50 23 C47.86663135 24.58722628 47.10437875 25.55631511 46.49169922 28.16064453 C46.42998535 28.97645996 46.36827148 29.79227539 46.3046875 30.6328125 C46.22863281 31.52097656 46.15257812 32.40914063 46.07421875 33.32421875 C46.00847656 34.24847656 45.94273437 35.17273438 45.875 36.125 C45.73023492 37.96123072 45.58198794 39.79719141 45.4296875 41.6328125 C45.37022949 42.44637207 45.31077148 43.25993164 45.24951172 44.09814453 C45 46 45 46 44 47 C43.65436013 49.95993418 43.37218373 52.90614871 43.125 55.875 C43.04330566 56.81359863 42.96161133 57.75219727 42.87744141 58.71923828 C42.69026912 60.87904964 42.50539321 63.03906069 42.32226562 65.19921875 C41.95337923 69.5498425 41.57842487 73.89992581 41.203125 78.25 C40.46352687 86.83288976 39.73030839 95.41631527 39 104 C38.34 104 37.68 104 37 104 C36.96241577 105.04341553 36.96241577 105.04341553 36.92407227 106.10791016 C36.80754026 109.28043455 36.68507432 112.45270355 36.5625 115.625 C36.52318359 116.71941406 36.48386719 117.81382812 36.44335938 118.94140625 C36.40146484 120.00488281 36.35957031 121.06835938 36.31640625 122.1640625 C36.27974854 123.13811035 36.24309082 124.1121582 36.20532227 125.11572266 C35.99094074 128.1272605 35.50942218 131.02560785 35 134 C34.85518274 135.59688627 34.73524122 137.19622964 34.640625 138.796875 C33.65406848 153.89897833 32.00848748 168.85819218 30.16186523 183.87466431 C28.71180329 195.68436423 27.38421773 207.46633914 26.54492188 219.33837891 C26.48369141 220.1947998 26.42246094 221.0512207 26.359375 221.93359375 C26.31264648 222.65603271 26.26591797 223.37847168 26.21777344 224.12280273 C26 226 26 226 25 229 C24.34 229 23.68 229 23 229 C22.62875 229.928125 22.62875 229.928125 22.25 230.875 C20.73638625 233.44814338 19.74455505 233.91032011 17 235 C14.73468018 235.24050903 14.73468018 235.24050903 12.23144531 235.22705078 C11.29077209 235.22689972 10.35009888 235.22674866 9.38092041 235.22659302 C7.86978668 235.21110916 7.86978668 235.21110916 6.328125 235.1953125 C5.29057068 235.1924826 4.25301636 235.18965271 3.184021 235.18673706 C-0.12743701 235.17554865 -3.43862384 235.15044627 -6.75 235.125 C-8.99608984 235.11496848 -11.24218393 235.10584293 -13.48828125 235.09765625 C-18.99227991 235.0756137 -24.49612058 235.04214932 -30 235 C-30.08972932 228.45477564 -28.85822956 224.14197632 -24.38671875 219.2265625 C-18.65593811 214.01676192 -12.62177202 212.8306582 -5.171875 211.46484375 C-2.9666719 211.0875509 -2.9666719 211.0875509 -1 210 C-0.67 140.7 -0.34 71.4 0 0 Z " fill="#FAFAFA" transform="translate(277,343)"/>
<path d="M0 0 C0.495 1.485 0.495 1.485 1 3 C1.9075 3.268125 2.815 3.53625 3.75 3.8125 C7.91103258 5.33287729 9.34879312 7.51156989 12 11 C12.7425 11.70125 13.485 12.4025 14.25 13.125 C16.11256383 15.1206041 16.61895328 16.33267295 17 19 C17.66 19 18.32 19 19 19 C23.40644084 29.10543766 24.01646975 41.12827152 20.8984375 51.75390625 C19.47506357 54.73385756 17.93204397 57.32519246 16 60 C15.48179687 60.73089844 14.96359375 61.46179688 14.4296875 62.21484375 C8.47454096 69.70912237 0.43940887 76.01535441 -9 78 C-12.09043109 78.23508172 -15.15236373 78.23574188 -18.25 78.1875 C-19.05179687 78.18685547 -19.85359375 78.18621094 -20.6796875 78.18554688 C-24.02640473 78.16036255 -26.80565645 78.06478118 -30 77 C-30 76.34 -30 75.68 -30 75 C-30.99 74.95875 -31.98 74.9175 -33 74.875 C-42.46564096 73.48187139 -48.86395029 64.06838882 -54.3125 57 C-59.62970215 47.54719618 -59.56634481 33.85310487 -56.9375 23.5 C-53.62636153 14.41362001 -45.39569914 5.2656485 -36.7890625 0.87109375 C-25.74066502 -3.37986959 -11.22246517 -3.87685161 0 0 Z " fill="#FBFBFB" transform="translate(348,56)"/>
<path d="M0 0 C5.61 0 11.22 0 17 0 C17 44.88 17 89.76 17 136 C14.01316593 137.49341703 11.25600226 137.13175178 7.9375 137.125 C6.66777344 137.12757813 5.39804687 137.13015625 4.08984375 137.1328125 C1 137 1 137 0 136 C-0.09632045 134.2410657 -0.1218751 132.47822841 -0.12025452 130.71665955 C-0.12162918 129.57095993 -0.12300385 128.42526031 -0.12442017 127.24484253 C-0.12082489 125.97673737 -0.11722961 124.7086322 -0.11352539 123.40209961 C-0.11324352 122.06206769 -0.11340125 120.72203561 -0.1139679 119.38200378 C-0.11425587 115.73340562 -0.1083592 112.08484005 -0.10139394 108.43624949 C-0.09516034 104.62722484 -0.0945566 100.8181995 -0.09336853 97.00917053 C-0.09025523 89.79142246 -0.08204186 82.57368946 -0.07201904 75.35594803 C-0.06085786 67.14084743 -0.05534744 58.92574612 -0.05032361 50.71063983 C-0.03985925 33.80708425 -0.02205939 16.90354429 0 0 Z " fill="#FEFEFE" transform="translate(521,268)"/>
<path d="M0 0 C5.28 0 10.56 0 16 0 C17.28481272 2.56962544 17.12877251 4.39805431 17.13371277 7.27624512 C17.13797775 8.39518661 17.14224274 9.51412811 17.14663696 10.66697693 C17.14618378 11.90029251 17.14573059 13.13360809 17.14526367 14.40429688 C17.14862228 15.69860123 17.1519809 16.99290558 17.15544128 18.32643127 C17.16429066 21.88212356 17.16661976 25.4377918 17.16725707 28.99349403 C17.16820531 31.95840508 17.17188252 34.92331048 17.17542917 37.88821936 C17.1835769 44.88039783 17.18601307 51.87256342 17.18530273 58.86474609 C17.1847015 66.08680455 17.19526165 73.30878842 17.2110464 80.530828 C17.22410297 86.72448247 17.22948744 92.91811251 17.22884732 99.11178064 C17.22859183 102.81408464 17.23147146 106.51632234 17.24202538 110.21861267 C17.25346512 114.34436177 17.24897114 118.46994264 17.24291992 122.59570312 C17.24853943 123.82901871 17.25415894 125.06233429 17.25994873 126.33302307 C17.25575424 127.45196457 17.25155975 128.57090607 17.24723816 129.72375488 C17.24778293 130.70010139 17.24832769 131.67644791 17.24888897 132.68238068 C17 135 17 135 15 137 C11.77734375 137.23046875 11.77734375 137.23046875 7.9375 137.1875 C6.66777344 137.18105469 5.39804688 137.17460937 4.08984375 137.16796875 C1 137 1 137 0 136 C-0.09632045 134.2410657 -0.1218751 132.47822841 -0.12025452 130.71665955 C-0.12162918 129.57095993 -0.12300385 128.42526031 -0.12442017 127.24484253 C-0.12082489 125.97673737 -0.11722961 124.7086322 -0.11352539 123.40209961 C-0.11324352 122.06206769 -0.11340125 120.72203561 -0.1139679 119.38200378 C-0.11425587 115.73340562 -0.1083592 112.08484005 -0.10139394 108.43624949 C-0.09516034 104.62722484 -0.0945566 100.8181995 -0.09336853 97.00917053 C-0.09025523 89.79142246 -0.08204186 82.57368946 -0.07201904 75.35594803 C-0.06085786 67.14084743 -0.05534744 58.92574612 -0.05032361 50.71063983 C-0.03985925 33.80708425 -0.02205939 16.90354429 0 0 Z " fill="#F0F0F0" transform="translate(123,268)"/>
<path d="M0 0 C0.70253906 0.00386719 1.40507813 0.00773437 2.12890625 0.01171875 C2.83144531 0.00785156 3.53398438 0.00398438 4.2578125 0 C9.50229247 0.01010497 9.50229247 0.01010497 10.62890625 1.13671875 C10.72953372 4.14485361 10.76505365 7.13006904 10.75830078 10.13867188 C10.7600531 11.08330795 10.76180542 12.02794403 10.76361084 13.00120544 C10.76803105 16.14014495 10.76509077 19.27902862 10.76171875 22.41796875 C10.76239174 24.58890799 10.76336172 26.75984715 10.76461792 28.93078613 C10.76609512 33.48723058 10.76393962 38.04365547 10.75927734 42.60009766 C10.75358005 48.45498461 10.75685893 54.30982573 10.76284981 60.164711 C10.76645482 64.64951933 10.76531711 69.13431671 10.76272202 73.61912537 C10.76205258 75.77860011 10.76288175 77.93807584 10.76520157 80.09754944 C10.76772711 83.10998183 10.76388889 86.12233888 10.75830078 89.13476562 C10.76032501 90.03662094 10.76234924 90.93847626 10.76443481 91.86766052 C10.74316856 98.02245644 10.74316856 98.02245644 9.62890625 99.13671875 C7.11754521 99.23646907 4.6398721 99.27554058 2.12890625 99.26171875 C1.42636719 99.26558594 0.72382812 99.26945312 0 99.2734375 C-5.24447997 99.26333253 -5.24447997 99.26333253 -6.37109375 98.13671875 C-6.47172122 95.12858389 -6.50724115 92.14336846 -6.50048828 89.13476562 C-6.5022406 88.19012955 -6.50399292 87.24549347 -6.50579834 86.27223206 C-6.51021855 83.13329255 -6.50727827 79.99440888 -6.50390625 76.85546875 C-6.50457924 74.68452951 -6.50554922 72.51359035 -6.50680542 70.34265137 C-6.50828262 65.78620692 -6.50612712 61.22978203 -6.50146484 56.67333984 C-6.49576755 50.81845289 -6.49904643 44.96361177 -6.50503731 39.1087265 C-6.50864232 34.62391817 -6.50750461 30.13912079 -6.50490952 25.65431213 C-6.50424008 23.49483739 -6.50506925 21.33536166 -6.50738907 19.17588806 C-6.50991461 16.16345567 -6.50607639 13.15109862 -6.50048828 10.13867188 C-6.50251251 9.23681656 -6.50453674 8.33496124 -6.50662231 7.40577698 C-6.48107678 0.01248762 -6.48107678 0.01248762 0 0 Z " fill="#FCFCFC" transform="translate(557.37109375,286.86328125)"/>
<path d="M0 0 C0.70253906 0.00386719 1.40507813 0.00773437 2.12890625 0.01171875 C2.83144531 0.00785156 3.53398438 0.00398438 4.2578125 0 C9.50229247 0.01010497 9.50229247 0.01010497 10.62890625 1.13671875 C10.72421606 4.18074297 10.75442264 7.20203583 10.74243164 10.24633789 C10.74257767 11.20233383 10.74272369 12.15832977 10.74287415 13.14329529 C10.7421746 16.3195112 10.73438028 19.49566927 10.7265625 22.671875 C10.72469847 24.86762968 10.7232745 27.06338477 10.72227478 29.25914001 C10.71844844 35.05092508 10.70861716 40.84268525 10.6975708 46.63446045 C10.68735918 52.53950666 10.6827777 58.44455688 10.67773438 64.34960938 C10.666995 75.94532347 10.64991718 87.54101904 10.62890625 99.13671875 C5.67890625 99.13671875 0.72890625 99.13671875 -4.37109375 99.13671875 C-6.62113633 94.6366336 -6.62113633 94.6366336 -6.61833191 91.09382629 C-6.6225264 90.29884232 -6.62672089 89.50385834 -6.63104248 88.68478394 C-6.62542297 87.82176666 -6.61980347 86.95874939 -6.61401367 86.06958008 C-6.61591202 85.15376663 -6.61781036 84.23795319 -6.61976624 83.29438782 C-6.62346937 80.26908799 -6.61277835 77.24402847 -6.6015625 74.21875 C-6.60037058 72.11935962 -6.59991756 70.0199687 -6.60017395 67.920578 C-6.59861001 63.52327125 -6.59032545 59.12604602 -6.5769043 54.72875977 C-6.55988325 49.07909618 -6.55609089 43.42952193 -6.55684948 37.7798357 C-6.55657825 33.44686523 -6.5511051 29.11391448 -6.54384804 24.78095055 C-6.54065618 22.69683672 -6.53869276 20.61272065 -6.53795433 18.52860451 C-6.535798 15.62425511 -6.52707012 12.72000258 -6.51635742 9.81567383 C-6.51681061 8.94658386 -6.51726379 8.0774939 -6.51773071 7.18206787 C-6.47885314 0.01248334 -6.47885314 0.01248334 0 0 Z " fill="#EFEFEF" transform="translate(98.37109375,286.86328125)"/>
<path d="M0 0 C1.26972656 -0.00257813 2.53945312 -0.00515625 3.84765625 -0.0078125 C6.9375 0.125 6.9375 0.125 7.9375 1.125 C8.0317174 3.24181317 8.05492761 5.36180758 8.05102539 7.48071289 C8.05117142 8.14410172 8.05131744 8.80749054 8.0514679 9.49098206 C8.05076881 11.69323956 8.04297665 13.89541345 8.03515625 16.09765625 C8.03329206 17.62080336 8.03186816 19.14395107 8.03086853 20.667099 C8.02704346 24.68337651 8.01721328 28.69961808 8.00616455 32.71588135 C7.99595019 36.81123366 7.99137086 40.90659176 7.98632812 45.00195312 C7.97559099 53.04298712 7.95799429 61.08398495 7.9375 69.125 C2.3275 69.125 -3.2825 69.125 -9.0625 69.125 C-9.0625 46.685 -9.0625 24.245 -9.0625 1.125 C-6.07566593 -0.36841703 -3.31850226 -0.00675178 0 0 Z " fill="#F3F3F3" transform="translate(71.0625,301.875)"/>
<path d="M0 0 C4.95 0 9.9 0 15 0 C17 2 17 2 17.24723816 4.73939514 C17.24581314 5.90442062 17.24438812 7.06944611 17.24291992 8.26977539 C17.24599655 9.58776627 17.24907318 10.90575714 17.25224304 12.26368713 C17.24534581 13.70834527 17.23807888 15.15300169 17.23046875 16.59765625 C17.22927708 18.07213806 17.22882376 19.54662064 17.2290802 21.02110291 C17.227515 24.11218005 17.21922186 27.20314143 17.20581055 30.29418945 C17.18880575 34.26465753 17.1849966 38.23499847 17.18575573 42.2054987 C17.18548438 45.25000735 17.18000909 48.29448799 17.17275429 51.33898735 C17.1695631 52.80347926 17.16759917 54.26797436 17.16686058 55.73246956 C17.16470263 57.7748643 17.15517366 59.8172473 17.14526367 61.85961914 C17.13954597 63.60596397 17.13954597 63.60596397 17.13371277 65.3875885 C17 68 17 68 16 69 C10.72 69 5.44 69 0 69 C0 46.23 0 23.46 0 0 Z " fill="#F2F2F2" transform="translate(582,302)"/>
<path d="M0 0 C5.61 0 11.22 0 17 0 C17 44.88 17 89.76 17 136 C14.01316593 137.49341703 11.25600226 137.13175178 7.9375 137.125 C6.66777344 137.12757813 5.39804687 137.13015625 4.08984375 137.1328125 C1 137 1 137 0 136 C-0.09632045 134.2410657 -0.1218751 132.47822841 -0.12025452 130.71665955 C-0.12162918 129.57095993 -0.12300385 128.42526031 -0.12442017 127.24484253 C-0.12082489 125.97673737 -0.11722961 124.7086322 -0.11352539 123.40209961 C-0.11324352 122.06206769 -0.11340125 120.72203561 -0.1139679 119.38200378 C-0.11425587 115.73340562 -0.1083592 112.08484005 -0.10139394 108.43624949 C-0.09516034 104.62722484 -0.0945566 100.8181995 -0.09336853 97.00917053 C-0.09025523 89.79142246 -0.08204186 82.57368946 -0.07201904 75.35594803 C-0.06085786 67.14084743 -0.05534744 58.92574612 -0.05032361 50.71063983 C-0.03985925 33.80708425 -0.02205939 16.90354429 0 0 Z M1 2 C1 45.89 1 89.78 1 135 C5.62 135 10.24 135 15 135 C15 91.11 15 47.22 15 2 C10.38 2 5.76 2 1 2 Z " fill="#B8B8B8" transform="translate(521,268)"/>
<path d="M0 0 C0.99 0 1.98 0 3 0 C3 17.49 3 34.98 3 53 C-1.29 53 -5.58 53 -10 53 C-9.125 42.375 -9.125 42.375 -8 39 C-7.34 39 -6.68 39 -6 39 C-5.96261719 38.30777344 -5.92523438 37.61554688 -5.88671875 36.90234375 C-5.40185166 29.68638059 -4.25475653 22.78821853 -2.765625 15.71484375 C-1.6909937 10.50068883 -0.83218951 5.25747963 0 0 Z " fill="#ECECEC" transform="translate(261,277)"/>
<path d="M0 0 C0.66 0 1.32 0 2 0 C3.89612788 7.12944082 5.4657241 14.20780919 6.5703125 21.50390625 C6.95592201 24.11893446 6.95592201 24.11893446 8 27 C8.03954234 29.33299825 8.04401732 31.66708189 8 34 C8.66 34 9.32 34 10 34 C10.34087334 35.54001707 10.67230953 37.08212406 11 38.625 C11.185625 39.48351562 11.37125 40.34203125 11.5625 41.2265625 C12 44 12 44 12 50 C8.04 50 4.08 50 0 50 C0 33.5 0 17 0 0 Z " fill="#E1E1E1" transform="translate(397,280)"/>
<path d="M0 0 C0.70253906 0.00386719 1.40507813 0.00773437 2.12890625 0.01171875 C2.83144531 0.00785156 3.53398438 0.00398438 4.2578125 0 C9.50229247 0.01010497 9.50229247 0.01010497 10.62890625 1.13671875 C10.72420237 4.15022113 10.75442529 7.14075981 10.74243164 10.15454102 C10.74257767 11.10078339 10.74272369 12.04702576 10.74287415 13.02194214 C10.74217461 16.16569267 10.73438034 19.30938476 10.7265625 22.453125 C10.72469846 24.62645943 10.72327449 26.79979427 10.72227478 28.97312927 C10.71844846 34.7057307 10.70861722 40.43830698 10.6975708 46.17089844 C10.68735912 52.01562154 10.68277768 57.86034868 10.67773438 63.70507812 C10.66699505 75.18230275 10.64991727 86.65950866 10.62890625 98.13671875 C10.29890625 98.13671875 9.96890625 98.13671875 9.62890625 98.13671875 C9.62890625 66.45671875 9.62890625 34.77671875 9.62890625 2.13671875 C5.00890625 2.46671875 0.38890625 2.79671875 -4.37109375 3.13671875 C-4.70109375 34.48671875 -5.03109375 65.83671875 -5.37109375 98.13671875 C-5.70109375 98.13671875 -6.03109375 98.13671875 -6.37109375 98.13671875 C-6.39421507 85.5067639 -6.41200776 72.87681405 -6.42290592 60.24684238 C-6.42813521 54.38289711 -6.43523369 48.51896626 -6.4465332 42.6550293 C-6.45736045 37.00110163 -6.46337024 31.34718788 -6.46597099 25.69325066 C-6.46782554 23.53098265 -6.4714467 21.36871544 -6.47682381 19.20645332 C-6.48403208 16.18913218 -6.48508478 13.17186932 -6.48461914 10.15454102 C-6.48821442 9.25111465 -6.49180969 8.34768829 -6.49551392 7.41688538 C-6.48306381 0.01249145 -6.48306381 0.01249145 0 0 Z " fill="#A3A3A3" transform="translate(557.37109375,286.86328125)"/>
<path d="M0 0 C0.99 0 1.98 0 3 0 C3 17.49 3 34.98 3 53 C-1.29 53 -5.58 53 -10 53 C-10 52.67 -10 52.34 -10 52 C-6.04 52 -2.08 52 2 52 C1.67 37.81 1.34 23.62 1 9 C0.01 10.485 0.01 10.485 -1 12 C-1.08159574 7.83861737 -0.98248524 4.0527516 0 0 Z " fill="#797979" transform="translate(261,277)"/>
<path d="M0 0 C0.33 0 0.66 0 1 0 C1.43289103 4.80094572 1.8598955 9.60236775 2.28173828 14.40429688 C2.4256768 16.03366804 2.57115016 17.66290444 2.71826172 19.29199219 C3.49305094 27.88319245 4.20936378 36.363744 4 45 C3.34 45 2.68 45 2 45 C0.67659949 29.96919708 -0.32730287 15.09229916 0 0 Z " fill="#858585" transform="translate(332,445)"/>
<path d="M0 0 C0.99 0 1.98 0 3 0 C3 0.99 3 1.98 3 3 C2.34 3 1.68 3 1 3 C1 19.5 1 36 1 53 C0.67 53 0.34 53 0 53 C0 35.51 0 18.02 0 0 Z " fill="#3E3E3E" transform="translate(396,277)"/>
<path d="M0 0 C4.91744509 8.79847799 6.58643652 20.05379836 7 30 C4.16381334 27.16381334 4.03625583 23.9373423 3.375 20.125 C3.2409375 19.40441406 3.106875 18.68382812 2.96875 17.94140625 C2.35721888 14.55302465 2 11.45466614 2 8 C1.34 8 0.68 8 0 8 C0 5.36 0 2.72 0 0 Z " fill="#9C9C9C" transform="translate(459,299)"/>
<path d="M0 0 C0.66 0.33 1.32 0.66 2 1 C0.515 2.485 0.515 2.485 -1 4 C6.26 4.33 13.52 4.66 21 5 C21 5.33 21 5.66 21 6 C11.76 6 2.52 6 -7 6 C-7 5.34 -7 4.68 -7 4 C-6.030625 3.525625 -5.06125 3.05125 -4.0625 2.5625 C-1.19522563 1.29806053 -1.19522563 1.29806053 0 0 Z " fill="#A8A8A8" transform="translate(359,138)"/>
<path d="M0 0 C0.33 0.99 0.66 1.98 1 3 C1.66 3 2.32 3 3 3 C3.33 6.3 3.66 9.6 4 13 C3.34 12.67 2.68 12.34 2 12 C1.67 13.98 1.34 15.96 1 18 C0.67 18 0.34 18 0 18 C0 12.06 0 6.12 0 0 Z " fill="#D2D2D2" transform="translate(398,285)"/>
<path d="M0 0 C-1.38188453 3.21043882 -2.92421903 5.04936365 -5.625 7.25 C-6.57246094 8.03117187 -6.57246094 8.03117187 -7.5390625 8.828125 C-8.02117187 9.21484375 -8.50328125 9.6015625 -9 10 C-9 7 -9 7 -7.5390625 5.17578125 C-6.90742188 4.56089844 -6.27578125 3.94601563 -5.625 3.3125 C-4.68527344 2.37857422 -4.68527344 2.37857422 -3.7265625 1.42578125 C-2 0 -2 0 0 0 Z " fill="#C0C0C0" transform="translate(307,61)"/>
<path d="M0 0 C0.33 0 0.66 0 1 0 C1.2358396 5.77807024 0.86783046 10.51324804 -1 16 C-1.33 16 -1.66 16 -2 16 C-2.20674944 10.21101581 -1.59162079 5.57067277 0 0 Z " fill="#9C9C9C" transform="translate(234,209)"/>
<path d="M0 0 C0.66 0 1.32 0 2 0 C1.88541307 1.43836751 1.75790884 2.87570966 1.625 4.3125 C1.55539063 5.11300781 1.48578125 5.91351563 1.4140625 6.73828125 C1 9 1 9 -1 12 C-1.02712066 10.56260487 -1.04645067 9.12506137 -1.0625 7.6875 C-1.07410156 6.88699219 -1.08570313 6.08648437 -1.09765625 5.26171875 C-1 3 -1 3 0 0 Z " fill="#ADADAD" transform="translate(237,318)"/>
<path d="M0 0 C0.99 0 1.98 0 3 0 C3 0.99 3 1.98 3 3 C2.34 3 1.68 3 1 3 C1 7.62 1 12.24 1 17 C0.67 17 0.34 17 0 17 C0 11.39 0 5.78 0 0 Z " fill="#4A4A4A" transform="translate(396,277)"/>
<path d="M0 0 C0.66 0 1.32 0 2 0 C1.25 7.625 1.25 7.625 -1 11 C-1.125 3.375 -1.125 3.375 0 0 Z " fill="#A6A6A6" transform="translate(256,239)"/>
<path d="M0 0 C1.90401138 1.90401138 2.93520439 3.33425686 3.19921875 6.046875 C3.1886578 8.03233273 3.09915043 10.0169914 3 12 C0.60926555 8.17482487 0.44033448 4.40334476 0 0 Z " fill="#969696" transform="translate(456,287)"/>
</svg>
