<?xml version="1.0" encoding="UTF-8"?>
<svg version="1.1" xmlns="http://www.w3.org/2000/svg" width="598" height="616">
<path d="M0 0 C197.34 0 394.68 0 598 0 C598 203.28 598 406.56 598 616 C400.66 616 203.32 616 0 616 C0 412.72 0 209.44 0 0 Z " fill="#FEFEFE" transform="translate(0,0)"/>
<path d="M0 0 C0.78568359 -0.01611328 1.57136719 -0.03222656 2.38085938 -0.04882812 C8.42389384 -0.05388506 12.42964584 1.15542394 17.20184326 5.06524658 C19.55500295 7.90733242 19.54893854 9.34494493 19.51660156 12.99902344 C19.51629944 14.13990417 19.51599731 15.28078491 19.51568604 16.45623779 C19.49504089 17.68239807 19.47439575 18.90855835 19.453125 20.171875 C19.44746521 21.43138977 19.44180542 22.69090454 19.43597412 23.98858643 C19.41738047 27.32959024 19.38147328 30.66949467 19.3371582 34.01019287 C19.29616502 37.42206339 19.27795459 40.83404769 19.2578125 44.24609375 C19.21369639 50.93523839 19.14464071 57.62371856 19.0625 64.3125 C25.9925 64.3125 32.9225 64.3125 40.0625 64.3125 C40.3925 62.3325 40.7225 60.3525 41.0625 58.3125 C42.515625 56.046875 42.515625 56.046875 44.3125 54.0625 C44.89515625 53.39734375 45.4778125 52.7321875 46.078125 52.046875 C51.79062434 47.05406062 58.8603225 47.98035312 66 48 C67.16724609 47.98388672 68.33449219 47.96777344 69.53710938 47.95117188 C80.1385173 47.94513119 80.1385173 47.94513119 85.0625 51.3125 C85.74957031 51.77269531 86.43664062 52.23289063 87.14453125 52.70703125 C87.71558594 53.17496094 88.28664062 53.64289063 88.875 54.125 C89.45894531 54.58519531 90.04289063 55.04539063 90.64453125 55.51953125 C92.0625 57.3125 92.0625 57.3125 93.0625 63.3125 C157.7425 63.3125 222.4225 63.3125 289.0625 63.3125 C289.3925 61.3325 289.7225 59.3525 290.0625 57.3125 C291.515625 55.265625 291.515625 55.265625 293.3125 53.5625 C294.18648438 52.70398438 294.18648438 52.70398438 295.078125 51.828125 C299.25155345 48.64054579 303.1137924 48.05773752 308.28125 48.046875 C309.46074219 48.04429688 310.64023437 48.04171875 311.85546875 48.0390625 C313.69044922 48.05066406 313.69044922 48.05066406 315.5625 48.0625 C316.78582031 48.05476563 318.00914062 48.04703125 319.26953125 48.0390625 C321.03876953 48.04292969 321.03876953 48.04292969 322.84375 48.046875 C323.91689453 48.04913086 324.99003906 48.05138672 326.09570312 48.05371094 C331.29680302 48.50739477 334.40217362 50.16929554 337.8125 54.0625 C338.40546875 54.71734375 338.9984375 55.3721875 339.609375 56.046875 C341.0625 58.3125 341.0625 58.3125 342.0625 64.3125 C348.9925 64.3125 355.9225 64.3125 363.0625 64.3125 C363.05202637 62.6725708 363.04155273 61.0326416 363.03076172 59.34301758 C362.99455945 53.25824161 362.97159855 47.17347517 362.95263672 41.08862305 C362.9425797 38.45514322 362.9289324 35.82167455 362.91162109 33.18823242 C362.8873601 29.402804 362.8760138 25.61752324 362.8671875 21.83203125 C362.85686493 20.65477982 362.84654236 19.47752838 362.83590698 18.26460266 C362.83575592 17.16383896 362.83560486 16.06307526 362.83544922 14.92895508 C362.831008 13.96298904 362.82656677 12.99702301 362.82199097 12.00178528 C363.18970113 7.89018285 364.34584926 5.14267957 367.03515625 2.02734375 C371.48753066 -0.49471091 375.47163166 -0.23272593 380.5 -0.125 C381.42876953 -0.13208984 382.35753906 -0.13917969 383.31445312 -0.14648438 C389.49590128 -0.08928948 394.1719018 0.6212534 398.875 5 C400.6169657 8.39224899 400.74650022 11.52050265 401.0625 15.3125 C401.99191406 15.27769531 402.92132813 15.24289063 403.87890625 15.20703125 C418.32440619 14.89070643 418.32440619 14.89070643 423.5859375 19.70703125 C426.41353351 22.79239153 427.0625 24.03316633 427.0625 28.3125 C428.22007812 28.26609375 429.37765625 28.2196875 430.5703125 28.171875 C432.10934906 28.13433752 433.6484137 28.09793949 435.1875 28.0625 C435.94804688 28.02898438 436.70859375 27.99546875 437.4921875 27.9609375 C442.85345335 27.86850188 445.83308837 28.7231477 450.0625 32.3125 C453.23177205 35.68170235 453.45642958 38.1501574 453.51416016 42.71411133 C453.54771103 44.66182182 453.54771103 44.66182182 453.5819397 46.64888 C453.58984625 48.06409012 453.59635251 49.47930864 453.6015625 50.89453125 C453.61374964 52.3517837 453.62623586 53.80903368 453.63900757 55.26628113 C453.66146906 58.32023735 453.6710359 61.37394435 453.67333984 64.42797852 C453.67861704 68.32914862 453.72991201 72.2282271 453.79285622 76.12883472 C453.83385708 79.1393385 453.84298303 82.1493431 453.84345627 85.16010094 C453.84882065 86.59739714 453.86559943 88.03470023 453.89430618 89.47171974 C454.09926162 100.66646183 454.09926162 100.66646183 451.5211792 104.75961304 C447.90607238 108.45856184 445.40998662 110.27888007 440.1484375 110.41015625 C438.57809537 110.40350226 437.00776881 110.39156939 435.4375 110.375 C434.63570312 110.37048828 433.83390625 110.36597656 433.0078125 110.36132812 C431.02600994 110.34953168 429.04424567 110.33159605 427.0625 110.3125 C426.88847656 111.45138672 426.88847656 111.45138672 426.7109375 112.61328125 C425.5358397 117.50480282 422.14373176 120.59167882 418.0625 123.3125 C416.16137695 123.53955078 416.16137695 123.53955078 414.05078125 123.5078125 C412.91479492 123.49814453 412.91479492 123.49814453 411.75585938 123.48828125 C410.57733398 123.46314453 410.57733398 123.46314453 409.375 123.4375 C408.57771484 123.42847656 407.78042969 123.41945313 406.95898438 123.41015625 C404.993361 123.38661585 403.02789225 123.35074547 401.0625 123.3125 C401.04832031 123.91578125 401.03414063 124.5190625 401.01953125 125.140625 C400.62694425 131.71910989 400.62694425 131.71910989 397.625 134.875 C395.0625 136.3125 395.0625 136.3125 393.0625 136.3125 C393.0625 136.9725 393.0625 137.6325 393.0625 138.3125 C387.38743162 141.15003419 378.22292136 140.11389995 372.0625 139.3125 C368.62916897 137.89982734 366.26563038 136.31079996 364.0625 133.3125 C363.03637402 130.23412206 362.94159781 128.14675704 362.94897461 124.9230957 C362.94905014 123.82218094 362.94912567 122.72126617 362.94920349 121.58699036 C362.95436478 120.39941635 362.95952606 119.21184235 362.96484375 117.98828125 C362.96696617 116.16347481 362.96696617 116.16347481 362.96913147 114.30180359 C362.97473688 110.4095109 362.98729033 106.51727536 363 102.625 C363.0050143 99.98893312 363.00957733 97.35286534 363.01367188 94.71679688 C363.02470807 88.24867584 363.04197638 81.78059761 363.0625 75.3125 C353.1625 75.8075 353.1625 75.8075 343.0625 76.3125 C342.69125 78.6946875 342.69125 78.6946875 342.3125 81.125 C341.41652488 86.0844116 339.96043238 90.50083655 338.1484375 95.1875 C335.98116899 101.42424391 334.57708335 107.89163337 333.0625 114.3125 C332.4025 114.3125 331.7425 114.3125 331.0625 114.3125 C330.93294922 115.20775391 330.93294922 115.20775391 330.80078125 116.12109375 C328.73490369 128.8764662 324.71430181 141.28018582 320.0625 153.3125 C319.4025 153.3125 318.7425 153.3125 318.0625 153.3125 C317.89814453 154.18261719 317.89814453 154.18261719 317.73046875 155.0703125 C313.77143439 174.57579885 295.01916728 190.44370722 281.76757812 204.49853516 C277.16019407 209.40014792 272.61297085 214.35810386 268.0625 219.3125 C267.35770508 220.07916992 267.35770508 220.07916992 266.63867188 220.86132812 C265.27792572 222.34319772 263.92016252 223.82780473 262.5625 225.3125 C261.7890625 226.158125 261.015625 227.00375 260.21875 227.875 C259.15140625 229.0815625 259.15140625 229.0815625 258.0625 230.3125 C257.04047485 231.44921143 257.04047485 231.44921143 255.99780273 232.60888672 C248.87617179 242.55778808 250.88230057 263.30529472 250 275.1875 C249.74002083 278.64906112 249.47868559 282.11050993 249.21522522 285.57180786 C249.05270097 287.71086036 248.89228796 289.8500747 248.73435974 291.98947144 C248.32199733 297.45720454 247.79640239 302.87831028 247.0625 308.3125 C246.4025 308.3125 245.7425 308.3125 245.0625 308.3125 C245.44774268 325.91064328 246.93358588 343.29771061 248.90151978 360.77923584 C249.71786069 368.03388387 250.49844312 375.29245255 251.28125 382.55078125 C251.35927668 383.2721376 251.43730335 383.99349396 251.51769447 384.73670959 C252.95494934 398.04059895 254.23791673 411.35448961 255.375 424.6875 C255.45413635 425.61294617 255.53327271 426.53839233 255.61480713 427.49188232 C256.69312491 440.19053384 257.6738063 452.89686749 258.46801758 465.61669922 C258.53400146 466.63650879 258.59998535 467.65631836 258.66796875 468.70703125 C258.74760864 470.01957886 258.74760864 470.01957886 258.82885742 471.35864258 C258.85858115 473.31463013 258.85858115 473.31463013 260.0625 474.3125 C260.16916909 476.10724975 260.21957234 477.90540379 260.24609375 479.703125 C260.28798828 480.80527344 260.32988281 481.90742187 260.37304688 483.04296875 C260.45708297 485.37270791 260.50706182 487.70394656 260.52148438 490.03515625 C260.68379496 493.3947898 260.9273431 496.14195793 262.0625 499.3125 C265.10724104 501.83646664 268.37750278 502.97582397 272.0625 504.3125 C280.4079401 509.9084734 286.61229693 516.36755811 289.0625 526.3125 C289.45048751 530.5803626 289.42229306 534.23312083 288.0625 538.3125 C287.4025 538.3125 286.7425 538.3125 286.0625 538.3125 C285.629375 539.240625 285.629375 539.240625 285.1875 540.1875 C284.0625 542.3125 284.0625 542.3125 282.0625 544.3125 C279.70515442 544.56646729 279.70515442 544.56646729 276.71411133 544.57128906 C275.59567337 544.57759338 274.47723541 544.58389771 273.3249054 544.59039307 C272.11038193 544.5863446 270.89585846 544.58229614 269.64453125 544.578125 C268.3987883 544.58003845 267.15304535 544.5819519 265.86955261 544.58392334 C263.22726692 544.58528699 260.58534864 544.58257796 257.94311523 544.57324219 C255.23990076 544.56415248 252.53695442 544.56407542 249.83374023 544.57324219 C245.93725591 544.58563392 242.04102649 544.58408709 238.14453125 544.578125 C236.94012894 544.58217346 235.73572662 544.58622192 234.49482727 544.59039307 C221.03219971 544.51556251 221.03219971 544.51556251 215.92895508 540.72973633 C211.29017207 535.42485766 209.71262803 530.91983396 208.75 524 C208.60755859 523.12666016 208.46511719 522.25332031 208.31835938 521.35351562 C208.02859281 519.57164791 207.75041912 517.78785934 207.48339844 516.00244141 C207.06724242 513.34280857 206.57064405 510.70907346 206.05859375 508.06640625 C204.80771879 501.2729338 204.12655983 494.43200464 203.4375 487.5625 C203.3034375 486.28761719 203.169375 485.01273438 203.03125 483.69921875 C202.43530916 477.86751194 201.99284313 472.1803949 202.0625 466.3125 C201.4025 466.3125 200.7425 466.3125 200.0625 466.3125 C199.02521368 463.20064103 198.73411638 460.56514259 198.44921875 457.30078125 C198.33747314 456.07858887 198.22572754 454.85639648 198.1105957 453.59716797 C197.99159912 452.28635254 197.87260254 450.97553711 197.75 449.625 C196.55315786 436.79694897 194.7527126 424.16360912 192.38208008 411.49365234 C192.0625 409.3125 192.0625 409.3125 192.0625 405.3125 C191.4025 405.3125 190.7425 405.3125 190.0625 405.3125 C190.00698975 405.96661865 189.95147949 406.6207373 189.89428711 407.29467773 C189.27747512 414.34102343 188.50063681 421.3564342 187.625 428.375 C187.44227539 429.8919043 187.44227539 429.8919043 187.25585938 431.43945312 C186.67761107 436.09240449 186.02830481 440.68413588 185.0625 445.2734375 C183.61663094 452.1784112 182.92567852 459.17923723 182.11914062 466.18164062 C181.99603516 467.21611328 181.87292969 468.25058594 181.74609375 469.31640625 C181.63837646 470.25299072 181.53065918 471.1895752 181.41967773 472.15454102 C181.0625 474.3125 181.0625 474.3125 180.0625 475.3125 C179.72818485 477.64662758 179.44381503 479.96951773 179.1875 482.3125 C178.51568622 488.11145073 177.64862294 493.82739028 176.5625 499.5625 C175.19154788 506.8249787 174.40620114 514.07847236 173.88476562 521.45019531 C173.22739232 529.45257631 170.96023755 535.54582328 165.0625 541.3125 C158.16367657 544.66838779 151.86460336 544.7799345 144.27734375 544.78125 C142.45475792 544.79267029 142.45475792 544.79267029 140.59535217 544.80432129 C138.03616382 544.81508968 135.47693164 544.81798873 132.91772461 544.81347656 C129.00885871 544.81250221 125.10194337 544.85420885 121.19335938 544.8984375 C118.70052491 544.90364344 116.20768365 544.90633271 113.71484375 544.90625 C112.55113754 544.92264526 111.38743134 544.93904053 110.1884613 544.95593262 C103.17699614 544.89633824 99.16035302 544.30213647 94.0625 539.3125 C91.74245749 532.18758231 92.75379651 524.92990699 96.0625 518.3125 C96.7225 518.3125 97.3825 518.3125 98.0625 518.3125 C98.26875 517.425625 98.475 516.53875 98.6875 515.625 C100.39957059 511.50046632 102.5091775 509.96007363 106.0625 507.3125 C106.825625 506.61125 107.58875 505.91 108.375 505.1875 C110.91802894 503.41329376 112.81411556 502.62623137 115.73046875 501.6953125 C116.54153076 501.43379395 117.35259277 501.17227539 118.18823242 500.90283203 C118.80674072 500.70802246 119.42524902 500.51321289 120.0625 500.3125 C122.73413742 480.395486 124.59348109 460.48227192 126 440.4375 C127.45720674 419.67478473 129.23632963 398.96634438 131.31225586 378.25634766 C131.51311791 376.24774732 131.71372441 374.23912141 131.9140625 372.23046875 C132.01028397 371.26606873 132.10650543 370.3016687 132.2056427 369.30804443 C133.31721206 357.98953942 134.19676562 346.65206317 135.0625 335.3125 C135.7225 335.3125 136.3825 335.3125 137.0625 335.3125 C137.0625 326.4025 137.0625 317.4925 137.0625 308.3125 C136.4025 308.3125 135.7425 308.3125 135.0625 308.3125 C134.36503604 301.05780527 133.67175505 293.80271899 132.98120117 286.54736328 C132.74645723 284.08601109 132.51080202 281.62474561 132.27416992 279.16357422 C131.93160426 275.59886345 131.59183096 272.0339036 131.25390625 268.46875 C131.14430573 267.31552246 131.0347052 266.16229492 130.92178345 264.97412109 C130.21948272 257.43115751 129.68497098 249.90347996 129.38647461 242.33398438 C128.73354461 236.2445634 126.21561582 233.06478968 122.0625 228.6875 C121.06994278 227.63185792 120.07776383 226.57586007 119.0859375 225.51953125 C118.58288086 224.9879541 118.07982422 224.45637695 117.56152344 223.90869141 C115.23367676 221.42995173 112.96397784 218.90100169 110.6875 216.375 C108.39138086 213.82930269 106.08853331 211.3381963 103.6484375 208.9296875 C100.62485626 205.86956751 97.84387464 202.65405716 95.0625 199.375 C94.55460938 198.78009766 94.04671875 198.18519531 93.5234375 197.57226562 C91.10531763 194.73562501 88.70602509 191.88538553 86.33203125 189.01171875 C84.13769197 186.31078559 84.13769197 186.31078559 81.75 184.0625 C70.95889726 173.02044138 70.95889726 173.02044138 70.0625 167.3125 C69.4025 167.3125 68.7425 167.3125 68.0625 167.3125 C67.38989649 165.54391309 66.72461605 163.77253984 66.0625 162 C65.69125 161.01386719 65.32 160.02773437 64.9375 159.01171875 C64.0625 156.3125 64.0625 156.3125 64.0625 153.3125 C63.4025 153.3125 62.7425 153.3125 62.0625 153.3125 C61.80855469 152.45527344 61.55460938 151.59804687 61.29296875 150.71484375 C59.1843732 143.49217481 59.1843732 143.49217481 56.4375 136.5 C53.40000589 129.45853638 52.36118609 121.82830036 51.0625 114.3125 C50.4025 114.3125 49.7425 114.3125 49.0625 114.3125 C48.74796875 113.06855469 48.4334375 111.82460937 48.109375 110.54296875 C45.07169271 98.54991722 45.07169271 98.54991722 40.859375 86.9296875 C39.71802936 83.18115036 39.49521971 79.2069774 39.0625 75.3125 C32.4625 75.3125 25.8625 75.3125 19.0625 75.3125 C19.07297363 76.95766602 19.08344727 78.60283203 19.09423828 80.29785156 C19.13041041 86.39564848 19.15339044 92.49343589 19.17236328 98.59130859 C19.18242719 101.23162429 19.19607952 103.87192883 19.21337891 106.51220703 C19.23760971 110.30504103 19.24897923 114.09772779 19.2578125 117.890625 C19.26813507 119.07303772 19.27845764 120.25545044 19.28909302 121.47369385 C19.28924408 122.57453308 19.28939514 123.67537231 19.28955078 124.80957031 C19.293992 125.77775696 19.29843323 126.7459436 19.30300903 127.74346924 C19.04940976 130.45232528 18.56085342 132.05274174 17.0625 134.3125 C14.4375 135.5625 14.4375 135.5625 12.0625 136.3125 C12.0625 136.9725 12.0625 137.6325 12.0625 138.3125 C5.36084467 140.54638511 -4.9258122 140.97660753 -11.57421875 138.21875 C-15.49621628 135.01989735 -17.41271949 131.06622748 -18.9375 126.3125 C-18.9375 125.3225 -18.9375 124.3325 -18.9375 123.3125 C-20.10667969 123.35890625 -21.27585938 123.4053125 -22.48046875 123.453125 C-24.0286202 123.49065594 -25.57679939 123.52705469 -27.125 123.5625 C-27.89392578 123.59601563 -28.66285156 123.62953125 -29.45507812 123.6640625 C-33.38642354 123.73155341 -35.419682 123.6312643 -38.84375 121.5234375 C-41.73666839 118.46860203 -44.9375 114.7050725 -44.9375 110.3125 C-46.071875 110.39371094 -47.20625 110.47492188 -48.375 110.55859375 C-62.08884666 111.24246243 -62.08884666 111.24246243 -66.9375 106.9375 C-70.47088932 103.10440355 -71.06405045 100.79146072 -71.08276367 95.59692383 C-71.08914352 94.39840286 -71.09552338 93.1998819 -71.10209656 91.96504211 C-71.10320938 90.66302353 -71.1043222 89.36100494 -71.10546875 88.01953125 C-71.10868246 86.67152369 -71.11204662 85.32351647 -71.11555481 83.97550964 C-71.12154939 81.14504184 -71.12339455 78.31460457 -71.12280273 75.48413086 C-71.12270148 71.87068308 -71.13631357 68.25743345 -71.15357494 64.64403248 C-71.16474153 61.85663469 -71.16672046 59.06928394 -71.16619301 56.28186607 C-71.16793646 54.30612607 -71.17875417 52.33040076 -71.18974304 50.35469055 C-71.15217452 35.52717452 -71.15217452 35.52717452 -66.5625 30.9375 C-61.88626721 28.04268923 -57.58138576 28.18372352 -52.1875 28.25 C-51.49011719 28.25451172 -50.79273437 28.25902344 -50.07421875 28.26367188 C-48.36194197 28.2753998 -46.64970967 28.29333347 -44.9375 28.3125 C-44.83050781 27.39082031 -44.72351563 26.46914063 -44.61328125 25.51953125 C-43.93055098 22.2795223 -43.47024786 21.20275178 -41.125 19 C-40.62355469 18.50886719 -40.12210938 18.01773438 -39.60546875 17.51171875 C-35.59261421 14.62659851 -30.93717813 15.19163912 -26.1875 15.25 C-25.49011719 15.25451172 -24.79273438 15.25902344 -24.07421875 15.26367188 C-22.36194197 15.2753998 -20.64970967 15.29333347 -18.9375 15.3125 C-18.855 14.095625 -18.7725 12.87875 -18.6875 11.625 C-18.16095753 7.49310426 -17.02813565 5.23143367 -13.9375 2.3125 C-9.39323673 -0.11735935 -5.02410175 -0.02050654 0 0 Z " fill="#0A0A0A" transform="translate(107.9375,33.6875)"/>
<path d="M0 0 C0.89847656 -0.03738281 1.79695313 -0.07476562 2.72265625 -0.11328125 C7.17006031 -0.17240479 9.45486137 -0.07910153 13.21484375 2.46875 C16.67119016 7.72748564 16.15199552 13.33179509 15.125 19.375 C13.7741134 21.59014259 12.34560421 23.1013278 10.48046875 24.88671875 C8.82163376 26.45608921 8.82163376 26.45608921 8.4375 29.625 C9.57298341 35.81854589 12.25940932 41.45160018 15.640625 46.75 C17.4490889 49.94812564 18.4932713 53.25736053 19.5625 56.75 C21.25421289 62.05913978 23.17243535 66.65089655 26.125 71.375 C28.02635675 75.16958805 29.125 78.03302589 29.125 82.375 C29.785 82.375 30.445 82.375 31.125 82.375 C31.5065625 83.25542969 31.888125 84.13585937 32.28125 85.04296875 C34.32072676 88.72871807 36.48278667 90.89671843 39.625 93.6875 C40.4152356 94.39362427 40.4152356 94.39362427 41.22143555 95.11401367 C45.59511742 98.99105753 50.10017021 102.70492841 54.6484375 106.375 C58.57431275 109.54542292 62.48994143 112.71653568 66.03515625 116.3125 C68.1374999 118.38733635 70.30720233 120.23286862 72.625 122.0625 C73.3778125 122.66449219 74.130625 123.26648438 74.90625 123.88671875 C82.52370762 128.99631621 94.41110304 126.26693084 102.9609375 125.3984375 C106.235753 125.37417961 108.21052111 125.94504969 111.125 127.375 C111.125 128.035 111.125 128.695 111.125 129.375 C125.69747416 130.05695278 125.69747416 130.05695278 139.55859375 126.19921875 C144.64837517 124.56460097 149.90911001 125.77145609 155.125 126.375 C161.76270273 126.71339269 167.84433751 126.68892829 174.125 124.375 C175.47989021 122.72580987 176.81088975 121.05686498 178.125 119.375 C179.77428556 117.93421407 181.46486347 116.53973162 183.1875 115.1875 C187.12553998 112.03393014 190.91676627 108.79593872 194.625 105.375 C199.17653964 101.18262059 203.87925489 97.24273763 208.71484375 93.3828125 C212.69219566 90.06942696 215.36642641 87.55528667 217.125 82.625 C218.3483439 79.3499061 219.63874972 76.22814869 221.25 73.125 C222.88465781 69.95865496 224.09864823 66.79617255 225.125 63.375 C225.785 63.375 226.445 63.375 227.125 63.375 C227.27195312 62.80394531 227.41890625 62.23289063 227.5703125 61.64453125 C229.3407373 55.24454735 231.83167938 49.4263393 234.72265625 43.453125 C236.08136704 40.47077374 237.14713692 37.50041883 238.125 34.375 C238.785 34.375 239.445 34.375 240.125 34.375 C240.7353518 29.74907035 240.7353518 29.74907035 238.82421875 25.6796875 C237.75718199 24.66612991 236.66114317 23.68201411 235.53515625 22.734375 C233.35296773 20.63076945 233.13992306 18.57646137 232.921875 15.6328125 C232.89867187 14.08207031 232.89867187 14.08207031 232.875 12.5 C232.83632813 10.95699219 232.83632813 10.95699219 232.796875 9.3828125 C233.2001408 5.68620932 234.47728721 3.02271279 237.125 0.375 C240.69888283 0.03936431 244.28738765 0.0499541 247.875 0 C248.87789063 -0.03738281 249.88078125 -0.07476562 250.9140625 -0.11328125 C255.6598556 -0.16992865 258.2929502 -0.19305375 262.2890625 2.53515625 C265.59518872 7.64910043 264.89627288 12.50098573 264.125 18.375 C262.94463598 23.11572732 261.45309075 27.68804331 259.83935547 32.29589844 C258.64375202 35.77565201 257.57997965 39.2955264 256.5 42.8125 C255.19352422 47.01671083 253.85975547 51.20829176 252.4375 55.375 C251.48976437 58.1646625 250.69900039 60.95016995 250 63.8125 C249.125 67.375 249.125 67.375 248.125 69.375 C247.465 69.375 246.805 69.375 246.125 69.375 C245.99544922 70.32246094 245.99544922 70.32246094 245.86328125 71.2890625 C244.59251279 79.38001031 242.15159188 86.77745558 239.125 94.375 C238.77824219 95.2515625 238.43148437 96.128125 238.07421875 97.03125 C234.81190458 104.33883375 229.67500088 110.01980688 224.40283203 115.93847656 C222.80817457 117.73117135 221.25050147 119.55469853 219.6875 121.375 C216.04497481 125.51782383 212.2827817 129.55077784 208.52978516 133.59326172 C205.81874935 136.51852802 203.15287623 139.46645098 200.5625 142.5 C197.76010466 145.75351264 194.75282241 148.7434646 191.6875 151.75 C181.08868918 162.22921405 175.24350873 170.84836559 173.6875 185.75 C173.57043701 186.82000244 173.45337402 187.89000488 173.33276367 188.99243164 C172.13140609 200.47524689 171.16559867 211.98217987 170.21286011 223.487854 C170.03159113 225.67646149 169.84831475 227.8649038 169.66287231 230.05316162 C168.11987184 248.4044167 167.62616849 266.36744785 168.9375 284.75 C169.02660645 286.05251709 169.11571289 287.35503418 169.20751953 288.69702148 C169.50007115 292.92401493 169.81097953 297.14955478 170.125 301.375 C170.17827454 302.09830505 170.23154907 302.82161011 170.28643799 303.5668335 C171.64775361 322.00998842 173.25802845 340.41982492 175.1875 358.8125 C175.26949646 359.5988382 175.35149292 360.38517639 175.43597412 361.19534302 C176.22687625 368.7347143 177.07991003 376.23693457 178.23828125 383.73046875 C179.15473875 389.94548938 179.36279258 395.97699723 179.25 402.25 C179.24097656 403.23613281 179.23195313 404.22226562 179.22265625 405.23828125 C179.19955734 407.61746932 179.16700748 409.99608419 179.125 412.375 C179.785 412.375 180.445 412.375 181.125 412.375 C181.18034912 413.14577881 181.23569824 413.91655762 181.29272461 414.71069336 C181.54752532 418.24476064 181.80499311 421.77862891 182.0625 425.3125 C182.19301758 427.13104492 182.19301758 427.13104492 182.32617188 428.98632812 C182.57963564 432.45033297 182.85117236 435.91255561 183.125 439.375 C183.18574707 440.3045752 183.24649414 441.23415039 183.30908203 442.19189453 C183.48769275 444.85778867 183.48769275 444.85778867 184.125 448.375 C186.99669653 450.28946435 188.12839079 450.67099399 191.375 451.1875 C196.11744568 452.17776598 199.68851272 453.91881938 203.125 457.375 C204.375 460.125 204.375 460.125 205.125 462.375 C206.115 462.705 207.105 463.035 208.125 463.375 C209.6033226 466.33164519 209.18532783 469.11729737 209.125 472.375 C202.07759884 472.47637004 195.03038548 472.54645284 187.98242188 472.59472656 C185.58456394 472.61484936 183.18675512 472.64215059 180.7890625 472.67675781 C177.34362677 472.7252449 173.89883948 472.74796241 170.453125 472.765625 C168.84355927 472.79659271 168.84355927 472.79659271 167.20147705 472.82818604 C165.70037384 472.82863922 165.70037384 472.82863922 164.16894531 472.82910156 C163.28958313 472.83798401 162.41022095 472.84686646 161.50421143 472.85601807 C158.32236711 472.21272736 157.13267587 470.87024212 155.125 468.375 C154.48730469 465.62597656 154.48730469 465.62597656 154.296875 462.515625 C154.21953125 461.40058594 154.1421875 460.28554688 154.0625 459.13671875 C154.000625 457.97785156 153.93875 456.81898438 153.875 455.625 C153.79765625 454.45066406 153.7203125 453.27632812 153.640625 452.06640625 C153.45223408 449.1698958 153.28101917 446.27340482 153.125 443.375 C152.465 443.375 151.805 443.375 151.125 443.375 C149.71262523 435.57688825 148.64874917 427.77955293 147.82275391 419.90063477 C147.72428914 416.33591691 147.72428914 416.33591691 146.125 413.375 C145.80845453 411.13097468 145.55078429 408.8786795 145.3125 406.625 C144.54507181 399.60043783 143.60605685 392.61009285 142.60571289 385.61499023 C140.9753339 374.20233727 139.4881719 362.90570775 139.125 351.375 C138.465 351.375 137.805 351.375 137.125 351.375 C136.98400879 350.24594238 136.84301758 349.11688477 136.69775391 347.95361328 C136.16840383 343.72251283 135.63421136 339.49203492 135.09863281 335.26171875 C134.86849171 333.4386402 134.63962442 331.61540033 134.41210938 329.79199219 C133.39439778 313.87706325 133.39439778 313.87706325 128.125 299.375 C126.14752878 299.01202064 126.14752878 299.01202064 124 299.1875 C122.081875 299.2803125 122.081875 299.2803125 120.125 299.375 C117.74328969 303.17773074 117.46989055 307.26503197 117 311.625 C116.91363281 312.37007813 116.82726562 313.11515625 116.73828125 313.8828125 C116.52713133 315.71277846 116.32515455 317.54379879 116.125 319.375 C115.465 319.375 114.805 319.375 114.125 319.375 C114.0825415 320.36943115 114.04008301 321.3638623 113.99633789 322.38842773 C113.44796839 333.83365399 112.12672867 345.09167157 110.5625 356.4375 C110.32559296 358.19067708 110.08926206 359.94393211 109.85351562 361.69726562 C109.28394825 365.92410074 108.70671145 370.14981981 108.125 374.375 C107.465 374.375 106.805 374.375 106.125 374.375 C106.08761719 375.51195312 106.05023438 376.64890625 106.01171875 377.8203125 C105.94593889 379.38023487 105.87949606 380.94012939 105.8125 382.5 C105.78994141 383.24121094 105.76738281 383.98242188 105.74414062 384.74609375 C105.52040438 389.58693246 104.80552148 394.11194218 103.734375 398.83984375 C101.98128237 406.63276915 100.96422802 414.44295714 99.99014282 422.36187744 C98.51907304 434.27373036 96.97869371 446.1704658 94.9375 458 C94.78289307 458.91579834 94.62828613 459.83159668 94.46899414 460.77514648 C94.32067139 461.60473877 94.17234863 462.43433105 94.01953125 463.2890625 C93.89425049 463.9898291 93.76896973 464.6905957 93.63989258 465.41259766 C93.06168105 467.61632658 92.28481393 469.41451982 91.125 471.375 C88.66338983 472.60580509 87.06003007 472.49543977 84.30810547 472.48852539 C83.30721893 472.48844986 82.3063324 472.48837433 81.27511597 472.48829651 C80.19174957 472.48313522 79.10838318 472.47797394 77.9921875 472.47265625 C76.88521515 472.4712413 75.7782428 472.46982635 74.63772583 472.46836853 C71.09179007 472.46275772 67.54591677 472.45020337 64 472.4375 C61.60026133 472.43248639 59.20052167 472.42792325 56.80078125 472.42382812 C50.90883275 472.41278478 45.01692084 472.3960361 39.125 472.375 C39.24729452 470.92753277 39.38049252 469.48098387 39.51831055 468.03491211 C39.59131882 467.22928329 39.66432709 466.42365448 39.73954773 465.59361267 C40.28321997 462.4643066 41.59692035 461.02621764 43.9375 458.9375 C44.62457031 458.29941406 45.31164062 457.66132812 46.01953125 457.00390625 C49.64641097 454.19795292 51.44122809 453.375 56.125 453.375 C56.125 452.715 56.125 452.055 56.125 451.375 C58.765 451.045 61.405 450.715 64.125 450.375 C65.1049794 447.43506181 65.36211556 445.16655888 65.5546875 442.08984375 C65.6261499 441.01613525 65.6976123 439.94242676 65.77124023 438.83618164 C65.84673096 437.6733667 65.92222168 436.51055176 66 435.3125 C66.6329405 426.15279909 67.44114813 417.05011168 68.5625 407.9375 C69.93293099 396.72110273 70.91055555 385.49551439 71.81121826 374.23413086 C72.63501888 363.95132903 73.5742991 353.69399727 74.6875 343.4375 C75.87836279 332.43710551 76.72795601 321.44032701 77.42163086 310.39794922 C77.81879559 304.23243953 78.36078903 298.17504816 79.25 292.0625 C83.64754849 258.1397685 78.71994 222.01918803 75.09765625 188.21875 C74.98812119 187.16803818 74.98812119 187.16803818 74.87637329 186.09609985 C73.63751203 175.08690934 70.99646419 167.13732777 63.125 159.375 C60.9407744 157.05791572 58.78539925 154.71428386 56.625 152.375 C55.48191553 151.14830265 54.33868993 149.9217368 53.1953125 148.6953125 C50.37979111 145.66308231 47.64252386 142.57247136 44.9375 139.44140625 C42.49476595 136.65647886 40.00058905 133.92047037 37.5 131.1875 C37.04415527 130.68782715 36.58831055 130.1881543 36.11865234 129.67333984 C33.93329896 127.29126499 31.71513239 124.97044768 29.4140625 122.69921875 C26.88562881 120.13195246 25.12061836 117.36842755 23.125 114.375 C21.949375 113.199375 21.949375 113.199375 20.75 112 C15.44348854 106.69348854 11.66938568 101.78805125 10.125 94.375 C9.465 94.375 8.805 94.375 8.125 94.375 C7.28669027 91.60558394 6.45417966 88.83464931 5.625 86.0625 C5.38652344 85.27681641 5.14804688 84.49113281 4.90234375 83.68164062 C4.67675781 82.92431641 4.45117188 82.16699219 4.21875 81.38671875 C4.00927734 80.69022217 3.79980469 79.99372559 3.58398438 79.27612305 C3.125 77.375 3.125 77.375 3.125 74.375 C2.465 74.375 1.805 74.375 1.125 74.375 C0.40689542 72.22068626 -0.31033246 70.0661327 -1.0234375 67.91015625 C-1.533498 66.3916734 -2.05555278 64.87702378 -2.6015625 63.37109375 C-4.3830576 58.36920365 -5.59662591 53.30234279 -6.75 48.125 C-8.22032812 41.55633607 -10.24802591 35.47989574 -12.76953125 29.2265625 C-15.87142168 21.2252197 -17.99058703 11.41211198 -14.5625 3.25 C-10.88405996 -0.8371556 -5.10200661 0.07983225 0 0 Z " fill="#FBFBFB" transform="translate(174.875,93.625)"/>
<path d="M0 0 C64.02 0 128.04 0 194 0 C194.99 4.455 194.99 4.455 196 9 C197.29788956 11.02318078 198.62464661 13.02866014 200 15 C200 16.32 200 17.64 200 19 C199.34 19 198.68 19 198 19 C197.731875 20.175625 197.46375 21.35125 197.1875 22.5625 C196.18552881 26.60642688 194.7340076 30.2167107 193 34 C192.34 34 191.68 34 191 34 C190.938125 34.78375 190.87625 35.5675 190.8125 36.375 C189.90427714 40.42707122 188.31379605 43.49161152 186.390625 47.14453125 C184.86144975 50.28449503 183.68361316 53.46509893 182.5 56.75 C179.2353645 65.32217175 174.27139493 69.74650622 167.23828125 75.37109375 C163.51627486 78.36334054 159.91473483 81.49040173 156.3125 84.625 C155.66974121 85.18364746 155.02698242 85.74229492 154.36474609 86.31787109 C150.39865328 89.77016298 146.44418104 93.23546957 142.515625 96.73046875 C139.28390736 99.43744873 137.44738321 100.24485169 133.3125 100.125 C132.50425781 100.10695313 131.69601562 100.08890625 130.86328125 100.0703125 C130.24839844 100.04710937 129.63351562 100.02390625 129 100 C129.92955844 97.42583817 130.77065193 95.29002217 132.4765625 93.1328125 C134.14123423 90.80227208 134.81212879 88.87779039 135.5625 86.125 C136.31213568 83.42292336 137.06958358 80.81766055 138.0703125 78.1953125 C139.19017451 74.34637502 139.34268502 70.72376949 139.3125 66.75 C139.30831055 65.99783203 139.30412109 65.24566406 139.29980469 64.47070312 C139.18010357 58.55695845 138.25608429 53.4930748 136 48 C135.74476563 47.2575 135.48953125 46.515 135.2265625 45.75 C130.95180372 34.45522451 122.75371127 28.2448081 112.234375 23.27734375 C102.04747425 19.25425613 90.04092097 19.76239098 80 24 C69.83017158 28.58145736 62.0999022 36.00748107 58.02734375 46.5078125 C57.30174603 48.66098156 56.6221322 50.81495031 56 53 C55.34 53 54.68 53 54 53 C54 60.59 54 68.18 54 76 C54.66 76 55.32 76 56 76 C56.34611328 77.50240234 56.34611328 77.50240234 56.69921875 79.03515625 C58.44721457 86.27153188 60.13628522 92.1905629 65 98 C65 98.66 65 99.32 65 100 C59.9960288 100.6254964 56.21509958 100.6451046 52.0625 97.5625 C50.68468521 96.40252154 49.33202092 95.2122887 48 94 C47.22914063 93.31164062 46.45828125 92.62328125 45.6640625 91.9140625 C43.98047773 90.4004295 42.30361201 88.87929661 40.6328125 87.3515625 C38.00333968 85.00298292 35.30688967 82.77521304 32.5625 80.5625 C28.61586884 77.34776905 24.70257446 74.10532901 20.875 70.75 C19.50988281 69.56664062 19.50988281 69.56664062 18.1171875 68.359375 C15.83223062 65.81303929 15.29796015 64.36099051 15 61 C14.34 61 13.68 61 13 61 C12.32739649 59.23141309 11.66211605 57.46003984 11 55.6875 C10.62875 54.70136719 10.2575 53.71523437 9.875 52.69921875 C9 50 9 50 9 47 C8.01 46.67 7.02 46.34 6 46 C5.07281673 43.65512361 4.32141649 41.41269946 3.625 39 C1.34747685 31.63149133 -1.71842766 25.4223585 -6 19 C-5.77922985 15.02613725 -4.12918578 12.31047583 -1.9375 9.0390625 C-0.5605943 6.29952354 -0.5605943 6.29952354 0 0 Z " fill="#FBFBFB" transform="translate(202,109)"/>
<path d="M0 0 C5.40033211 4.47487197 7.94799862 10.39738378 10 17 C10 17.66 10 18.32 10 19 C10.66 19 11.32 19 12 19 C12.02903577 22.10414702 12.0468107 25.20825909 12.0625 28.3125 C12.07087891 29.19357422 12.07925781 30.07464844 12.08789062 30.98242188 C12.09111328 31.82998047 12.09433594 32.67753906 12.09765625 33.55078125 C12.10289307 34.33106689 12.10812988 35.11135254 12.11352539 35.9152832 C12 38 12 38 11 41 C10.34 41 9.68 41 9 41 C8.91105469 41.88558594 8.82210937 42.77117187 8.73046875 43.68359375 C7.08147752 51.17019028 0.17646286 57.70333018 -6 62 C-13.35923796 64.92509037 -21.97338648 65.40623872 -29.5 62.6875 C-35.07295979 60.00053724 -38.57554252 57.75740985 -42.25 52.6875 C-42.93578125 51.76324219 -43.6215625 50.83898437 -44.328125 49.88671875 C-46.09612093 46.83403418 -46.64992147 44.4853407 -47 41 C-47.66 41 -48.32 41 -49 41 C-49.81434143 38.14839609 -50.11881242 35.63373869 -50.09765625 32.671875 C-50.09282227 31.47304687 -50.09282227 31.47304687 -50.08789062 30.25 C-50.07951172 29.425 -50.07113281 28.6 -50.0625 27.75 C-50.05798828 26.90953125 -50.05347656 26.0690625 -50.04882812 25.203125 C-50.03707961 23.13538599 -50.01914522 21.06768376 -50 19 C-49.34 19 -48.68 19 -48 19 C-47.85304688 18.12988281 -47.85304688 18.12988281 -47.703125 17.2421875 C-45.84864421 7.55412407 -40.80365867 1.84603983 -33 -4 C-22.10306745 -9.12796826 -9.57321751 -6.58158704 0 0 Z " fill="#FAFAFA" transform="translate(318,147)"/>
<path d="M0 0 C1.79244141 0.01740234 1.79244141 0.01740234 3.62109375 0.03515625 C5.41740234 0.04869141 5.41740234 0.04869141 7.25 0.0625 C8.17683594 0.07410156 9.10367188 0.08570313 10.05859375 0.09765625 C11.24848591 2.47744057 11.18435858 3.921043 11.18557739 6.57666016 C11.18839722 7.51890442 11.19121704 8.46114868 11.19412231 9.4319458 C11.19209808 10.46889587 11.19007385 11.50584595 11.18798828 12.57421875 C11.1897406 13.66369812 11.19149292 14.75317749 11.19329834 15.87567139 C11.19771398 19.49134902 11.19477986 23.10697808 11.19140625 26.72265625 C11.19207937 29.22607431 11.19304947 31.72949232 11.19430542 34.23291016 C11.195782 39.48535664 11.19372391 44.7377904 11.18896484 49.99023438 C11.18352245 56.06711007 11.18528519 62.14395222 11.19079125 68.2208271 C11.19587154 74.06102 11.19533952 79.90120011 11.19240952 85.74139404 C11.19174054 88.22939051 11.19256765 90.71738783 11.19488907 93.2053833 C11.1974173 96.67731014 11.19357252 100.14917179 11.18798828 103.62109375 C11.19001251 104.65804382 11.19203674 105.6949939 11.19412231 106.7633667 C11.19130249 107.70561096 11.18848267 108.64785522 11.18557739 109.61865234 C11.18520037 110.44013763 11.18482334 111.26162292 11.18443489 112.10800171 C11.05859375 114.09765625 11.05859375 114.09765625 10.05859375 116.09765625 C5.76859375 116.09765625 1.47859375 116.09765625 -2.94140625 116.09765625 C-4.13665039 113.70716798 -4.06717794 112.24250597 -4.06838989 109.57395935 C-4.07120972 108.62185577 -4.07402954 107.6697522 -4.07693481 106.688797 C-4.07491058 105.64092514 -4.07288635 104.59305328 -4.07080078 103.51342773 C-4.0725531 102.4125885 -4.07430542 101.31174927 -4.07611084 100.17755127 C-4.0805262 96.52460166 -4.07759265 92.87170013 -4.07421875 89.21875 C-4.07489183 86.69051606 -4.07586189 84.16228218 -4.07711792 81.63404846 C-4.07859443 76.33032558 -4.07653643 71.02662007 -4.07177734 65.72290039 C-4.06633217 59.58352082 -4.06809975 53.44417445 -4.07360375 47.30479568 C-4.07868036 41.40693537 -4.07815354 35.50908541 -4.07522202 29.61122322 C-4.07455256 27.09728046 -4.07538181 24.58333685 -4.07770157 22.06939507 C-4.08022642 18.56373691 -4.07638999 15.05814353 -4.07080078 11.55249023 C-4.07282501 10.50259415 -4.07484924 9.45269806 -4.07693481 8.37098694 C-4.07411499 7.42170319 -4.07129517 6.47241943 -4.06838989 5.49436951 C-4.06801287 4.66458808 -4.06763584 3.83480665 -4.06724739 2.97988033 C-3.85597953 -0.18008349 -3.21380566 0.10670006 0 0 Z " fill="#EFEFEF" transform="translate(104.94140625,44.90234375)"/>
<path d="M0 0 C1.93166016 0.01740234 1.93166016 0.01740234 3.90234375 0.03515625 C5.19269531 0.04417969 6.48304688 0.05320313 7.8125 0.0625 C8.81152344 0.07410156 9.81054688 0.08570313 10.83984375 0.09765625 C10.86317361 14.94413574 10.88082335 29.79061282 10.89165592 44.6371069 C10.89681869 51.53013152 10.90386103 58.42314478 10.9152832 65.31616211 C10.92629075 71.9621179 10.93211997 78.60806494 10.93472099 85.25403023 C10.93657576 87.79588571 10.94019735 90.33774051 10.94557381 92.87959099 C10.95278042 96.42617087 10.95383485 99.97270115 10.95336914 103.51928711 C10.95696442 104.58167603 10.96055969 105.64406494 10.96426392 106.73864746 C10.96288925 107.69923569 10.96151459 108.65982391 10.96009827 109.64952087 C10.96102006 110.48927428 10.96194185 111.32902769 10.96289158 112.19422817 C10.83984375 114.09765625 10.83984375 114.09765625 9.83984375 115.09765625 C7.65344922 115.17024571 5.46483986 115.18139408 3.27734375 115.16015625 C2.07980469 115.15113281 0.88226563 115.14210938 -0.3515625 115.1328125 C-1.74181641 115.11541016 -1.74181641 115.11541016 -3.16015625 115.09765625 C-4.35085169 112.71626537 -4.28592212 111.26948257 -4.28713989 108.61192322 C-4.28995972 107.6682338 -4.29277954 106.72454437 -4.29568481 105.7522583 C-4.29366058 104.71373718 -4.29163635 103.67521606 -4.28955078 102.60522461 C-4.2913031 101.51413895 -4.29305542 100.42305328 -4.29486084 99.29890442 C-4.2992761 95.67842028 -4.29634269 92.05798466 -4.29296875 88.4375 C-4.29364183 85.93168631 -4.2946119 83.42587267 -4.29586792 80.9200592 C-4.29734441 75.66341655 -4.29528648 70.40678663 -4.29052734 65.15014648 C-4.28508215 59.06529839 -4.28684977 52.98048378 -4.29235375 46.8956365 C-4.29743039 41.05010082 -4.29690353 35.20457792 -4.29397202 29.35904121 C-4.29330257 26.86742714 -4.29413179 24.37581222 -4.29645157 21.88419914 C-4.29897645 18.4096738 -4.29513995 14.93521381 -4.28955078 11.46069336 C-4.29157501 10.42014801 -4.29359924 9.37960266 -4.29568481 8.30752563 C-4.29286499 7.36665604 -4.29004517 6.42578644 -4.28713989 5.45640564 C-4.28676287 4.63399856 -4.28638584 3.81159147 -4.28599739 2.96426296 C-4.0667728 -0.28750426 -3.3282409 0.10285046 0 0 Z " fill="#FDFDFD" transform="translate(486.16015625,45.90234375)"/>
<path d="M0 0 C1.97909398 -0.02686553 3.95828971 -0.04633375 5.9375 -0.0625 C7.03964844 -0.07410156 8.14179687 -0.08570313 9.27734375 -0.09765625 C12 0 12 0 13 1 C13.09507821 3.58639038 13.12556376 6.1459856 13.11352539 8.73266602 C13.11367142 9.5423584 13.11381744 10.35205078 13.1139679 11.1862793 C13.11326854 13.87551508 13.1054751 16.56468249 13.09765625 19.25390625 C13.09579215 21.11335716 13.09436821 22.97280856 13.09336853 24.83226013 C13.08954271 29.73629096 13.07971188 34.64029236 13.06866455 39.54431152 C13.05845181 44.54451092 13.05387121 49.54471506 13.04882812 54.54492188 C13.03808967 64.36329421 13.02101248 74.18164466 13 84 C10.85423363 84.02685938 8.70837355 84.04633088 6.5625 84.0625 C5.36753906 84.07410156 4.17257813 84.08570313 2.94140625 84.09765625 C0 84 0 84 -1 83 C-1.10036005 80.48524626 -1.1361771 77.99793752 -1.12939453 75.48266602 C-1.13114685 74.69569336 -1.13289917 73.9087207 -1.13470459 73.09790039 C-1.13912411 70.48321358 -1.13618449 67.86859381 -1.1328125 65.25390625 C-1.13348558 63.44408658 -1.13445564 61.63426699 -1.13571167 59.82444763 C-1.13718883 56.0254531 -1.13503375 52.22648204 -1.13037109 48.42749023 C-1.12467785 43.55021322 -1.12795013 38.67299127 -1.13394356 33.79571629 C-1.13755214 30.05632612 -1.13640914 26.31694907 -1.13381577 22.57755852 C-1.13314711 20.77896048 -1.13397279 18.98036126 -1.13629532 17.1817646 C-1.13882624 14.6700537 -1.13497481 12.1584327 -1.12939453 9.64672852 C-1.13141876 8.89808029 -1.13344299 8.14943207 -1.13552856 7.37809753 C-1.11426347 2.22852694 -1.11426347 2.22852694 0 0 Z " fill="#F4F4F4" transform="translate(76,61)"/>
<path d="M0 0 C1.093125 0.00257812 2.18625 0.00515625 3.3125 0.0078125 C4.405625 0.00523438 5.49875 0.00265625 6.625 0 C9.3125 0.1328125 9.3125 0.1328125 10.3125 1.1328125 C10.41287731 3.68332724 10.44867487 6.20678429 10.44189453 8.7578125 C10.44364685 9.55614502 10.44539917 10.35447754 10.44720459 11.17700195 C10.45162367 13.8289606 10.44868492 16.48085312 10.4453125 19.1328125 C10.44598552 20.96744805 10.44695553 22.80208351 10.44821167 24.63671875 C10.44968872 28.48698778 10.44753386 32.33723366 10.44287109 36.1875 C10.4371738 41.13437747 10.44045277 46.08120069 10.44644356 51.02807617 C10.45004898 54.81803805 10.44891067 58.60798696 10.44631577 62.39794922 C10.44564644 64.22249355 10.4464751 66.04703905 10.44879532 67.87158203 C10.45132154 70.41702411 10.4474817 72.96237709 10.44189453 75.5078125 C10.44391876 76.26940674 10.44594299 77.03100098 10.44802856 77.81567383 C10.42676258 83.01854992 10.42676258 83.01854992 9.3125 84.1328125 C7.502215 84.23160815 5.68797273 84.26252764 3.875 84.2578125 C2.39193359 84.26167969 2.39193359 84.26167969 0.87890625 84.265625 C-1.6875 84.1328125 -1.6875 84.1328125 -3.6875 83.1328125 C-3.71062328 72.45861552 -3.72841501 61.78442444 -3.73931217 51.11020756 C-3.74454103 46.15427328 -3.75163874 41.19835608 -3.76293945 36.24243164 C-3.77376822 31.46382414 -3.77977681 26.68523312 -3.78237724 21.9066143 C-3.78423151 20.07927631 -3.78785216 18.25193926 -3.79323006 16.42460823 C-3.80044036 13.87427921 -3.80149095 11.32401913 -3.80102539 8.77368164 C-3.80462067 8.01051636 -3.80821594 7.24735107 -3.81192017 6.46105957 C-3.79944622 0.18776333 -3.79944622 0.18776333 0 0 Z " fill="#F4F4F4" transform="translate(512.6875,60.8671875)"/>
<path d="M0 0 C1.09570312 0.00902344 2.19140625 0.01804687 3.3203125 0.02734375 C4.16335937 0.03894531 5.00640625 0.05054687 5.875 0.0625 C5.89812851 7.60748233 5.91591769 15.15246101 5.92681217 22.69747066 C5.93203989 26.20058885 5.9391355 29.70368285 5.95043945 33.20678711 C5.96334206 37.23030841 5.96822912 41.25380414 5.97265625 45.27734375 C5.97781754 46.54086166 5.98297882 47.80437958 5.98829651 49.10618591 C5.98837204 50.267314 5.98844757 51.42844208 5.98852539 52.62475586 C5.990746 53.65289902 5.99296661 54.68104218 5.99525452 55.74034119 C5.875 58.0625 5.875 58.0625 4.875 59.0625 C2.85535801 59.13494053 0.83332876 59.14627188 -1.1875 59.125 C-2.84458984 59.11146484 -2.84458984 59.11146484 -4.53515625 59.09765625 C-5.38980469 59.08605469 -6.24445312 59.07445312 -7.125 59.0625 C-8.42163922 56.46922157 -8.24503569 54.59841932 -8.23852539 51.69482422 C-8.23844986 50.57381317 -8.23837433 49.45280212 -8.23829651 48.29782104 C-8.23313522 47.08321198 -8.22797394 45.86860291 -8.22265625 44.6171875 C-8.2212413 43.37703888 -8.21982635 42.13689026 -8.21836853 40.85916138 C-8.21371096 37.56131867 -8.20472439 34.26352454 -8.19366455 30.96569824 C-8.18343731 27.60083613 -8.17886809 24.23596692 -8.17382812 20.87109375 C-8.16278269 14.26821007 -8.14603247 7.66535901 -8.125 1.0625 C-5.36047967 -0.31976016 -3.0788637 -0.03275387 0 0 Z " fill="#F5F5F5" transform="translate(57.125,73.9375)"/>
<path d="M0 0 C2.14576637 -0.02685938 4.29162645 -0.04633088 6.4375 -0.0625 C7.63246094 -0.07410156 8.82742188 -0.08570312 10.05859375 -0.09765625 C13 0 13 0 14 1 C14.09887792 2.74382535 14.12799032 4.49165543 14.12939453 6.23828125 C14.13254669 7.35614014 14.13569885 8.47399902 14.13894653 9.62573242 C14.1369223 10.84236572 14.13489807 12.05899902 14.1328125 13.3125 C14.13376923 14.55169189 14.13472595 15.79088379 14.13571167 17.06762695 C14.13639374 19.69388281 14.13503538 22.32004633 14.13037109 24.94628906 C14.12467381 28.31928714 14.12795302 31.69220565 14.13394356 35.06520081 C14.1384177 38.27263677 14.13528882 41.480063 14.1328125 44.6875 C14.13483673 45.9041333 14.13686096 47.1207666 14.13894653 48.37426758 C14.13579437 49.49212646 14.13264221 50.60998535 14.12939453 51.76171875 C14.12859894 52.75131592 14.12780334 53.74091309 14.12698364 54.76049805 C14 57 14 57 13 58 C11.00200428 58.09873816 9.00042842 58.12971799 7 58.125 C5.906875 58.12757813 4.81375 58.13015625 3.6875 58.1328125 C1 58 1 58 0 57 C-0.09370624 55.22008076 -0.11744271 53.43643261 -0.11352539 51.65405273 C-0.11344986 50.5129454 -0.11337433 49.37183807 -0.11329651 48.19615173 C-0.10813522 46.9545076 -0.10297394 45.71286346 -0.09765625 44.43359375 C-0.0962413 43.16983414 -0.09482635 41.90607452 -0.09336853 40.60401917 C-0.08870582 37.23875111 -0.0797148 33.8735501 -0.06866455 30.50830078 C-0.05844846 27.0765033 -0.05387049 23.64469891 -0.04882812 20.21289062 C-0.0377738 13.47524176 -0.0210171 6.73762475 0 0 Z " fill="#F8F8F8" transform="translate(535,74)"/>
<path d="M0 0 C64.02 0 128.04 0 194 0 C194.33 2.64 194.66 5.28 195 8 C194.01 7.505 194.01 7.505 193 7 C192.67 5.68 192.34 4.36 192 3 C129.3 2.67 66.6 2.34 2 2 C1.34 4.97 0.68 7.94 0 11 C-0.66 11 -1.32 11 -2 11 C-1.34 7.37 -0.68 3.74 0 0 Z " fill="#B7B7B7" transform="translate(202,109)"/>
<path d="M0 0 C1.93166016 0.01740234 1.93166016 0.01740234 3.90234375 0.03515625 C5.19269531 0.04417969 6.48304688 0.05320313 7.8125 0.0625 C8.81152344 0.07410156 9.81054688 0.08570313 10.83984375 0.09765625 C10.86317361 14.94413574 10.88082335 29.79061282 10.89165592 44.6371069 C10.89681869 51.53013152 10.90386103 58.42314478 10.9152832 65.31616211 C10.92629075 71.9621179 10.93211997 78.60806494 10.93472099 85.25403023 C10.93657576 87.79588571 10.94019735 90.33774051 10.94557381 92.87959099 C10.95278042 96.42617087 10.95383485 99.97270115 10.95336914 103.51928711 C10.95696442 104.58167603 10.96055969 105.64406494 10.96426392 106.73864746 C10.96288925 107.69923569 10.96151459 108.65982391 10.96009827 109.64952087 C10.96102006 110.48927428 10.96194185 111.32902769 10.96289158 112.19422817 C10.83984375 114.09765625 10.83984375 114.09765625 9.83984375 115.09765625 C7.65344922 115.17024571 5.46483986 115.18139408 3.27734375 115.16015625 C2.07980469 115.15113281 0.88226563 115.14210938 -0.3515625 115.1328125 C-1.74181641 115.11541016 -1.74181641 115.11541016 -3.16015625 115.09765625 C-4.35085169 112.71626537 -4.28592212 111.26948257 -4.28713989 108.61192322 C-4.28995972 107.6682338 -4.29277954 106.72454437 -4.29568481 105.7522583 C-4.29366058 104.71373718 -4.29163635 103.67521606 -4.28955078 102.60522461 C-4.2913031 101.51413895 -4.29305542 100.42305328 -4.29486084 99.29890442 C-4.2992761 95.67842028 -4.29634269 92.05798466 -4.29296875 88.4375 C-4.29364183 85.93168631 -4.2946119 83.42587267 -4.29586792 80.9200592 C-4.29734441 75.66341655 -4.29528648 70.40678663 -4.29052734 65.15014648 C-4.28508215 59.06529839 -4.28684977 52.98048378 -4.29235375 46.8956365 C-4.29743039 41.05010082 -4.29690353 35.20457792 -4.29397202 29.35904121 C-4.29330257 26.86742714 -4.29413179 24.37581222 -4.29645157 21.88419914 C-4.29897645 18.4096738 -4.29513995 14.93521381 -4.28955078 11.46069336 C-4.29157501 10.42014801 -4.29359924 9.37960266 -4.29568481 8.30752563 C-4.29286499 7.36665604 -4.29004517 6.42578644 -4.28713989 5.45640564 C-4.28676287 4.63399856 -4.28638584 3.81159147 -4.28599739 2.96426296 C-4.0667728 -0.28750426 -3.3282409 0.10285046 0 0 Z M-1.16015625 1.09765625 C-2.36384847 2.08174956 -2.36384847 2.08174956 -2.28320408 3.95423222 C-2.28228229 4.77186259 -2.28136049 5.58949297 -2.28041077 6.43190002 C-2.28178543 7.36724579 -2.2831601 8.30259155 -2.28457642 9.26628113 C-2.28098114 10.30061783 -2.27738586 11.33495453 -2.27368164 12.40063477 C-2.27382767 13.48342712 -2.27397369 14.56621948 -2.27412415 15.68182373 C-2.27342448 19.28008999 -2.26562958 22.87830522 -2.2578125 26.4765625 C-2.25594851 28.96378043 -2.25452452 31.45099873 -2.25352478 33.93821716 C-2.25008975 39.82786816 -2.24219902 45.71750015 -2.23217529 51.60714334 C-2.21991871 58.96790999 -2.21453416 66.32867889 -2.20898438 73.68945312 C-2.1982444 86.82553051 -2.18116618 99.96159156 -2.16015625 113.09765625 C1.79984375 113.09765625 5.75984375 113.09765625 9.83984375 113.09765625 C9.83984375 76.13765625 9.83984375 39.17765625 9.83984375 1.09765625 C6.20984375 1.09765625 2.57984375 1.09765625 -1.16015625 1.09765625 Z " fill="#BFBFBF" transform="translate(486.16015625,45.90234375)"/>
<path d="M0 0 C0.33 0 0.66 0 1 0 C1.52311647 3.72627733 2.01360319 7.4562668 2.5 11.1875 C2.64308594 12.20392578 2.78617187 13.22035156 2.93359375 14.26757812 C5.0880415 31.14408554 4.09838482 48.17725076 2.828125 65.08911133 C2.62173655 67.8562545 2.4313533 70.62420947 2.2421875 73.39257812 C2.11291457 75.18496354 1.98274068 76.97728426 1.8515625 78.76953125 C1.79626373 79.58106155 1.74096497 80.39259186 1.68399048 81.22871399 C1.28683081 86.34963027 0.36979443 91.04747609 -1 96 C-1.33 96 -1.66 96 -2 96 C-2.10854685 89.02405591 -1.69431517 82.1954859 -1.0625 75.25 C-0.97548828 74.23550781 -0.88847656 73.22101563 -0.79882812 72.17578125 C-0.12350185 64.56210279 -0.12350185 64.56210279 0.52514648 61.60986328 C1.11219059 58.38338436 1.1297778 55.31870145 1.1328125 52.0390625 C1.13376923 51.3714389 1.13472595 50.70381531 1.13571167 50.01596069 C1.13639027 48.60227362 1.13455835 47.18858338 1.13037109 45.77490234 C1.12510309 43.6662649 1.13028245 41.55784887 1.13671875 39.44921875 C1.14032492 31.38623569 0.85012113 23.41598451 0.22045898 15.37426758 C-0.11443801 10.24845218 -0.08604267 5.13387921 0 0 Z " fill="#979797" transform="translate(254,318)"/>
<path d="M0 0 C6.6 0 13.2 0 20 0 C20 17.49 20 34.98 20 53 C19.67 53 19.34 53 19 53 C17.84316758 47.5000424 17.87208089 42.16023272 17.90234375 36.5703125 C17.9037587 35.57998016 17.90517365 34.58964783 17.90663147 33.56930542 C17.91220748 30.42117227 17.92475558 27.27311148 17.9375 24.125 C17.9425181 21.98437603 17.94708046 19.84375094 17.95117188 17.703125 C17.96216906 12.46872232 17.97941716 7.23437341 18 2 C12.39 2 6.78 2 1 2 C0.67 4.64 0.34 7.28 0 10 C-0.99 10.495 -0.99 10.495 -2 11 C-1.85957123 9.35369672 -1.71250671 7.70795821 -1.5625 6.0625 C-1.48128906 5.14597656 -1.40007812 4.22945313 -1.31640625 3.28515625 C-1 1 -1 1 0 0 Z " fill="#BEBEBE" transform="translate(451,109)"/>
<path d="M0 0 C0.33 0 0.66 0 1 0 C3.29248683 15.4336392 4.41458388 30.39936219 4 46 C4.66 46 5.32 46 6 46 C6.33894456 50.31207793 6.67013354 54.62471887 7 58.9375 C7.09539062 60.14986328 7.19078125 61.36222656 7.2890625 62.61132812 C7.7811839 69.09678521 8.11225718 75.49609957 8 82 C7.34 82 6.68 82 6 82 C5.08031694 75.32463378 4.68310932 68.70665982 4.39453125 61.97851562 C4.22944096 58.4518455 4.00421267 55.02899888 3.49609375 51.53125 C2.86540622 47.04194664 2.72449221 42.58916718 2.5625 38.0625 C2.29472848 31.4474445 1.8527739 24.9327249 0.9375 18.375 C0.08482886 12.19787129 -0.23754169 6.22887101 0 0 Z " fill="#888888" transform="translate(350,460)"/>
<path d="M0 0 C0.33 0 0.66 0 1 0 C1.02505615 0.62044189 1.0501123 1.24088379 1.07592773 1.88012695 C1.19196721 4.69112397 1.31465759 7.50179241 1.4375 10.3125 C1.47681641 11.28896484 1.51613281 12.26542969 1.55664062 13.27148438 C1.59853516 14.20927734 1.64042969 15.14707031 1.68359375 16.11328125 C1.72025146 16.97735596 1.75690918 17.84143066 1.79467773 18.73168945 C1.92747354 21.1647826 1.92747354 21.1647826 3 24 C3.15070797 26.13661258 3.2485966 28.27712124 3.31640625 30.41796875 C3.35830078 31.67158203 3.40019531 32.92519531 3.44335938 34.21679688 C3.48267578 35.52712891 3.52199219 36.83746094 3.5625 38.1875 C3.60570992 39.52279978 3.649325 40.85808652 3.69335938 42.19335938 C3.79956502 45.46213297 3.90160997 48.73098333 4 52 C3.67 52 3.34 52 3 52 C0.6961519 34.58429722 -0.4480689 17.56659886 0 0 Z " fill="#8E8E8E" transform="translate(353,342)"/>
<path d="M0 0 C0.33 0 0.66 0 1 0 C1 2.97 1 5.94 1 9 C1.66 9 2.32 9 3 9 C3 17.91 3 26.82 3 36 C2.34 36 1.68 36 1 36 C0.67 24.12 0.34 12.24 0 0 Z " fill="#B6B6B6" transform="translate(242,333)"/>
<path d="M0 0 C0.33 0 0.66 0 1 0 C3.16518383 15.42309579 4.442219 30.42406425 4 46 C3.67 46 3.34 46 3 46 C3 39.73 3 33.46 3 27 C2.34 27 1.68 27 1 27 C0.30962574 17.97582223 -0.15178302 9.05638678 0 0 Z " fill="#B3B3B3" transform="translate(254,318)"/>
<path d="M0 0 C0.55171875 0.25265625 1.1034375 0.5053125 1.671875 0.765625 C0.846875 1.28125 0.021875 1.796875 -0.828125 2.328125 C-4.9886336 5.08520845 -8.63192023 8.42590698 -12.328125 11.765625 C-12.328125 8.765625 -12.328125 8.765625 -10.28125 6.46875 C-9.38921875 5.65921875 -8.4971875 4.8496875 -7.578125 4.015625 C-6.69640625 3.19578125 -5.8146875 2.3759375 -4.90625 1.53125 C-2.328125 -0.234375 -2.328125 -0.234375 0 0 Z " fill="#AFAFAF" transform="translate(287.328125,143.234375)"/>
<path d="M0 0 C6.93 0 13.86 0 21 0 C21.33 0.99 21.66 1.98 22 3 C21.42926758 2.84152588 20.85853516 2.68305176 20.27050781 2.51977539 C18.02789812 2.00638657 15.96682085 1.79834104 13.671875 1.68359375 C12.47304688 1.62075195 12.47304688 1.62075195 11.25 1.55664062 C10.0125 1.49766602 10.0125 1.49766602 8.75 1.4375 C7.90953125 1.39431641 7.0690625 1.35113281 6.203125 1.30664062 C4.13559329 1.20091457 2.06781719 1.09998705 0 1 C0 0.67 0 0.34 0 0 Z " fill="#A2A2A2" transform="translate(481,33)"/>
<path d="M0 0 C0.33 0 0.66 0 1 0 C1.25287193 6.06892629 0.69832609 11.16200408 -1 17 C-1.33 17 -1.66 17 -2 17 C-2.25287193 10.93107371 -1.69832609 5.83799592 0 0 Z " fill="#BCBCBC" transform="translate(254,397)"/>
<path d="M0 0 C0.66 0.33 1.32 0.66 2 1 C-0.31 3.31 -2.62 5.62 -5 8 C-5.33 7.01 -5.66 6.02 -6 5 C-4.02 3.35 -2.04 1.7 0 0 Z M-7 8 C-6.67 8.66 -6.34 9.32 -6 10 C-6.66 9.67 -7.32 9.34 -8 9 C-7.67 8.67 -7.34 8.34 -7 8 Z " fill="#DFDFDF" transform="translate(225,548)"/>
<path d="M0 0 C0.99 0.33 1.98 0.66 3 1 C0.36 2.98 -2.28 4.96 -5 7 C-5 6.01 -5 5.02 -5 4 C-2.6875 1.75 -2.6875 1.75 0 0 Z " fill="#555555" transform="translate(478,34)"/>
</svg>
