<?xml version="1.0" encoding="UTF-8"?>
<svg version="1.1" xmlns="http://www.w3.org/2000/svg" width="701" height="607">
<path d="M0 0 C231.33 0 462.66 0 701 0 C701 200.31 701 400.62 701 607 C469.67 607 238.34 607 0 607 C0 406.69 0 206.38 0 0 Z " fill="#FDFDFD" transform="translate(0,0)"/>
<path d="M0 0 C1.06798828 -0.01224609 2.13597656 -0.02449219 3.23632812 -0.03710938 C8.95428841 -0.04771784 13.79503528 0.24128948 19.1875 2.1875 C19.1875 2.8475 19.1875 3.5075 19.1875 4.1875 C20.2703125 4.3421875 20.2703125 4.3421875 21.375 4.5 C30.57839402 6.74971854 39.93604713 15.50177991 45.1875 23.1875 C46.4084837 25.82024611 47.43576716 28.43462664 48.36328125 31.18359375 C49.00625599 33.37065986 49.00625599 33.37065986 51.1875 34.1875 C58.6961314 53.30351114 54.37042729 75.35352962 46.625 93.5625 C44.96746864 97.17580365 42.9920218 99.40018385 40.1875 102.1875 C39.8575 103.1775 39.5275 104.1675 39.1875 105.1875 C42.99544933 107.69776871 46.86898756 107.4560079 51.26074219 107.41455078 C52.07087265 107.41484283 52.88100311 107.41513489 53.71568298 107.41543579 C56.38868994 107.41404443 59.06141684 107.39849238 61.734375 107.3828125 C63.58953703 107.37908168 65.44470102 107.37623503 67.29986572 107.37423706 C72.17923435 107.36660604 77.05848365 107.34696207 81.93780518 107.3248291 C86.91815578 107.30435927 91.89852569 107.29523291 96.87890625 107.28515625 C106.64848989 107.26371571 116.41798502 107.22958612 126.1875 107.1875 C126.32994141 106.40576416 126.47238281 105.62402832 126.61914062 104.81860352 C127.22246866 102.02561976 128.03409659 100.43517199 129.6875 98.125 C130.1309375 97.47402344 130.574375 96.82304687 131.03125 96.15234375 C138.09486717 89.71575057 146.11089118 89.60302067 155.29931641 89.77587891 C157.31594249 89.81256262 159.33072974 89.81689591 161.34765625 89.81640625 C170.37896072 89.89760679 177.59282411 90.13262397 184.5625 96.4375 C185.41585938 97.18515625 186.26921875 97.9328125 187.1484375 98.703125 C189.1875 101.1875 189.1875 101.1875 190.1875 107.1875 C199.7575 107.1875 209.3275 107.1875 219.1875 107.1875 C219.12949219 102.50433594 219.07148437 97.82117188 219.01171875 92.99609375 C218.98615548 90.02014742 218.96208515 87.04433743 218.94335938 84.06835938 C218.91352809 79.34989124 218.87832916 74.63191058 218.81030273 69.91381836 C218.75577208 66.10770915 218.72603575 62.30212301 218.71311378 58.49565315 C218.70391133 57.04719883 218.68594065 55.5987715 218.65884972 54.15054131 C218.42980709 41.3930807 218.42980709 41.3930807 221.4855957 36.86157227 C227.25583217 31.1507744 233.86537531 30.66238885 241.6875 30.6875 C242.49058594 30.65914062 243.29367187 30.63078125 244.12109375 30.6015625 C251.17111192 30.57870993 255.67033264 33.07617916 260.88012695 37.68481445 C262.83229092 39.92861822 262.70329615 41.95603453 262.875 44.875 C262.94074219 45.86886719 263.00648438 46.86273438 263.07421875 47.88671875 C263.11160156 48.64597656 263.14898438 49.40523437 263.1875 50.1875 C263.76193848 50.17178955 264.33637695 50.1560791 264.92822266 50.13989258 C267.55621309 50.07714487 270.18404537 50.03838494 272.8125 50 C274.16794922 49.96229492 274.16794922 49.96229492 275.55078125 49.92382812 C280.86636216 49.86562833 284.61200476 50.15169522 289.1875 53.1875 C291.76371108 56.59177893 292.87608895 60.15880081 294.1875 64.1875 C296.04955078 64.26097656 296.04955078 64.26097656 297.94921875 64.3359375 C299.59116694 64.41099799 301.23309297 64.48654439 302.875 64.5625 C303.69162109 64.5934375 304.50824219 64.624375 305.34960938 64.65625 C311.22604742 64.94174497 315.28512934 65.55057641 319.875 69.5 C323.93722895 74.22096878 324.43951283 78.12615531 324.4621582 84.26928711 C324.46726913 84.96263657 324.47238007 85.65598602 324.47764587 86.37034607 C324.49149414 88.65193422 324.49058879 90.93321869 324.48828125 93.21484375 C324.49217072 94.80758272 324.49650591 96.40032065 324.50126648 97.99305725 C324.50871837 101.32768113 324.50844486 104.66219911 324.50317383 107.99682617 C324.49737961 112.26167606 324.51431379 116.52609161 324.5375185 120.79086971 C324.5522783 124.07921364 324.55312451 127.36745348 324.55000877 130.65582466 C324.55052083 132.22783837 324.55573677 133.79985808 324.56582069 135.37183952 C324.57821224 137.57361644 324.57137809 139.77455402 324.55981445 141.97631836 C324.56044388 143.22698593 324.5610733 144.4776535 324.5617218 145.76622009 C324.07511474 150.21496936 322.47958622 153.40319046 319.875 157 C317.45280302 158.70450899 315.08824165 158.86519537 312.1875 159.1875 C312.1875 159.8475 312.1875 160.5075 312.1875 161.1875 C306.2475 161.1875 300.3075 161.1875 294.1875 161.1875 C293.8575 163.4975 293.5275 165.8075 293.1875 168.1875 C291.76953125 170.11328125 291.76953125 170.11328125 290 171.5 C289.42894531 171.97050781 288.85789062 172.44101563 288.26953125 172.92578125 C282.73721664 176.27838466 277.575978 176.45050884 271.3125 176.3125 C270.52875 176.30347656 269.745 176.29445313 268.9375 176.28515625 C267.02069945 176.26178063 265.10405809 176.22591653 263.1875 176.1875 C263.19910156 177.28835938 263.21070313 178.38921875 263.22265625 179.5234375 C263.18711825 183.22728727 263.08815424 185.04728865 261.1875 188.1875 C256.58585392 192.19977269 252.63193895 194.3119863 246.44140625 194.3203125 C245.52166016 194.32160156 244.60191406 194.32289063 243.65429688 194.32421875 C242.69587891 194.32035156 241.73746094 194.31648437 240.75 194.3125 C239.79544922 194.31636719 238.84089844 194.32023438 237.85742188 194.32421875 C236.93638672 194.32292969 236.01535156 194.32164062 235.06640625 194.3203125 C234.2266626 194.31918457 233.38691895 194.31805664 232.52172852 194.31689453 C226.98802793 194.01014196 226.98802793 194.01014196 224.7734375 191.734375 C224.37382813 191.14140625 223.97421875 190.5484375 223.5625 189.9375 C223.15773438 189.35484375 222.75296875 188.7721875 222.3359375 188.171875 C219.76708226 183.73317275 218.93921073 180.14935875 218.96044922 175.02026367 C218.96060028 173.79937546 218.96075134 172.57848724 218.96090698 171.32060242 C218.97122955 170.01210831 218.98155212 168.7036142 218.9921875 167.35546875 C218.99592078 165.99498198 218.99876627 164.6344925 219.00076294 163.27400208 C219.00837462 159.70488983 219.02800166 156.13594209 219.0501709 152.56689453 C219.07068265 148.92027044 219.07988583 145.2736188 219.08984375 141.62695312 C219.11018713 134.48032378 219.14933933 127.33414533 219.1875 120.1875 C209.6175 120.1875 200.0475 120.1875 190.1875 120.1875 C190.290625 122.476875 190.39375 124.76625 190.5 127.125 C190.68392615 138.03758867 188.19081708 148.41050309 185.86767578 159.01318359 C184.7829185 164.07564379 183.82812514 169.16140005 182.875 174.25 C182.54567323 175.9909044 182.21625665 177.73179181 181.88671875 179.47265625 C181.65597656 180.69855469 181.42523437 181.92445313 181.1875 183.1875 C180.5275 183.1875 179.8675 183.1875 179.1875 183.1875 C179.15011719 183.75855469 179.11273437 184.32960938 179.07421875 184.91796875 C178.2915385 194.57102517 176.14936828 203.89547652 172.9296875 213.0234375 C172.13874945 215.32964634 171.475349 217.6539614 170.8125 220 C169.35127802 224.94508281 167.41574771 229.62409237 165.375 234.35546875 C164.36661136 236.76034299 163.50709141 239.15225547 162.6875 241.625 C160.99333159 245.64864998 159.46817729 247.32563258 156.1875 250.1875 C155.42824219 250.91324219 154.66898437 251.63898438 153.88671875 252.38671875 C145.32511961 260.45462932 138.59572182 262.90604195 127.02514648 262.86572266 C114.07133725 262.40169858 105.55777631 256.24458263 96.9375 247 C93.55222742 243.26001216 90.71873279 239.56272228 88.1875 235.1875 C86.56071721 232.82538573 84.87319866 230.50781463 83.1875 228.1875 C80.83572267 224.95034768 78.52707713 221.76603882 76.5 218.3125 C75.36398881 216.05659053 75.36398881 216.05659053 73.1875 215.1875 C73.22230469 215.97769531 73.25710938 216.76789063 73.29296875 217.58203125 C73.48479399 225.57474955 72.73751276 232.94253299 71.3996582 240.79956055 C70.44221798 246.4580829 69.66268348 252.10483799 69.0625 257.8125 C68.98725098 258.50239014 68.91200195 259.19228027 68.83447266 259.90307617 C68.01191366 267.98910834 67.66576416 276.05700933 67.1875 284.1875 C84.0175 284.1875 100.8475 284.1875 118.1875 284.1875 C118.1875 284.8475 118.1875 285.5075 118.1875 286.1875 C118.744375 286.21328125 119.30125 286.2390625 119.875 286.265625 C129.15751777 286.95554186 135.62491031 290.69187551 142.1875 297.1875 C143.55763339 298.82404821 144.8995272 300.48553595 146.1875 302.1875 C146.68507813 302.64898437 147.18265625 303.11046875 147.6953125 303.5859375 C149.36375208 305.37667108 150.00925755 306.82560815 150.8125 309.125 C151.05226563 309.79402344 151.29203125 310.46304687 151.5390625 311.15234375 C156.21500504 325.82804293 152.64919297 340.95788635 148.1875 355.1875 C147.5275 355.1875 146.8675 355.1875 146.1875 355.1875 C146.04054688 356.00541016 146.04054688 356.00541016 145.890625 356.83984375 C144.90541764 361.80834637 143.43939166 366.01648697 141.26171875 370.57421875 C139.43468574 375.01889179 138.37392857 379.68751227 137.21484375 384.34375 C136.87582031 385.2821875 136.53679687 386.220625 136.1875 387.1875 C135.1975 387.5175 134.2075 387.8475 133.1875 388.1875 C133.05472656 388.88617188 132.92195313 389.58484375 132.78515625 390.3046875 C132.60855469 391.21476562 132.43195313 392.12484375 132.25 393.0625 C131.98896484 394.41988281 131.98896484 394.41988281 131.72265625 395.8046875 C131.1875 398.1875 131.1875 398.1875 130.1875 400.1875 C129.5275 400.1875 128.8675 400.1875 128.1875 400.1875 C128.06375 401.03828125 127.94 401.8890625 127.8125 402.765625 C127.17292199 406.2673146 126.25149061 409.5421182 125.1875 412.9375 C124.836875 414.06671875 124.48625 415.1959375 124.125 416.359375 C123.1875 419.1875 123.1875 419.1875 122.1875 421.1875 C121.5275 421.1875 120.8675 421.1875 120.1875 421.1875 C120.04054688 422.18716797 120.04054688 422.18716797 119.890625 423.20703125 C118.1083583 434.19255443 114.15170257 444.25909486 109.1875 454.1875 C110.3940625 454.496875 110.3940625 454.496875 111.625 454.8125 C120.83347525 458.36664834 128.98475913 464.87221315 133.125 474 C134.1875 477.1875 134.1875 477.1875 134.1875 480.1875 C134.8475 480.1875 135.5075 480.1875 136.1875 480.1875 C136.26900744 482.24933633 136.3269194 484.31211349 136.375 486.375 C136.40980469 487.52355469 136.44460938 488.67210937 136.48046875 489.85546875 C136.14840635 493.63212506 135.64139312 495.30554438 133.1875 498.1875 C128.19570764 500.7405865 124.50194378 501.56712711 118.81860352 501.59155273 C117.76832977 501.60184761 117.76832977 501.60184761 116.69683838 501.61235046 C114.40314938 501.63051606 112.11015111 501.62679595 109.81640625 501.62109375 C108.20889568 501.62566051 106.60138705 501.63096755 104.99388123 501.63697815 C101.63247727 501.64588914 98.27131114 501.64350924 94.90991211 501.63354492 C90.61827104 501.62205799 86.32745314 501.64227216 82.03592014 501.67146206 C78.71830598 501.68987432 75.40088726 501.68952165 72.08323479 501.68382454 C70.50170678 501.68367194 68.920165 501.6896655 67.33868599 501.70211601 C52.02547027 501.80570161 52.02547027 501.80570161 45.1875 497.1875 C43.34765625 495.37109375 43.34765625 495.37109375 42.25 493.625 C41.86972656 493.04621094 41.48945313 492.46742188 41.09765625 491.87109375 C36.16689783 482.75024877 39.61429293 470.54600904 42.1875 461.1875 C42.8475 461.1875 43.5075 461.1875 44.1875 461.1875 C44.15140625 460.17945313 44.1153125 459.17140625 44.078125 458.1328125 C44.18910847 454.12948031 44.85738532 450.90936996 45.9375 447.0625 C46.20820312 446.08373901 46.20820312 446.08373901 46.484375 445.08520508 C47.63098988 440.98595736 48.89240168 436.92989118 50.1875 432.875 C52.73856219 424.77638988 54.43615162 416.48777345 56.1875 408.1875 C56.8475 408.1875 57.5075 408.1875 58.1875 408.1875 C58.32414062 407.35089844 58.46078125 406.51429688 58.6015625 405.65234375 C59.21752454 402.00995487 59.87162319 398.37896044 60.5625 394.75 C60.79710937 393.49316406 61.03171875 392.23632812 61.2734375 390.94140625 C62.03542632 387.81204189 63.03929975 385.24758485 64.37744141 382.34350586 C66.20881065 377.4692377 67.1095452 372.27147122 68.1875 367.1875 C67.44628906 367.20844727 66.70507812 367.22939453 65.94140625 367.25097656 C44.36756315 367.77249847 23.76692687 365.95883953 2.45678711 362.59936523 C-0.96212901 362.16864972 -3.4421887 362.56846323 -6.8125 363.1875 C-9.48611171 363.27484122 -12.13638341 363.23363994 -14.8125 363.1875 C-14.8125 363.8475 -14.8125 364.5075 -14.8125 365.1875 C-26.10194075 367.50254657 -37.15486147 367.42075703 -48.625 367.3125 C-50.49283371 367.3024448 -52.3606727 367.29332347 -54.22851562 367.28515625 C-58.75664309 367.2633562 -63.2845117 367.22896802 -67.8125 367.1875 C-67.50006348 367.94289063 -67.18762695 368.69828125 -66.86572266 369.4765625 C-65.62330137 372.67448694 -64.90323319 375.83295253 -64.1875 379.1875 C-63.79691406 380.981875 -63.79691406 380.981875 -63.3984375 382.8125 C-62.89631537 385.70472349 -62.69075989 388.26573745 -62.8125 391.1875 C-62.1525 391.1875 -61.4925 391.1875 -60.8125 391.1875 C-56.40475513 407.89592825 -56.40475513 407.89592825 -55.8125 416.1875 C-55.1525 416.1875 -54.4925 416.1875 -53.8125 416.1875 C-53.50957031 417.35023438 -53.20664062 418.51296875 -52.89453125 419.7109375 C-50.74076165 427.95012623 -48.55458888 436.1766051 -46.25 444.375 C-44.26809113 451.43167943 -42.44466621 458.51611252 -40.70703125 465.63671875 C-40.09893104 468.05053136 -39.43512004 470.45084368 -38.72265625 472.8359375 C-37.06936479 478.92402365 -36.7922004 484.68974175 -39.5 490.5 C-42.18846756 495.13690398 -44.76889317 498.46468952 -49.9621582 500.30151367 C-56.88462024 501.89147153 -64.10347023 501.49548623 -71.16796875 501.48828125 C-72.75881562 501.49217358 -74.34966146 501.49650935 -75.94050598 501.50126648 C-79.26139714 501.50869792 -82.5821819 501.50845833 -85.90307617 501.50317383 C-90.15336494 501.49736087 -94.40322051 501.51436874 -98.65343761 501.5375185 C-101.93315667 501.55225827 -105.21277116 501.55312761 -108.49251747 501.55000877 C-110.05977555 501.55052113 -111.62703961 501.55574277 -113.19426537 501.56582069 C-115.38394756 501.57818298 -117.57278216 501.5713973 -119.76245117 501.55981445 C-121.62821053 501.56075859 -121.62821053 501.56075859 -123.53166199 501.5617218 C-127.12159974 501.1522432 -128.95293672 500.35697474 -131.8125 498.1875 C-135.73083416 492.89245383 -136.58408795 488.71437516 -135.8125 482.1875 C-135.4825 481.1975 -135.1525 480.2075 -134.8125 479.1875 C-134.1525 479.1875 -133.4925 479.1875 -132.8125 479.1875 C-132.73 478.15625 -132.6475 477.125 -132.5625 476.0625 C-131.08968231 468.45294191 -125.89432021 463.6369702 -119.8125 459.1875 C-119.1525 459.1875 -118.4925 459.1875 -117.8125 459.1875 C-117.8125 458.5275 -117.8125 457.8675 -117.8125 457.1875 C-114.8425 456.1975 -111.8725 455.2075 -108.8125 454.1875 C-109.1734375 453.13949219 -109.534375 452.09148437 -109.90625 451.01171875 C-110.37523818 449.63289349 -110.8439751 448.25398275 -111.3125 446.875 C-111.55097656 446.18470703 -111.78945312 445.49441406 -112.03515625 444.78320312 C-113.04458263 441.79818511 -113.8125 439.36091086 -113.8125 436.1875 C-114.8025 435.8575 -115.7925 435.5275 -116.8125 435.1875 C-117.69332622 432.47431956 -118.39126229 429.89866483 -119 427.125 C-119.26586914 425.98708008 -119.26586914 425.98708008 -119.53710938 424.82617188 C-119.97386967 422.94928303 -120.39469156 421.0686984 -120.8125 419.1875 C-121.4725 419.1875 -122.1325 419.1875 -122.8125 419.1875 C-123.31762244 417.58493892 -123.81641627 415.98038208 -124.3125 414.375 C-124.73015625 413.03501953 -124.73015625 413.03501953 -125.15625 411.66796875 C-125.8125 409.1875 -125.8125 409.1875 -125.8125 406.1875 C-126.8025 405.8575 -127.7925 405.5275 -128.8125 405.1875 C-129.64038086 403.36499023 -129.64038086 403.36499023 -130.27734375 400.99609375 C-130.52033203 400.13306641 -130.76332031 399.27003906 -131.01367188 398.38085938 C-131.25666016 397.47142578 -131.49964844 396.56199219 -131.75 395.625 C-133.34585578 389.73624915 -134.99468379 384.3119058 -137.97192383 378.96118164 C-139.33261433 376.09001797 -139.55025226 373.33447288 -139.8125 370.1875 C-140.4725 370.1875 -141.1325 370.1875 -141.8125 370.1875 C-142.39257812 368.42986328 -142.39257812 368.42986328 -142.984375 366.63671875 C-143.51005659 365.04935987 -144.03612424 363.46212882 -144.5625 361.875 C-144.83473389 361.05354492 -145.10696777 360.23208984 -145.38745117 359.38574219 C-147.16169879 354.06038169 -149.02339907 348.78214037 -151.05078125 343.546875 C-154.59095155 332.58142442 -154.24220829 317.86917116 -149.8125 307.1875 C-143.19168301 295.60487533 -133.73912126 288.49552539 -120.98199463 284.63331604 C-118.46477966 284.11604589 -116.15539705 284.06773569 -113.58496094 284.07397461 C-112.54418396 284.07405014 -111.50340698 284.07412567 -110.43109131 284.07420349 C-109.31429993 284.07936478 -108.19750854 284.08452606 -107.046875 284.08984375 C-105.32407318 284.09196617 -105.32407318 284.09196617 -103.56646729 284.09413147 C-99.89845169 284.09972857 -96.23049715 284.11228056 -92.5625 284.125 C-90.07552171 284.13001537 -87.58854247 284.13457822 -85.1015625 284.13867188 C-79.0051875 284.14969705 -72.90884811 284.16643231 -66.8125 284.1875 C-67.98873892 267.25745162 -69.57618975 250.41665222 -71.49121094 233.5559082 C-71.6216832 232.39255699 -71.6216832 232.39255699 -71.75479126 231.20570374 C-71.91813055 229.75153884 -72.08425054 228.29768233 -72.25375366 226.84422302 C-72.69176469 222.9374125 -72.89111003 219.11800138 -72.8125 215.1875 C-73.8025 215.1875 -74.7925 215.1875 -75.8125 215.1875 C-75.91175781 215.73921875 -76.01101563 216.2909375 -76.11328125 216.859375 C-78.45045121 224.64123698 -84.81220892 231.85458418 -89.8125 238.1875 C-90.5034375 239.07566406 -91.194375 239.96382812 -91.90625 240.87890625 C-99.41858501 250.33364295 -108.44681514 260.87506541 -121.19580078 262.48925781 C-132.29532333 263.23857501 -141.67279829 262.93160128 -150.921875 256.015625 C-166.80662944 240.65598641 -174.5447043 213.53089384 -178.1875 192.4140625 C-178.75494157 189.48464539 -179.44414404 186.60898923 -180.17675781 183.71728516 C-182.61529768 174.0260708 -184.08715082 164.26624326 -185.41748047 154.36523438 C-185.64781982 152.69170898 -185.64781982 152.69170898 -185.8828125 150.984375 C-186.08028076 149.48922363 -186.08028076 149.48922363 -186.28173828 147.96386719 C-186.81723575 145.16272771 -187.72118936 142.81338135 -188.8125 140.1875 C-190.01177142 133.35165291 -189.8125 127.3136801 -189.8125 120.1875 C-199.3825 120.1875 -208.9525 120.1875 -218.8125 120.1875 C-218.75449219 124.5703125 -218.69648438 128.953125 -218.63671875 133.46875 C-218.60452708 136.98004446 -218.57742636 140.4912968 -218.55374908 144.00265503 C-218.52742739 147.70031718 -218.49230003 151.39739922 -218.43530273 155.09472656 C-218.38067539 158.66094141 -218.35101588 162.22659643 -218.33811378 165.79319763 C-218.32448086 167.80506881 -218.28549653 169.81671708 -218.24601746 171.82824707 C-218.24378777 179.15327411 -218.65637862 184.66209797 -223.8125 190.1875 C-226.5 192.125 -226.5 192.125 -228.8125 193.1875 C-229.4725 193.5175 -230.1325 193.8475 -230.8125 194.1875 C-250.05323282 196.41787861 -250.05323282 196.41787861 -257.078125 192.25 C-259.05111653 189.97009867 -260.51035007 187.89949647 -261.8125 185.1875 C-262.1425 184.5275 -262.4725 183.8675 -262.8125 183.1875 C-262.85272391 180.8545134 -262.85570247 178.52043334 -262.8125 176.1875 C-263.8746875 176.22230469 -264.936875 176.25710938 -266.03125 176.29296875 C-282.72832929 176.68379765 -282.72832929 176.68379765 -288.359375 171.86328125 C-291.50897326 168.49250333 -292.22335282 165.63401079 -292.8125 161.1875 C-293.65844727 161.17348145 -293.65844727 161.17348145 -294.52148438 161.15917969 C-297.11931992 161.10492514 -299.71545919 161.02139317 -302.3125 160.9375 C-303.199375 160.92332031 -304.08625 160.90914062 -305 160.89453125 C-310.67640739 160.6858398 -316.45408414 160.17720507 -320.8125 156.1875 C-323.28995257 151.24992422 -324.19171151 147.62088483 -324.21655273 142.01806641 C-324.22341599 141.33899734 -324.23027924 140.65992828 -324.23735046 139.96028137 C-324.25551125 137.73632332 -324.25179613 135.51307812 -324.24609375 133.2890625 C-324.25066128 131.72878798 -324.25596855 130.16851548 -324.26197815 128.60824585 C-324.27088862 125.34519252 -324.2685105 122.08238419 -324.25854492 118.81933594 C-324.24706782 114.65781959 -324.2672572 110.49715341 -324.29646206 106.33574867 C-324.3148968 103.11502801 -324.31451706 99.89450826 -324.30882454 96.67374802 C-324.30867216 95.14049463 -324.31464712 93.60722689 -324.32711601 92.0740242 C-324.43803759 76.19823858 -324.43803759 76.19823858 -319.8125 69.1875 C-316.25196329 65.62696329 -312.36744725 65.11524736 -307.484375 64.87109375 C-306.68515625 64.82919922 -305.8859375 64.78730469 -305.0625 64.74414062 C-304.2375 64.70482422 -303.4125 64.66550781 -302.5625 64.625 C-301.72203125 64.58181641 -300.8815625 64.53863281 -300.015625 64.49414062 C-297.94809329 64.38841457 -295.88031719 64.28748705 -293.8125 64.1875 C-293.55210937 63.10210937 -293.29171875 62.01671875 -293.0234375 60.8984375 C-291.8579151 57.3266753 -291.28601751 56.06394833 -288.4375 53.8125 C-287.85226562 53.33039063 -287.26703125 52.84828125 -286.6640625 52.3515625 C-283.41773076 50.31061976 -280.25816218 50.06288813 -276.484375 50.08984375 C-275.28554688 50.09467773 -275.28554688 50.09467773 -274.0625 50.09960938 C-273.2375 50.10798828 -272.4125 50.11636719 -271.5625 50.125 C-270.72203125 50.12951172 -269.8815625 50.13402344 -269.015625 50.13867188 C-266.94788599 50.15042039 -264.88018376 50.16835478 -262.8125 50.1875 C-262.83570313 49.09695312 -262.85890625 48.00640625 -262.8828125 46.8828125 C-262.79336689 42.18194864 -261.72788178 39.1290482 -258.3828125 35.73828125 C-252.7960689 30.88809837 -248.15667375 30.92419446 -241.125 30.8125 C-239.81499023 30.75642578 -239.81499023 30.75642578 -238.47851562 30.69921875 C-231.97599964 30.61180629 -227.85427411 32.06647412 -222.8125 36.1875 C-222.26505127 36.63432129 -221.71760254 37.08114258 -221.15356445 37.54150391 C-218.21536802 41.14778833 -218.69006838 46.09411959 -218.69897461 50.53833008 C-218.69908791 52.42972466 -218.69908791 52.42972466 -218.69920349 54.35932922 C-218.70430931 55.72523031 -218.7095253 57.09113098 -218.71484375 58.45703125 C-218.7167103 59.86236012 -218.71813308 61.26768965 -218.71913147 62.67301941 C-218.722938 66.36044125 -218.73275226 70.0478233 -218.74383545 73.73522949 C-218.75408975 77.50251721 -218.75869258 81.2698116 -218.76367188 85.03710938 C-218.77384479 92.42060798 -218.79342118 99.80399753 -218.8125 107.1875 C-208.9125 107.1875 -199.0125 107.1875 -188.8125 107.1875 C-188.8125 105.2075 -188.8125 103.2275 -188.8125 101.1875 C-186.3273984 96.78946795 -182.38093124 93.29600673 -177.8125 91.1875 C-173.87705726 90.19751102 -170.1711568 90.05861443 -166.12109375 90.0546875 C-164.84685547 90.05339844 -163.57261719 90.05210937 -162.25976562 90.05078125 C-161.60145752 90.05287598 -160.94314941 90.0549707 -160.26489258 90.05712891 C-158.25269058 90.06249283 -156.24071084 90.05716372 -154.22851562 90.05078125 C-152.3190918 90.05271484 -152.3190918 90.05271484 -150.37109375 90.0546875 C-149.20892334 90.05581543 -148.04675293 90.05694336 -146.84936523 90.05810547 C-144.30784549 90.16639436 -142.22799324 90.44056258 -139.8125 91.1875 C-139.8125 91.8475 -139.8125 92.5075 -139.8125 93.1875 C-139.090625 93.27 -138.36875 93.3525 -137.625 93.4375 C-134.05604568 94.38922115 -132.3971511 95.53483177 -129.8125 98.1875 C-128.8225 100.8275 -127.8325 103.4675 -126.8125 106.1875 C-97.7725 106.1875 -68.7325 106.1875 -38.8125 106.1875 C-39.8025 103.2175 -40.7925 100.2475 -41.8125 97.1875 C-42.4725 97.1875 -43.1325 97.1875 -43.8125 97.1875 C-44.48604499 95.75320999 -45.15109701 94.31492943 -45.8125 92.875 C-46.18375 92.07449219 -46.555 91.27398437 -46.9375 90.44921875 C-47.8125 88.1875 -47.8125 88.1875 -47.8125 85.1875 C-48.4725 85.1875 -49.1325 85.1875 -49.8125 85.1875 C-53.70892763 76.87512105 -53.0245267 67.35093813 -53.0625 58.375 C-53.0934375 56.56418945 -53.0934375 56.56418945 -53.125 54.71679688 C-53.15812331 47.06117172 -52.27599177 40.44513996 -49.8125 33.1875 C-49.1525 33.1875 -48.4925 33.1875 -47.8125 33.1875 C-47.89564453 32.08921875 -47.89564453 32.08921875 -47.98046875 30.96875 C-47.58094542 24.35338688 -41.52424047 18.41598504 -36.8125 14.1875 C-32.16385135 10.1875 -32.16385135 10.1875 -29.8125 10.1875 C-29.4825 9.1975 -29.1525 8.2075 -28.8125 7.1875 C-26.01171875 5.6171875 -26.01171875 5.6171875 -22.5 4.0625 C-20.77330078 3.28519531 -20.77330078 3.28519531 -19.01171875 2.4921875 C-12.61792029 -0.11529563 -6.84722591 0.0040879 0 0 Z " fill="#080808" transform="translate(352.8125,79.8125)"/>
<path d="M0 0 C1.18916016 -0.02900391 2.37832031 -0.05800781 3.60351562 -0.08789062 C4.75142578 -0.09626953 5.89933594 -0.10464844 7.08203125 -0.11328125 C8.13237549 -0.12786377 9.18271973 -0.14244629 10.26489258 -0.1574707 C13.90916875 0.42854814 15.55523981 1.77983725 18.1875 4.3125 C20.11868218 8.17486435 19.50284465 12.87591181 19.5625 17.125 C19.61857422 18.62256836 19.61857422 18.62256836 19.67578125 20.15039062 C19.7647365 27.56827033 19.7647365 27.56827033 16.8515625 31.32421875 C15.97242188 31.98035156 15.09328125 32.63648438 14.1875 33.3125 C12.36010948 34.63850077 12.36010948 34.63850077 11.1875 36.3125 C10.82430691 39.28442762 10.82430691 39.28442762 11 42.5 C11.02707031 43.58667969 11.05414063 44.67335937 11.08203125 45.79296875 C11.13423828 47.04013672 11.13423828 47.04013672 11.1875 48.3125 C11.8475 48.3125 12.5075 48.3125 13.1875 48.3125 C13.38666016 49.26962891 13.38666016 49.26962891 13.58984375 50.24609375 C13.76644531 51.07238281 13.94304687 51.89867187 14.125 52.75 C14.29902344 53.57371094 14.47304687 54.39742187 14.65234375 55.24609375 C14.99502994 57.28911204 14.99502994 57.28911204 16.1875 58.3125 C16.22813832 59.97867115 16.230221 61.64638095 16.1875 63.3125 C16.8475 63.3125 17.5075 63.3125 18.1875 63.3125 C18.51363281 64.45847656 18.83976562 65.60445313 19.17578125 66.78515625 C19.6169515 68.31517223 20.05837106 69.84511635 20.5 71.375 C20.82000977 72.50325195 20.82000977 72.50325195 21.14648438 73.65429688 C22.18242082 77.22595835 23.27961072 80.6684137 24.7890625 84.0703125 C25.98046602 86.83250502 26.7200957 89.18737518 27.25 92.125 C27.862573 95.617051 27.862573 95.617051 30.1875 98.3125 C34.29097086 98.98208825 34.29097086 98.98208825 38.1875 98.3125 C41.58257643 94.166468 43.14635167 89.9618308 44.6875 84.875 C47.20005757 76.86652486 47.20005757 76.86652486 49.25 73.5625 C51.00577553 70.61732814 52.06956841 68.03144699 53.1875 64.8125 C54.79858932 60.22901332 56.59933182 56.42312006 59.1875 52.3125 C59.61804688 51.60480469 60.04859375 50.89710938 60.4921875 50.16796875 C70.13336941 34.87236393 83.72381679 29.3558764 100.1875 23.3125 C102.29294481 22.50331785 104.3971025 21.6907792 106.5 20.875 C108.08748047 20.26978516 108.08748047 20.26978516 109.70703125 19.65234375 C112.27600782 18.66338868 114.83254506 17.65463457 117.38671875 16.62890625 C118.82021355 16.06485264 120.253806 15.50104711 121.6875 14.9375 C122.35821533 14.66236572 123.02893066 14.38723145 123.7199707 14.10375977 C130.79835178 11.35398142 134.49048441 13.44235046 141.1875 16.3125 C143.96638613 17.00390522 143.96638613 17.00390522 146.1875 17.3125 C146.1875 17.9725 146.1875 18.6325 146.1875 19.3125 C164.55799548 20.66356599 164.55799548 20.66356599 180.9375 14.0625 C183.1875 12.3125 183.1875 12.3125 186.25 12.3125 C193.67025623 13.91070903 200.71173339 16.37583134 207.1875 20.3125 C209.50441454 21.03416191 211.83598923 21.71309529 214.1875 22.3125 C214.1875 22.9725 214.1875 23.6325 214.1875 24.3125 C214.85652344 24.43625 215.52554688 24.56 216.21484375 24.6875 C222.90194878 26.12365678 228.94343511 28.32099732 235.125 31.1875 C235.8461499 31.51492187 236.5672998 31.84234375 237.31030273 32.1796875 C241.75582947 34.30465862 244.85380876 36.59748532 248.1875 40.3125 C248.89132812 41.03050781 249.59515625 41.74851563 250.3203125 42.48828125 C254.79256163 47.28498767 257.15530593 51.10896019 259.1875 57.3125 C259.66445313 57.745625 260.14140625 58.17875 260.6328125 58.625 C262.90731765 61.09380961 263.3705174 63.72578622 264.25 66.9375 C264.83857602 69.07906577 265.47214703 71.20988358 266.1875 73.3125 C266.8475 73.6425 267.5075 73.9725 268.1875 74.3125 C268.9741377 76.2618686 269.66993057 78.24851522 270.3125 80.25 C270.84230469 81.87228516 270.84230469 81.87228516 271.3828125 83.52734375 C272.1875 86.3125 272.1875 86.3125 272.1875 88.3125 C272.8475 88.3125 273.5075 88.3125 274.1875 88.3125 C276.1675 93.2625 276.1675 93.2625 278.1875 98.3125 C282.1475 98.8075 282.1475 98.8075 286.1875 99.3125 C286.55875 98.3534375 286.55875 98.3534375 286.9375 97.375 C287.61283652 95.72042553 288.30183179 94.06991527 289.0637207 92.45336914 C291.92142621 86.35697784 293.82530623 80.16453636 295.625 73.6875 C298.24448693 64.47076047 301.04018225 55.3628515 304.1875 46.3125 C304.8475 46.3125 305.5075 46.3125 306.1875 46.3125 C306.15830498 39.87499803 305.0655562 36.30171829 300.46484375 31.72265625 C299.1875 30.3125 299.1875 30.3125 299.1875 28.3125 C298.5275 28.3125 297.8675 28.3125 297.1875 28.3125 C297.07095564 24.7502769 297.0001361 21.18854658 296.9375 17.625 C296.90398437 16.61759766 296.87046875 15.61019531 296.8359375 14.57226562 C296.73679373 7.0621251 296.73679373 7.0621251 299.078125 3.16796875 C303.92753555 -1.09771646 309.83237276 0.08898471 316 0.0625 C317.18916016 0.041875 318.37832031 0.02125 319.60351562 0 C321.32538086 -0.00773438 321.32538086 -0.00773438 323.08203125 -0.015625 C324.13237549 -0.0249707 325.18271973 -0.03431641 326.26489258 -0.04394531 C329.61576178 0.36473141 331.48421475 1.32369549 334.1875 3.3125 C335.48675149 5.91100298 335.31700813 7.82332747 335.3203125 10.73046875 C335.32160156 11.82037109 335.32289063 12.91027344 335.32421875 14.03320312 C335.32035156 15.17724609 335.31648438 16.32128906 335.3125 17.5 C335.31636719 18.62470703 335.32023437 19.74941406 335.32421875 20.90820312 C335.31766681 26.48062416 335.18795218 31.82589321 334.1875 37.3125 C333.5275 37.3125 332.8675 37.3125 332.1875 37.3125 C332.05794922 38.86130859 332.05794922 38.86130859 331.92578125 40.44140625 C330.82231225 52.34172483 328.48184078 63.77038382 325.83105469 75.41113281 C324.60117031 80.95587708 323.52551196 86.53170837 322.44384766 92.10693359 C321.82878788 95.24759483 321.20079998 98.27260006 320.1875 101.3125 C319.5275 101.3125 318.8675 101.3125 318.1875 101.3125 C318.084375 102.59125 317.98125 103.87 317.875 105.1875 C317.30616692 110.44920594 315.8500387 115.30397146 314.1875 120.3125 C313.5275 120.3125 312.8675 120.3125 312.1875 120.3125 C312.01734375 121.09753906 311.8471875 121.88257813 311.671875 122.69140625 C310.2471771 128.86762322 308.90431007 134.13149202 305.1875 139.3125 C303.0625 140.5625 303.0625 140.5625 301.1875 141.3125 C300.5275 142.3025 299.8675 143.2925 299.1875 144.3125 C292.53810158 147.15135491 284.89583705 147.50155461 277.8828125 145.73046875 C262.17910341 138.82462078 251.01529495 117.89616116 243.05078125 103.45703125 C241.54239173 100.26431828 241.54239173 100.26431828 239.1875 99.3125 C237.58551566 96.32272422 236.16803286 93.26350326 234.72265625 90.1953125 C233.3814356 87.67668442 232.44101908 86.02024493 230.1875 84.3125 C227.14538569 83.8957448 227.14538569 83.8957448 224.1875 84.3125 C217.60407648 90.89592352 219.30050481 108.20047952 218.51025391 117.44946289 C217.84286281 125.19394235 217.00656205 132.83829547 215.64697266 140.49584961 C214.88582072 145.16184846 214.50749797 149.85278583 214.125 154.5625 C213.96875161 156.42198501 213.81122138 158.28136279 213.65234375 160.140625 C213.53959106 161.46779541 213.53959106 161.46779541 213.42456055 162.82177734 C213.21578216 165.01534803 212.94563625 167.18541502 212.640625 169.3671875 C212.10907128 173.99537076 212.00361322 178.53367563 212 183.1875 C211.98775391 184.04085937 211.97550781 184.89421875 211.96289062 185.7734375 C211.96095703 186.588125 211.95902344 187.4028125 211.95703125 188.2421875 C211.95292236 188.97679199 211.94881348 189.71139648 211.94458008 190.46826172 C212.02983797 192.56064471 212.02983797 192.56064471 214.1875 194.3125 C216.77956257 194.61682172 216.77956257 194.61682172 219.83959961 194.56787109 C221.02520981 194.57483002 222.21082001 194.58178894 223.43235779 194.58895874 C224.72182816 194.58796173 226.01129852 194.58696472 227.33984375 194.5859375 C228.67827825 194.59450005 230.01670424 194.60450096 231.3551178 194.61587524 C237.03854036 194.66207468 242.72191381 194.68669458 248.40551758 194.69335938 C251.88346541 194.69842077 255.36086421 194.72291435 258.83862495 194.75868607 C260.78973811 194.77306816 262.74097262 194.76589211 264.69212341 194.75814819 C274.15490561 194.86153312 282.94070891 195.98347074 290.125 202.625 C297.60631637 210.96747509 298.85701198 219.30933233 298.38427734 230.13183594 C297.88165483 235.70184125 296.31360752 241.15242152 294.1875 246.3125 C293.5275 246.6425 292.8675 246.9725 292.1875 247.3125 C291.5066926 249.20330135 290.91883142 251.12784865 290.375 253.0625 C288.63792268 258.98287589 286.55321803 264.67260039 284.29296875 270.41015625 C283.04727158 273.68066154 282.05413035 276.92476319 281.1875 280.3125 C280.5275 280.3125 279.8675 280.3125 279.1875 280.3125 C278.99414062 281.02535156 278.80078125 281.73820312 278.6015625 282.47265625 C277.16337225 287.76263328 275.70897368 293.04586033 274.1875 298.3125 C273.5275 298.3125 272.8675 298.3125 272.1875 298.3125 C271.8471875 299.9521875 271.8471875 299.9521875 271.5 301.625 C270.63475359 305.12894113 269.37699784 308.18815833 267.8125 311.4375 C265.26025933 316.82639525 263.71158728 322.27725689 262.15234375 328.01953125 C260.88674749 332.33895493 259.13475163 336.26762983 257.1875 340.3125 C256.45375459 341.95629715 255.72454169 343.60212539 255 345.25 C254.09546163 347.29331974 253.18684778 349.31380444 252.1875 351.3125 C252.11753986 353.01952735 252.10309846 354.72918003 252.125 356.4375 C252.13853516 357.80261719 252.13853516 357.80261719 252.15234375 359.1953125 C252.16394531 359.89398437 252.17554688 360.59265625 252.1875 361.3125 C253.35667969 361.54324219 254.52585937 361.77398438 255.73046875 362.01171875 C257.27885439 362.34016419 258.82702039 362.66964622 260.375 363 C261.14392578 363.14888672 261.91285156 363.29777344 262.70507812 363.45117188 C267.92436619 364.59359115 270.67233496 366.07187876 274.1875 370.3125 C274.88875 371.1375 275.59 371.9625 276.3125 372.8125 C279.6039895 377.20115267 281.37249031 379.76279074 281.1875 385.3125 C272.65126552 385.35884803 264.11508365 385.39438171 255.57875443 385.41612434 C251.61495773 385.4265599 247.65124714 385.44071492 243.6875 385.46337891 C239.86199853 385.48511545 236.03657988 385.49707034 232.21102142 385.50225449 C230.75178473 385.50594879 229.29255256 385.51316283 227.83335114 385.52396011 C225.78886635 385.538486 223.74472343 385.54047751 221.70019531 385.53955078 C220.53659485 385.543992 219.37299438 385.54843323 218.1741333 385.55300903 C215.25446116 385.31789228 213.60121194 384.93209777 211.1875 383.3125 C208.21636498 377.37022995 210.5761477 369.39823237 212.1875 363.3125 C212.8475 363.3125 213.5075 363.3125 214.1875 363.3125 C214.125625 362.343125 214.06375 361.37375 214 360.375 C214.00758709 356.55869567 214.98779117 353.55495137 216.27734375 349.9921875 C217.34783196 346.84044969 218.17150586 343.66134748 219 340.4375 C220.26946525 335.51103173 221.69992537 330.67778343 223.30419922 325.85009766 C226.60610029 315.8891147 228.97971493 305.84122055 231.09521484 295.56347656 C232.30991147 289.76795408 233.7308596 284.68724915 236.1875 279.3125 C236.72050288 277.2422859 237.20120228 275.15779806 237.625 273.0625 C238.78110285 267.74075673 240.39338585 262.82928569 242.34375 257.75390625 C243.41655086 254.64973709 243.78940306 251.56362505 244.1875 248.3125 C244.538125 247.673125 244.88875 247.03375 245.25 246.375 C246.8059271 242.95196039 246.48867759 240.04710217 246.1875 236.3125 C242.73087669 234.00808446 241.23892119 234.05389865 237.1875 234.3125 C236.5275 234.6425 235.8675 234.9725 235.1875 235.3125 C234.60693657 237.19658031 234.60693657 237.19658031 234.25 239.4375 C233.48314187 243.74083978 231.96932119 247.34102933 230.1875 251.3125 C216.72299985 251.40869614 203.26648837 251.48654493 189.8125 250.875 C188.92353027 250.83576416 188.03456055 250.79652832 187.11865234 250.75610352 C182.73833661 250.53475099 178.50349215 250.14898708 174.1875 249.3125 C174.1875 248.6525 174.1875 247.9925 174.1875 247.3125 C163.9312237 246.50336946 154.33595079 245.96972769 144.16796875 247.83984375 C141.12436377 248.32251243 138.2636509 248.39066826 135.1875 248.3125 C135.1875 248.9725 135.1875 249.6325 135.1875 250.3125 C118.84574395 251.30290946 102.55635022 251.42861648 86.1875 251.3125 C85.93355469 250.16910156 85.67960937 249.02570313 85.41796875 247.84765625 C85.07099609 246.35661159 84.72330247 244.86573458 84.375 243.375 C84.20935547 242.62025391 84.04371094 241.86550781 83.87304688 241.08789062 C83.40933377 239.13679587 82.8067456 237.21994213 82.1875 235.3125 C78.66690432 234.13896811 75.881007 234.11103598 72.1875 234.3125 C69.91533152 236.14987827 69.91533152 236.14987827 69.9921875 238.9140625 C70.01539063 239.91179687 70.03859375 240.90953125 70.0625 241.9375 C70.08054687 242.94039062 70.09859375 243.94328125 70.1171875 244.9765625 C70.14039063 245.74742187 70.16359375 246.51828125 70.1875 247.3125 C70.8475 247.3125 71.5075 247.3125 72.1875 247.3125 C72.44144531 248.36308594 72.69539063 249.41367187 72.95703125 250.49609375 C75.05958781 259.34280935 75.05958781 259.34280935 77.8125 268 C79.80074308 273.58446417 80.4185376 279.45933916 81.1875 285.3125 C81.8475 285.3125 82.5075 285.3125 83.1875 285.3125 C83.32325439 285.901521 83.45900879 286.49054199 83.59887695 287.09741211 C84.22812676 289.81599497 84.86402484 292.53298291 85.5 295.25 C85.71333984 296.17619141 85.92667969 297.10238281 86.14648438 298.05664062 C87.35967607 303.21723215 88.7626017 308.21845233 90.4934082 313.22827148 C91.55012191 316.40138612 92.33572123 319.62642342 93.125 322.875 C93.29193359 323.55409424 93.45886719 324.23318848 93.63085938 324.93286133 C94.3234973 327.75108052 95.00768939 330.57132517 95.69189453 333.39160156 C97.63047118 341.36193722 99.71460217 349.24409939 102.171875 357.07421875 C103.28576019 360.62579885 104.37650893 364.18223074 105.4375 367.75 C105.77265625 368.86246094 106.1078125 369.97492188 106.453125 371.12109375 C107.22039407 374.45544921 107.6808939 376.91813272 107.1875 380.3125 C104.65153483 383.48061573 103.15579634 385.12278854 99.11857605 385.91377258 C97.97496109 385.90266953 96.83134613 385.89156647 95.65307617 385.88012695 C94.35210495 385.8797493 93.05113373 385.87937164 91.71073914 385.87898254 C90.30063917 385.85345295 88.89054908 385.82737303 87.48046875 385.80078125 C86.03031129 385.79144903 84.580138 385.78433485 83.12995911 385.77934265 C79.323741 385.76030435 75.51848568 385.71123306 71.71264648 385.65582275 C67.82483951 385.60456055 63.93687607 385.58181387 60.04882812 385.55664062 C52.42794776 385.50310936 44.80785908 385.41783738 37.1875 385.3125 C35.7672965 381.05188949 37.25111736 378.71144032 38.94140625 374.6875 C40.51838853 371.68184097 42.34768973 370.1328912 45.1875 368.3125 C45.75210938 367.58933594 45.75210938 367.58933594 46.328125 366.8515625 C49.24823081 364.43450013 52.75541326 363.93743126 56.375 363.125 C57.49938477 362.85913086 57.49938477 362.85913086 58.64648438 362.58789062 C60.49124819 362.15313737 62.33910066 361.73152724 64.1875 361.3125 C64.1875 356.6925 64.1875 352.0725 64.1875 347.3125 C63.5275 347.3125 62.8675 347.3125 62.1875 347.3125 C61.98592285 346.72235107 61.7843457 346.13220215 61.57666016 345.52416992 C60.6597277 342.84789637 59.73619384 340.17394704 58.8125 337.5 C58.49539062 336.57123047 58.17828125 335.64246094 57.8515625 334.68554688 C57.5421875 333.79287109 57.2328125 332.90019531 56.9140625 331.98046875 C56.63127441 331.15828857 56.34848633 330.3361084 56.05712891 329.48901367 C55.18122356 327.07949724 55.18122356 327.07949724 53.1875 324.3125 C52.68663175 322.76311086 52.23236862 321.1982724 51.8125 319.625 C50.65479397 315.59920817 49.17196207 312.12076848 47.22265625 308.4296875 C45.60417687 305.11943911 44.4237281 301.67212519 43.203125 298.19921875 C41.83762839 294.31805723 40.3762922 290.47361167 38.921875 286.625 C38.1875 284.3125 38.1875 284.3125 38.1875 281.3125 C37.5275 281.3125 36.8675 281.3125 36.1875 281.3125 C35.35051614 278.85535453 34.51777576 276.39691143 33.6875 273.9375 C33.44902344 273.23882812 33.21054688 272.54015625 32.96484375 271.8203125 C31.1875 266.5390625 31.1875 266.5390625 31.1875 264.3125 C30.5275 264.3125 29.8675 264.3125 29.1875 264.3125 C28.78917969 263.09433594 28.39085937 261.87617188 27.98046875 260.62109375 C27.44547544 258.99734214 26.91031004 257.37364722 26.375 255.75 C26.11396484 254.95013672 25.85292969 254.15027344 25.58398438 253.32617188 C23.99989335 248.53478544 22.21522322 243.93248301 20.1875 239.3125 C17.29982411 230.64947234 16.21586406 219.6384827 20.07421875 211.1171875 C24.08314568 204.61850595 29.53663531 198.36219123 36.97631836 196.22314453 C43.34514094 194.89088716 49.71207965 195.06435605 56.19140625 195.1171875 C57.51043442 195.1200174 58.82946259 195.12284729 60.1884613 195.12576294 C63.66545436 195.13333526 67.14227565 195.15292723 70.61920166 195.1751709 C74.17905353 195.19576871 77.73893362 195.20479421 81.29882812 195.21484375 C88.26178852 195.2361804 95.22463598 195.27023723 102.1875 195.3125 C102.1875 194.6525 102.1875 193.9925 102.1875 193.3125 C102.8475 192.9825 103.5075 192.6525 104.1875 192.3125 C104.50910985 179.79579231 103.69719994 167.65999492 102.22155762 155.23294067 C101.6253233 150.20847468 101.06185104 145.18031759 100.49609375 140.15234375 C100.38262604 139.15017319 100.26915833 138.14800262 100.1522522 137.11546326 C98.94148172 126.32020468 97.9876614 115.50663275 97.08862305 104.68164062 C96.98203369 103.40611328 96.87544434 102.13058594 96.765625 100.81640625 C96.63269043 99.17393921 96.63269043 99.17393921 96.49707031 97.49829102 C96.14561591 91.16815909 96.14561591 91.16815909 94 85.375 C91.14428161 83.70095819 89.43393844 83.72814108 86.1875 84.3125 C81.877586 88.29917045 79.50424492 93.25831273 76.76953125 98.40234375 C71.52374813 108.05199418 65.02714149 116.84635509 58.45507812 125.61767578 C57.35249246 127.09189568 56.26117403 128.57452937 55.171875 130.05859375 C46.26403304 141.95577907 46.26403304 141.95577907 39.1875 143.3125 C39.1875 143.9725 39.1875 144.6325 39.1875 145.3125 C32.82547957 147.43317348 24.92929622 147.45906933 18.75 144.875 C7.98485889 134.10985889 2.64637733 121.6223854 -1.8125 107.3125 C-2.17589478 106.2908374 -2.17589478 106.2908374 -2.54663086 105.24853516 C-4.67564353 99.23301624 -5.91664067 93.21845485 -7 86.9375 C-7.26586914 85.46216797 -7.26586914 85.46216797 -7.53710938 83.95703125 C-8.8125 76.75772201 -8.8125 76.75772201 -8.8125 73.3125 C-9.4725 73.3125 -10.1325 73.3125 -10.8125 73.3125 C-15.97251555 42.97160858 -15.97251555 42.97160858 -15.8125 36.3125 C-16.4725 36.3125 -17.1325 36.3125 -17.8125 36.3125 C-18.93374473 29.92231662 -19.06635233 23.60361291 -19.125 17.125 C-19.15400391 16.04541016 -19.18300781 14.96582031 -19.21289062 13.85351562 C-19.22126953 12.81517578 -19.22964844 11.77683594 -19.23828125 10.70703125 C-19.25286377 9.76706299 -19.26744629 8.82709473 -19.2824707 7.85864258 C-18.67382769 4.56122026 -17.36452882 3.41083481 -14.8125 1.3125 C-10.48944281 -0.8490286 -4.74835536 0.03823152 0 0 Z " fill="#FBFBFB" transform="translate(194.8125,182.6875)"/>
<path d="M0 0 C0.87914062 -0.00128906 1.75828125 -0.00257812 2.6640625 -0.00390625 C3.57929688 -0.00003906 4.49453125 0.00382812 5.4375 0.0078125 C6.35273438 0.00394531 7.26796875 0.00007813 8.2109375 -0.00390625 C9.52964844 -0.00197266 9.52964844 -0.00197266 10.875 0 C11.67808594 0.00112793 12.48117187 0.00225586 13.30859375 0.00341797 C15.4375 0.1328125 15.4375 0.1328125 18.4375 1.1328125 C18.4375 1.7928125 18.4375 2.4528125 18.4375 3.1328125 C19.530625 3.2565625 20.62375 3.3803125 21.75 3.5078125 C30.07797302 5.60829593 36.56060669 13.24595901 41 20.2578125 C45.79026215 28.47375173 45.75040216 36.88619545 45.6875 46.1328125 C45.69910156 47.83824219 45.69910156 47.83824219 45.7109375 49.578125 C45.69653955 55.78363988 45.27080195 61.19640619 43.4375 67.1328125 C42.7775 67.1328125 42.1175 67.1328125 41.4375 67.1328125 C41.30214844 67.67808594 41.16679687 68.22335938 41.02734375 68.78515625 C38.19407862 78.71006705 31.6473075 86.04891305 23.4375 92.1328125 C20.34517459 93.71333438 18.89977132 94.1328125 15.4375 94.1328125 C15.4375 94.7928125 15.4375 95.4528125 15.4375 96.1328125 C11.93654689 97.29979687 9.1252768 97.26549537 5.4375 97.2578125 C4.2 97.26039063 2.9625 97.26296875 1.6875 97.265625 C-1.5625 97.1328125 -1.5625 97.1328125 -4.5625 96.1328125 C-4.5625 95.4728125 -4.5625 94.8128125 -4.5625 94.1328125 C-5.42875 94.0503125 -6.295 93.9678125 -7.1875 93.8828125 C-14.96503142 92.15447218 -19.87929239 86.28992301 -24.5625 80.1328125 C-24.5625 79.4728125 -24.5625 78.8128125 -24.5625 78.1328125 C-25.2225 78.1328125 -25.8825 78.1328125 -26.5625 78.1328125 C-28.37492323 74.113961 -29.89751617 70.52170575 -30.5625 66.1328125 C-31.2225 66.1328125 -31.8825 66.1328125 -32.5625 66.1328125 C-35.41905005 53.68641587 -36.72805627 43.0194827 -33.75 30.4453125 C-33.58491943 29.73705322 -33.41983887 29.02879395 -33.24975586 28.29907227 C-32.73046875 26.30859375 -32.73046875 26.30859375 -31.5625 23.1328125 C-30.5725 22.8028125 -29.5825 22.4728125 -28.5625 22.1328125 C-28.48257812 21.41222656 -28.40265625 20.69164063 -28.3203125 19.94921875 C-26.60671346 13.58063677 -20.30545951 7.87001034 -14.75 4.5078125 C-11.5625 3.1328125 -11.5625 3.1328125 -7.5625 3.1328125 C-7.5625 2.4728125 -7.5625 1.8128125 -7.5625 1.1328125 C-4.72267118 0.18620289 -2.94394671 0.00413476 0 0 Z " fill="#FAFAFA" transform="translate(347.5625,92.8671875)"/>
<path d="M0 0 C1.12535156 0.00580078 1.12535156 0.00580078 2.2734375 0.01171875 C3.02367187 0.00785156 3.77390625 0.00398438 4.546875 0 C10.14682697 0.01010822 10.14682697 0.01010822 11.2734375 1.13671875 C11.37182743 2.8381679 11.39975775 4.54372491 11.40042114 6.24801636 C11.40324097 7.35572388 11.40606079 8.4634314 11.40896606 9.60470581 C11.40694183 10.83069489 11.4049176 12.05668396 11.40283203 13.31982422 C11.40458435 14.60262268 11.40633667 15.88542114 11.40814209 17.20709229 C11.4127166 20.73605711 11.41092655 24.26499283 11.407763 27.79395819 C11.40523841 31.48146489 11.40757732 35.16896903 11.40914917 38.85647583 C11.41097103 45.05227101 11.4085646 51.24805428 11.40380859 57.44384766 C11.39837073 64.6107443 11.4001251 71.77761248 11.405635 78.94450843 C11.41017138 85.09059928 11.41081395 91.23668154 11.40819633 97.38277352 C11.40663583 101.05659777 11.40643349 104.73040863 11.40973282 108.40423203 C11.41315466 112.50111326 11.40841317 116.59794537 11.40283203 120.69482422 C11.40485626 121.91676483 11.40688049 123.13870544 11.40896606 124.39767456 C11.40473633 126.06769531 11.40473633 126.06769531 11.40042114 127.77145386 C11.40004412 128.74080305 11.39966709 129.71015224 11.39927864 130.70887566 C11.2734375 133.13671875 11.2734375 133.13671875 10.2734375 136.13671875 C4.9934375 136.13671875 -0.2865625 136.13671875 -5.7265625 136.13671875 C-7.01279986 133.56424404 -6.85243495 131.73511176 -6.85354614 128.85374451 C-6.85636597 127.73335785 -6.85918579 126.61297119 -6.86209106 125.45863342 C-6.86006683 124.2237468 -6.8580426 122.98886017 -6.85595703 121.71655273 C-6.85770935 120.42064209 -6.85946167 119.12473145 -6.86126709 117.78955078 C-6.86583532 114.22978878 -6.86405448 110.67005568 -6.860888 107.11029315 C-6.8583618 103.39116 -6.86070262 99.67202937 -6.86227417 95.95289612 C-6.86409487 89.70760655 -6.86169191 83.46232879 -6.85693359 77.21704102 C-6.85148878 69.98703167 -6.85325561 62.75705052 -6.85876 55.52704185 C-6.86329111 49.32830864 -6.86394176 43.12958394 -6.86132133 36.93084961 C-6.85975885 33.22468704 -6.85956405 29.51853775 -6.86285782 25.81237602 C-6.86627034 21.68406364 -6.86154686 17.55580023 -6.85595703 13.42749023 C-6.85798126 12.19057938 -6.86000549 10.95366852 -6.86209106 9.67927551 C-6.85786133 8.00292526 -6.85786133 8.00292526 -6.85354614 6.29270935 C-6.85316912 5.31544105 -6.85279209 4.33817274 -6.85240364 3.33129025 C-6.59839619 -1.09840182 -3.78904597 0.00683943 0 0 Z " fill="#ECECEC" transform="translate(591.7265625,124.86328125)"/>
<path d="M0 0 C5.61 0 11.22 0 17 0 C17.02312612 17.43688711 17.0409829 34.87376812 17.05181217 52.31066704 C17.05697352 60.40649817 17.06401316 68.50231962 17.07543945 76.59814453 C17.0853912 83.65256542 17.0918546 90.7069793 17.09408849 97.76140702 C17.09539476 101.49837558 17.09847535 105.23532408 17.10573006 108.97228622 C17.11375366 113.13892262 17.11399082 117.30552388 17.11352539 121.47216797 C17.11712067 122.71797638 17.12071594 123.96378479 17.12442017 125.24734497 C17.1230455 126.37759094 17.12167084 127.50783691 17.12025452 128.67233276 C17.12117631 129.65865126 17.1220981 130.64496975 17.12304783 131.66117668 C17 134 17 134 16 136 C10.72 136 5.44 136 0 136 C0 91.12 0 46.24 0 0 Z " fill="#F1F1F1" transform="translate(104,125)"/>
<path d="M0 0 C5.61 0 11.22 0 17 0 C17 32.34 17 64.68 17 98 C11.72 98 6.44 98 1 98 C-0.91064299 96.08935701 -0.12014611 93.26172105 -0.12442017 90.71983337 C-0.12082489 89.81640701 -0.11722961 88.91298065 -0.11352539 87.98217773 C-0.11367142 87.03593536 -0.11381744 86.08969299 -0.1139679 85.11477661 C-0.11326836 81.97102608 -0.10547409 78.82733399 -0.09765625 75.68359375 C-0.09579221 73.51025932 -0.09436824 71.33692448 -0.09336853 69.16358948 C-0.08954221 63.43098805 -0.07971097 57.69841177 -0.06866455 51.96582031 C-0.05845287 46.12109721 -0.05387143 40.27637007 -0.04882812 34.43164062 C-0.0380888 22.954416 -0.02101102 11.47721009 0 0 Z " fill="#F1F1F1" transform="translate(616,144)"/>
<path d="M0 0 C5.61 0 11.22 0 17 0 C17.02312132 12.62995485 17.04091401 25.2599047 17.05181217 37.88987637 C17.05704146 43.75382164 17.06413994 49.61775249 17.07543945 55.48168945 C17.0862667 61.13561712 17.09227649 66.78953087 17.09487724 72.44346809 C17.09673179 74.6057361 17.10035295 76.76800331 17.10573006 78.93026543 C17.11293833 81.94758657 17.11399103 84.96484943 17.11352539 87.98217773 C17.11712067 88.8856041 17.12071594 89.78903046 17.12442017 90.71983337 C17.11405216 96.88594784 17.11405216 96.88594784 16 98 C13.48863896 98.09975032 11.01096585 98.13882183 8.5 98.125 C7.79746094 98.12886719 7.09492187 98.13273437 6.37109375 98.13671875 C1.12661378 98.12661378 1.12661378 98.12661378 0 97 C-0.09529612 93.98649762 -0.12551904 90.99595894 -0.11352539 87.98217773 C-0.11367142 87.03593536 -0.11381744 86.08969299 -0.1139679 85.11477661 C-0.11326836 81.97102608 -0.10547409 78.82733399 -0.09765625 75.68359375 C-0.09579221 73.51025932 -0.09436824 71.33692448 -0.09336853 69.16358948 C-0.08954221 63.43098805 -0.07971097 57.69841177 -0.06866455 51.96582031 C-0.05845287 46.12109721 -0.05387143 40.27637007 -0.04882812 34.43164062 C-0.0380888 22.954416 -0.02101102 11.47721009 0 0 Z " fill="#FEFEFE" transform="translate(73,144)"/>
<path d="M0 0 C1.258125 0.01417969 2.51625 0.02835938 3.8125 0.04296875 C5.070625 0.04941406 6.32875 0.05585938 7.625 0.0625 C10.8125 0.23046875 10.8125 0.23046875 12.8125 1.23046875 C12.8125 23.67046875 12.8125 46.11046875 12.8125 69.23046875 C7.5325 69.23046875 2.2525 69.23046875 -3.1875 69.23046875 C-5.937616 66.48035275 -5.4409349 64.91860934 -5.44628906 61.06835938 C-5.45259338 59.77361694 -5.45889771 58.47887451 -5.46539307 57.14489746 C-5.46181339 55.72550318 -5.45771146 54.30611013 -5.453125 52.88671875 C-5.45447169 51.43705175 -5.45641226 49.98738518 -5.45892334 48.53771973 C-5.46187442 45.4979218 -5.45757756 42.45824132 -5.44824219 39.41845703 C-5.43684756 35.51752626 -5.44340713 31.61687068 -5.45538712 27.71595001 C-5.46260621 24.72200437 -5.46031758 21.72812422 -5.45513153 18.73417664 C-5.45379517 17.29562854 -5.4554423 15.85707454 -5.46009064 14.41853333 C-5.4651564 12.40988271 -5.45606944 10.40121132 -5.44628906 8.39257812 C-5.44469788 7.24833374 -5.44310669 6.10408936 -5.44146729 4.9251709 C-5.05735615 0.84958656 -4.02102089 0.29073558 0 0 Z " fill="#EAEAEA" transform="translate(47.1875,157.76953125)"/>
<path d="M0 0 C1.8871875 0.00773438 1.8871875 0.00773438 3.8125 0.015625 C5.070625 0.01046875 6.32875 0.0053125 7.625 0 C10.8125 0.265625 10.8125 0.265625 12.8125 2.265625 C13.06646729 4.96032715 13.06646729 4.96032715 13.07128906 8.42773438 C13.07759338 9.72247681 13.08389771 11.01721924 13.09039307 12.35119629 C13.08681339 13.77059057 13.08271146 15.18998362 13.078125 16.609375 C13.07947169 18.059042 13.08141226 19.50870857 13.08392334 20.95837402 C13.08687442 23.99817195 13.08257756 27.03785243 13.07324219 30.07763672 C13.06184756 33.97856749 13.06840713 37.87922307 13.08038712 41.78014374 C13.08760621 44.77408938 13.08531758 47.76796953 13.08013153 50.76191711 C13.07879517 52.20046521 13.0804423 53.63901921 13.08509064 55.07756042 C13.0901564 57.08621104 13.08106944 59.09488243 13.07128906 61.10351562 C13.06890228 62.8198822 13.06890228 62.8198822 13.06646729 64.57092285 C12.8125 67.265625 12.8125 67.265625 10.8125 69.265625 C8.24957683 69.43726231 5.80904143 69.49827058 3.25 69.453125 C2.55197266 69.45248047 1.85394531 69.45183594 1.13476562 69.45117188 C-4.04718842 69.40593658 -4.04718842 69.40593658 -5.1875 68.265625 C-5.29215469 66.22093526 -5.32606044 64.17259946 -5.33276367 62.12524414 C-5.33914352 60.81040543 -5.34552338 59.49556671 -5.35209656 58.1408844 C-5.35362511 56.69418372 -5.35473914 55.24748255 -5.35546875 53.80078125 C-5.3586796 52.32726508 -5.36204354 50.85374924 -5.36555481 49.38023376 C-5.37155252 46.2874172 -5.37339406 43.19462861 -5.37280273 40.10180664 C-5.37270108 36.13248732 -5.38635321 32.16334678 -5.40357494 28.19406986 C-5.41467637 25.14952262 -5.41672252 22.10501883 -5.41619301 19.06045341 C-5.41737594 17.59677959 -5.42181516 16.13310475 -5.42952538 14.66945076 C-5.4392872 12.62479058 -5.43519288 10.5800783 -5.43041992 8.53540039 C-5.43184494 7.37037491 -5.43326996 6.20534943 -5.43473816 5.00502014 C-5.06454104 0.90324156 -4.04543388 0.33711949 0 0 Z " fill="#EBEBEB" transform="translate(651.1875,157.734375)"/>
<path d="M0 0 C15.51 0 31.02 0 47 0 C47.495 6.93 47.495 6.93 48 14 C50.29586398 17.90992403 50.29586398 17.90992403 52.74609375 21.72265625 C54.49599269 24.90082161 54.44121403 26.94913897 53.7578125 30.453125 C52.43285425 34.90607748 50.84280851 39.25305072 49.2109375 43.6015625 C47.74746549 47.70872587 46.81133061 51.72207496 46 56 C45.01 56 44.02 56 43 56 C42.56429687 54.83984375 42.12859375 53.6796875 41.6796875 52.484375 C35.57531277 35.80254044 35.57531277 35.80254044 26 21 C25.44699219 20.319375 24.89398438 19.63875 24.32421875 18.9375 C21.46249871 15.54987914 18.73499913 12.63776256 15.0625 10.125 C14.051875 9.42375 13.04125 8.7225 12 8 C12 7.34 12 6.68 12 6 C11.30132812 5.79503906 10.60265625 5.59007812 9.8828125 5.37890625 C8.97273438 5.10949219 8.06265625 4.84007812 7.125 4.5625 C6.22007812 4.29566406 5.31515625 4.02882812 4.3828125 3.75390625 C2 3 2 3 0 2 C0 1.34 0 0.68 0 0 Z " fill="#F2F2F2" transform="translate(432,200)"/>
<path d="M0 0 C14.19 0 28.38 0 43 0 C43 0.66 43 1.32 43 2 C42.40574219 2.24492187 41.81148438 2.48984375 41.19921875 2.7421875 C31.38136803 7.17014505 22.54609638 14.04188413 18 24 C17.34 24 16.68 24 16 24 C15.71125 24.94875 15.4225 25.8975 15.125 26.875 C14 30 14 30 12 32 C10.9640524 34.57399793 9.99168231 37.1379913 9.0625 39.75 C4.16954824 53.41522588 4.16954824 53.41522588 1 55 C-0.76960251 49.74273429 -2.52572097 44.4813595 -4.26464844 39.21386719 C-4.86644775 37.40207564 -5.48205046 35.59487419 -6.1015625 33.7890625 C-7.62302339 29.16780278 -8.56140134 25.79573269 -7 21 C-5.5 18.25 -5.5 18.25 -4 16 C-3.67 15.34 -3.34 14.68 -3 14 C-2.34 14 -1.68 14 -1 14 C-0.67 9.38 -0.34 4.76 0 0 Z " fill="#F7F7F7" transform="translate(228,201)"/>
<path d="M0 0 C5.61 0 11.22 0 17 0 C17.02312132 12.62995485 17.04091401 25.2599047 17.05181217 37.88987637 C17.05704146 43.75382164 17.06413994 49.61775249 17.07543945 55.48168945 C17.0862667 61.13561712 17.09227649 66.78953087 17.09487724 72.44346809 C17.09673179 74.6057361 17.10035295 76.76800331 17.10573006 78.93026543 C17.11293833 81.94758657 17.11399103 84.96484943 17.11352539 87.98217773 C17.11712067 88.8856041 17.12071594 89.78903046 17.12442017 90.71983337 C17.11405216 96.88594784 17.11405216 96.88594784 16 98 C13.48863896 98.09975032 11.01096585 98.13882183 8.5 98.125 C7.79746094 98.12886719 7.09492187 98.13273437 6.37109375 98.13671875 C1.12661378 98.12661378 1.12661378 98.12661378 0 97 C-0.09529612 93.98649762 -0.12551904 90.99595894 -0.11352539 87.98217773 C-0.11367142 87.03593536 -0.11381744 86.08969299 -0.1139679 85.11477661 C-0.11326836 81.97102608 -0.10547409 78.82733399 -0.09765625 75.68359375 C-0.09579221 73.51025932 -0.09436824 71.33692448 -0.09336853 69.16358948 C-0.08954221 63.43098805 -0.07971097 57.69841177 -0.06866455 51.96582031 C-0.05845287 46.12109721 -0.05387143 40.27637007 -0.04882812 34.43164062 C-0.0380888 22.954416 -0.02101102 11.47721009 0 0 Z M2 1 C1.97687846 13.36918715 1.95908588 25.73836919 1.94818783 38.10757351 C1.94295859 43.85045062 1.9358602 49.59331301 1.92456055 55.33618164 C1.91373313 60.87339995 1.90772348 66.41060404 1.90512276 71.94783211 C1.90326824 74.06544277 1.89964714 76.18305262 1.89426994 78.30065727 C1.88706144 81.25571274 1.88600898 84.21070871 1.88647461 87.16577148 C1.88287933 88.05049637 1.87928406 88.93522125 1.87557983 89.84675598 C1.49552085 93.73531523 1.49552085 93.73531523 3 97 C6.96 97 10.92 97 15 97 C15 65.32 15 33.64 15 1 C10.71 1 6.42 1 2 1 Z " fill="#C8C8C8" transform="translate(73,144)"/>
<path d="M0 0 C4.07502794 -0.07420211 8.14979392 -0.1286257 12.2253418 -0.16479492 C13.61147919 -0.17987397 14.99756894 -0.2003405 16.38354492 -0.22631836 C18.37658146 -0.26273716 20.36996723 -0.27813018 22.36328125 -0.29296875 C23.56251221 -0.3086792 24.76174316 -0.32438965 25.99731445 -0.34057617 C29 0 29 0 32 3 C21.11 2.67 10.22 2.34 -1 2 C-0.67 1.34 -0.34 0.68 0 0 Z " fill="#D1D1D1" transform="translate(181,168)"/>
<path d="M0 0 C0.77601562 0.31710938 1.55203125 0.63421875 2.3515625 0.9609375 C7.04967323 2.29894334 11.51331289 2.45855137 16.375 2.625 C17.30183594 2.66367188 18.22867188 2.70234375 19.18359375 2.7421875 C21.4555377 2.83587591 23.72748596 2.92159348 26 3 C26.53012738 4.28788008 27.0488329 5.58046678 27.5625 6.875 C27.99755859 7.95394531 27.99755859 7.95394531 28.44140625 9.0546875 C29 11 29 11 28 13 C25.4345406 10.4345406 25.45953913 8.52313332 25 5 C23.42412109 5.05220703 23.42412109 5.05220703 21.81640625 5.10546875 C13.90060049 5.28640145 7.40687268 5.174374 0 2 C0 1.34 0 0.68 0 0 Z " fill="#999999" transform="translate(34,237)"/>
<path d="M0 0 C1.8871875 0.061875 1.8871875 0.061875 3.8125 0.125 C3.8125 0.455 3.8125 0.785 3.8125 1.125 C2.141875 1.558125 2.141875 1.558125 0.4375 2 C-3.37688523 3.18377473 -4.48120009 3.79087795 -6.3125 7.25 C-6.60125 7.86875 -6.89 8.4875 -7.1875 9.125 C-7.375 5.75 -7.375 5.75 -7.1875 2.125 C-4.09861478 0.06574319 -3.47814073 -0.1140374 0 0 Z " fill="#DEDEDE" transform="translate(184.1875,183.875)"/>
<path d="M0 0 C0 0.66 0 1.32 0 2 C-1.75 3.5078125 -1.75 3.5078125 -4 5.125 C-4.7425 5.66382813 -5.485 6.20265625 -6.25 6.7578125 C-6.8275 7.16773438 -7.405 7.57765625 -8 8 C-8.66 7.67 -9.32 7.34 -10 7 C-9.236875 6.401875 -8.47375 5.80375 -7.6875 5.1875 C-5.08664741 3.15995888 -5.08664741 3.15995888 -3.3125 1.25 C-2 0 -2 0 0 0 Z " fill="#B8B8B8" transform="translate(245,548)"/>
<path d="M0 0 C0.99 0.495 0.99 0.495 2 1 C2.33 1.99 2.66 2.98 3 4 C3.99 4.33 4.98 4.66 6 5 C6 6.32 6 7.64 6 9 C5.01 9 4.02 9 3 9 C2.01 6.03 1.02 3.06 0 0 Z " fill="#9F9F9F" transform="translate(472,247)"/>
<path d="M0 0 C1.45606519 4.52092968 0.27032841 7.51648796 -1 12 C-1.33 12 -1.66 12 -2 12 C-2.05422947 10.5629191 -2.09289723 9.12524538 -2.125 7.6875 C-2.14820313 6.88699219 -2.17140625 6.08648437 -2.1953125 5.26171875 C-2 3 -2 3 0 0 Z " fill="#BFBFBF" transform="translate(392,148)"/>
</svg>
